<svg width="93" height="143" viewBox="0 0 93 143" fill="none" xmlns="http://www.w3.org/2000/svg">
<g clip-path="url(#clip0_1033_1862)">
<path d="M8 1.9C8.22091 1.9 8.4 1.72091 8.4 1.5C8.4 1.27909 8.22091 1.1 8 1.1V1.9ZM0 1.9H8V1.1H0V1.9Z" fill="#FFFF00"/>
<path d="M5 3.9C5.22091 3.9 5.4 3.72091 5.4 3.5C5.4 3.27909 5.22091 3.1 5 3.1V3.9ZM0 3.9H5V3.1H0V3.9Z" fill="#FFFF00"/>
<path d="M5 5.9C5.22091 5.9 5.4 5.72091 5.4 5.5C5.4 5.27909 5.22091 5.1 5 5.1V5.9ZM0 5.9H5V5.1H0V5.9Z" fill="#FFFF00"/>
<path d="M5 7.9C5.22091 7.9 5.4 7.72091 5.4 7.5C5.4 7.27909 5.22091 7.1 5 7.1V7.9ZM0 7.9H5V7.1H0V7.9Z" fill="#FFFF00"/>
<path d="M5 9.9C5.22091 9.9 5.4 9.72091 5.4 9.5C5.4 9.27909 5.22091 9.1 5 9.1V9.9ZM0 9.9H5V9.1H0V9.9Z" fill="#FFFF00"/>
<path d="M8 11.9C8.22091 11.9 8.4 11.7209 8.4 11.5C8.4 11.2791 8.22091 11.1 8 11.1V11.9ZM0 11.9H8V11.1H0V11.9Z" fill="#FFFF00"/>
<path d="M5 13.9C5.22091 13.9 5.4 13.7209 5.4 13.5C5.4 13.2791 5.22091 13.1 5 13.1V13.9ZM0 13.9H5V13.1H0V13.9Z" fill="#FFFF00"/>
<path d="M5 15.9C5.22091 15.9 5.4 15.7209 5.4 15.5C5.4 15.2791 5.22091 15.1 5 15.1V15.9ZM0 15.9H5V15.1H0V15.9Z" fill="#FFFF00"/>
<path d="M5 17.9C5.22091 17.9 5.4 17.7209 5.4 17.5C5.4 17.2791 5.22091 17.1 5 17.1V17.9ZM0 17.9H5V17.1H0V17.9Z" fill="#FFFF00"/>
<path d="M5 19.9C5.22091 19.9 5.4 19.7209 5.4 19.5C5.4 19.2791 5.22091 19.1 5 19.1V19.9ZM0 19.9H5V19.1H0V19.9Z" fill="#FFFF00"/>
<path d="M8 21.9C8.22091 21.9 8.4 21.7209 8.4 21.5C8.4 21.2791 8.22091 21.1 8 21.1V21.9ZM0 21.9H8V21.1H0V21.9Z" fill="#FFFF00"/>
<path d="M5 23.9C5.22091 23.9 5.4 23.7209 5.4 23.5C5.4 23.2791 5.22091 23.1 5 23.1V23.9ZM0 23.9H5V23.1H0V23.9Z" fill="#FFFF00"/>
<path d="M5 25.9C5.22091 25.9 5.4 25.7209 5.4 25.5C5.4 25.2791 5.22091 25.1 5 25.1V25.9ZM0 25.9H5V25.1H0V25.9Z" fill="#FFFF00"/>
<path d="M5 27.9C5.22091 27.9 5.4 27.7209 5.4 27.5C5.4 27.2791 5.22091 27.1 5 27.1V27.9ZM0 27.9H5V27.1H0V27.9Z" fill="#FFFF00"/>
<path d="M5 29.9C5.22091 29.9 5.4 29.7209 5.4 29.5C5.4 29.2791 5.22091 29.1 5 29.1V29.9ZM0 29.9H5V29.1H0V29.9Z" fill="#FFFF00"/>
<path d="M8 31.9C8.22091 31.9 8.4 31.7209 8.4 31.5C8.4 31.2791 8.22091 31.1 8 31.1V31.9ZM0 31.9H8V31.1H0V31.9Z" fill="#FFFF00"/>
<path d="M5 33.9C5.22091 33.9 5.4 33.7209 5.4 33.5C5.4 33.2791 5.22091 33.1 5 33.1V33.9ZM0 33.9H5V33.1H0V33.9Z" fill="#FFFF00"/>
<path d="M5 35.9C5.22091 35.9 5.4 35.7209 5.4 35.5C5.4 35.2791 5.22091 35.1 5 35.1V35.9ZM0 35.9H5V35.1H0V35.9Z" fill="#FFFF00"/>
<path d="M5 37.9C5.22091 37.9 5.4 37.7209 5.4 37.5C5.4 37.2791 5.22091 37.1 5 37.1V37.9ZM0 37.9H5V37.1H0V37.9Z" fill="#FFFF00"/>
<path d="M5 39.9C5.22091 39.9 5.4 39.7209 5.4 39.5C5.4 39.2791 5.22091 39.1 5 39.1V39.9ZM0 39.9H5V39.1H0V39.9Z" fill="#FFFF00"/>
<path d="M8 41.9C8.22091 41.9 8.4 41.7209 8.4 41.5C8.4 41.2791 8.22091 41.1 8 41.1V41.9ZM0 41.9H8V41.1H0V41.9Z" fill="#FFFF00"/>
<path d="M5 43.9C5.22091 43.9 5.4 43.7209 5.4 43.5C5.4 43.2791 5.22091 43.1 5 43.1V43.9ZM0 43.9H5V43.1H0V43.9Z" fill="#FFFF00"/>
<path d="M5 45.9C5.22091 45.9 5.4 45.7209 5.4 45.5C5.4 45.2791 5.22091 45.1 5 45.1V45.9ZM0 45.9H5V45.1H0V45.9Z" fill="#FFFF00"/>
<path d="M5 47.9C5.22091 47.9 5.4 47.7209 5.4 47.5C5.4 47.2791 5.22091 47.1 5 47.1V47.9ZM0 47.9H5V47.1H0V47.9Z" fill="#FFFF00"/>
<path d="M5 49.9C5.22091 49.9 5.4 49.7209 5.4 49.5C5.4 49.2791 5.22091 49.1 5 49.1V49.9ZM0 49.9H5V49.1H0V49.9Z" fill="#FFFF00"/>
<path d="M8 51.9C8.22091 51.9 8.4 51.7209 8.4 51.5C8.4 51.2791 8.22091 51.1 8 51.1V51.9ZM0 51.9H8V51.1H0V51.9Z" fill="#FFFF00"/>
<path d="M5 53.9C5.22091 53.9 5.4 53.7209 5.4 53.5C5.4 53.2791 5.22091 53.1 5 53.1V53.9ZM0 53.9H5V53.1H0V53.9Z" fill="#FFFF00"/>
<path d="M5 55.9C5.22091 55.9 5.4 55.7209 5.4 55.5C5.4 55.2791 5.22091 55.1 5 55.1V55.9ZM0 55.9H5V55.1H0V55.9Z" fill="#FFFF00"/>
<path d="M5 57.9C5.22091 57.9 5.4 57.7209 5.4 57.5C5.4 57.2791 5.22091 57.1 5 57.1V57.9ZM0 57.9H5V57.1H0V57.9Z" fill="#FFFF00"/>
<path d="M5 59.9C5.22091 59.9 5.4 59.7209 5.4 59.5C5.4 59.2791 5.22091 59.1 5 59.1V59.9ZM0 59.9H5V59.1H0V59.9Z" fill="#FFFF00"/>
<path d="M8 61.9C8.22091 61.9 8.4 61.7209 8.4 61.5C8.4 61.2791 8.22091 61.1 8 61.1V61.9ZM0 61.9H8V61.1H0V61.9Z" fill="#FFFF00"/>
<path d="M5 63.9C5.22091 63.9 5.4 63.7209 5.4 63.5C5.4 63.2791 5.22091 63.1 5 63.1V63.9ZM0 63.9H5V63.1H0V63.9Z" fill="#FFFF00"/>
<path d="M5 65.9C5.22091 65.9 5.4 65.7209 5.4 65.5C5.4 65.2791 5.22091 65.1 5 65.1V65.9ZM0 65.9H5V65.1H0V65.9Z" fill="#FFFF00"/>
<path d="M5 67.9C5.22091 67.9 5.4 67.7209 5.4 67.5C5.4 67.2791 5.22091 67.1 5 67.1V67.9ZM0 67.9H5V67.1H0V67.9Z" fill="#FFFF00"/>
<path d="M5 69.9C5.22091 69.9 5.4 69.7209 5.4 69.5C5.4 69.2791 5.22091 69.1 5 69.1V69.9ZM0 69.9H5V69.1H0V69.9Z" fill="#FFFF00"/>
<path d="M8 71.9C8.22091 71.9 8.4 71.7209 8.4 71.5C8.4 71.2791 8.22091 71.1 8 71.1V71.9ZM0 71.9H8V71.1H0V71.9Z" fill="#FFFF00"/>
<path d="M5 73.9C5.22091 73.9 5.4 73.7209 5.4 73.5C5.4 73.2791 5.22091 73.1 5 73.1V73.9ZM0 73.9H5V73.1H0V73.9Z" fill="#FFFF00"/>
<path d="M5 75.9C5.22091 75.9 5.4 75.7209 5.4 75.5C5.4 75.2791 5.22091 75.1 5 75.1V75.9ZM0 75.9H5V75.1H0V75.9Z" fill="#FFFF00"/>
<path d="M5 77.9C5.22091 77.9 5.4 77.7209 5.4 77.5C5.4 77.2791 5.22091 77.1 5 77.1V77.9ZM0 77.9H5V77.1H0V77.9Z" fill="#FFFF00"/>
<path d="M5 79.9C5.22091 79.9 5.4 79.7209 5.4 79.5C5.4 79.2791 5.22091 79.1 5 79.1V79.9ZM0 79.9H5V79.1H0V79.9Z" fill="#FFFF00"/>
<path d="M8 81.9C8.22091 81.9 8.4 81.7209 8.4 81.5C8.4 81.2791 8.22091 81.1 8 81.1V81.9ZM0 81.9H8V81.1H0V81.9Z" fill="#FFFF00"/>
<path d="M5 83.9C5.22091 83.9 5.4 83.7209 5.4 83.5C5.4 83.2791 5.22091 83.1 5 83.1V83.9ZM0 83.9H5V83.1H0V83.9Z" fill="#FFFF00"/>
<path d="M5 85.9C5.22091 85.9 5.4 85.7209 5.4 85.5C5.4 85.2791 5.22091 85.1 5 85.1V85.9ZM0 85.9H5V85.1H0V85.9Z" fill="#FFFF00"/>
<path d="M5 87.9C5.22091 87.9 5.4 87.7209 5.4 87.5C5.4 87.2791 5.22091 87.1 5 87.1V87.9ZM0 87.9H5V87.1H0V87.9Z" fill="#FFFF00"/>
<path d="M5 89.9C5.22091 89.9 5.4 89.7209 5.4 89.5C5.4 89.2791 5.22091 89.1 5 89.1V89.9ZM0 89.9H5V89.1H0V89.9Z" fill="#FFFF00"/>
<path d="M8 91.9C8.22091 91.9 8.4 91.7209 8.4 91.5C8.4 91.2791 8.22091 91.1 8 91.1V91.9ZM0 91.9H8V91.1H0V91.9Z" fill="#FFFF00"/>
<path d="M5 93.9C5.22091 93.9 5.4 93.7209 5.4 93.5C5.4 93.2791 5.22091 93.1 5 93.1V93.9ZM0 93.9H5V93.1H0V93.9Z" fill="#FFFF00"/>
<path d="M5 95.9C5.22091 95.9 5.4 95.7209 5.4 95.5C5.4 95.2791 5.22091 95.1 5 95.1V95.9ZM0 95.9H5V95.1H0V95.9Z" fill="#FFFF00"/>
<path d="M5 97.9C5.22091 97.9 5.4 97.7209 5.4 97.5C5.4 97.2791 5.22091 97.1 5 97.1V97.9ZM0 97.9H5V97.1H0V97.9Z" fill="#FFFF00"/>
<path d="M5 99.9C5.22091 99.9 5.4 99.7209 5.4 99.5C5.4 99.2791 5.22091 99.1 5 99.1V99.9ZM0 99.9H5V99.1H0V99.9Z" fill="#FFFF00"/>
<path d="M8 101.9C8.22091 101.9 8.4 101.721 8.4 101.5C8.4 101.279 8.22091 101.1 8 101.1V101.9ZM0 101.9H8V101.1H0V101.9Z" fill="#FFFF00"/>
<path d="M5 103.9C5.22091 103.9 5.4 103.721 5.4 103.5C5.4 103.279 5.22091 103.1 5 103.1V103.9ZM0 103.9H5V103.1H0V103.9Z" fill="#FFFF00"/>
<path d="M5 105.9C5.22091 105.9 5.4 105.721 5.4 105.5C5.4 105.279 5.22091 105.1 5 105.1V105.9ZM0 105.9H5V105.1H0V105.9Z" fill="#FFFF00"/>
<path d="M5 107.9C5.22091 107.9 5.4 107.721 5.4 107.5C5.4 107.279 5.22091 107.1 5 107.1V107.9ZM0 107.9H5V107.1H0V107.9Z" fill="#FFFF00"/>
<path d="M5 109.9C5.22091 109.9 5.4 109.721 5.4 109.5C5.4 109.279 5.22091 109.1 5 109.1V109.9ZM0 109.9H5V109.1H0V109.9Z" fill="#FFFF00"/>
<path d="M8 111.9C8.22091 111.9 8.4 111.721 8.4 111.5C8.4 111.279 8.22091 111.1 8 111.1V111.9ZM0 111.9H8V111.1H0V111.9Z" fill="#FFFF00"/>
<path d="M5 113.9C5.22091 113.9 5.4 113.721 5.4 113.5C5.4 113.279 5.22091 113.1 5 113.1V113.9ZM0 113.9H5V113.1H0V113.9Z" fill="#FFFF00"/>
<path d="M5 115.9C5.22091 115.9 5.4 115.721 5.4 115.5C5.4 115.279 5.22091 115.1 5 115.1V115.9ZM0 115.9H5V115.1H0V115.9Z" fill="#FFFF00"/>
<path d="M5 117.9C5.22091 117.9 5.4 117.721 5.4 117.5C5.4 117.279 5.22091 117.1 5 117.1V117.9ZM0 117.9H5V117.1H0V117.9Z" fill="#FFFF00"/>
<path d="M5 119.9C5.22091 119.9 5.4 119.721 5.4 119.5C5.4 119.279 5.22091 119.1 5 119.1V119.9ZM0 119.9H5V119.1H0V119.9Z" fill="#FFFF00"/>
<path d="M8 121.9C8.22091 121.9 8.4 121.721 8.4 121.5C8.4 121.279 8.22091 121.1 8 121.1V121.9ZM0 121.9H8V121.1H0V121.9Z" fill="#FFFF00"/>
<path d="M5 123.9C5.22091 123.9 5.4 123.721 5.4 123.5C5.4 123.279 5.22091 123.1 5 123.1V123.9ZM0 123.9H5V123.1H0V123.9Z" fill="#FFFF00"/>
<path d="M5 125.9C5.22091 125.9 5.4 125.721 5.4 125.5C5.4 125.279 5.22091 125.1 5 125.1V125.9ZM0 125.9H5V125.1H0V125.9Z" fill="#FFFF00"/>
<path d="M5 127.9C5.22091 127.9 5.4 127.721 5.4 127.5C5.4 127.279 5.22091 127.1 5 127.1V127.9ZM0 127.9H5V127.1H0V127.9Z" fill="#FFFF00"/>
<path d="M5 129.9C5.22091 129.9 5.4 129.721 5.4 129.5C5.4 129.279 5.22091 129.1 5 129.1V129.9ZM0 129.9H5V129.1H0V129.9Z" fill="#FFFF00"/>
<path d="M8 131.9C8.22091 131.9 8.4 131.721 8.4 131.5C8.4 131.279 8.22091 131.1 8 131.1V131.9ZM0 131.9H8V131.1H0V131.9Z" fill="#FFFF00"/>
<path d="M5 133.9C5.22091 133.9 5.4 133.721 5.4 133.5C5.4 133.279 5.22091 133.1 5 133.1V133.9ZM0 133.9H5V133.1H0V133.9Z" fill="#FFFF00"/>
<path d="M5 135.9C5.22091 135.9 5.4 135.721 5.4 135.5C5.4 135.279 5.22091 135.1 5 135.1V135.9ZM0 135.9H5V135.1H0V135.9Z" fill="#FFFF00"/>
<path d="M5 137.9C5.22091 137.9 5.4 137.721 5.4 137.5C5.4 137.279 5.22091 137.1 5 137.1V137.9ZM0 137.9H5V137.1H0V137.9Z" fill="#FFFF00"/>
<path d="M5 139.9C5.22091 139.9 5.4 139.721 5.4 139.5C5.4 139.279 5.22091 139.1 5 139.1V139.9ZM0 139.9H5V139.1H0V139.9Z" fill="#FFFF00"/>
<path d="M8 141.9C8.22091 141.9 8.4 141.721 8.4 141.5C8.4 141.279 8.22091 141.1 8 141.1V141.9ZM0 141.9H8V141.1H0V141.9Z" fill="#FFFF00"/>
<path d="M11.3239 0.090909V3H10.9716V0.460227H10.9545L10.2443 0.931818V0.573864L10.9716 0.090909H11.3239ZM11.9323 2.40341V2.11364L13.2107 0.090909H13.421V0.539773H13.2789L12.313 2.06818V2.09091H14.0346V2.40341H11.9323ZM13.3016 3V2.31534V2.1804V0.090909H13.6369V3H13.3016ZM15.3558 3.03977C15.1418 3.03977 14.9595 2.98153 14.8089 2.86506C14.6583 2.74763 14.5433 2.57765 14.4637 2.35511C14.3842 2.13163 14.3444 1.86174 14.3444 1.54545C14.3444 1.23106 14.3842 0.962595 14.4637 0.740057C14.5442 0.516572 14.6598 0.346117 14.8103 0.228693C14.9618 0.110322 15.1437 0.0511363 15.3558 0.0511363C15.5679 0.0511363 15.7492 0.110322 15.8998 0.228693C16.0513 0.346117 16.1669 0.516572 16.2464 0.740057C16.3269 0.962595 16.3671 1.23106 16.3671 1.54545C16.3671 1.86174 16.3274 2.13163 16.2478 2.35511C16.1683 2.57765 16.0532 2.74763 15.9027 2.86506C15.7521 2.98153 15.5698 3.03977 15.3558 3.03977ZM15.3558 2.72727C15.5679 2.72727 15.7327 2.625 15.8501 2.42045C15.9675 2.21591 16.0262 1.92424 16.0262 1.54545C16.0262 1.29356 15.9992 1.07907 15.9453 0.901989C15.8922 0.724905 15.8155 0.589962 15.7152 0.497159C15.6157 0.404356 15.4959 0.357955 15.3558 0.357955C15.1456 0.357955 14.9813 0.461648 14.8629 0.669034C14.7445 0.875473 14.6853 1.16761 14.6853 1.54545C14.6853 1.79735 14.7118 2.01136 14.7649 2.1875C14.8179 2.36364 14.8941 2.49763 14.9936 2.58949C15.0939 2.68134 15.2147 2.72727 15.3558 2.72727Z" fill="#FFFF00"/>
<path d="M11.3239 10.0909V13H10.9716V10.4602H10.9545L10.2443 10.9318V10.5739L10.9716 10.0909H11.3239ZM12.9835 13.0398C12.796 13.0398 12.6288 13.0076 12.482 12.9432C12.3362 12.8788 12.2202 12.7893 12.134 12.6747C12.0488 12.5592 12.0024 12.4252 11.9948 12.2727H12.3528C12.3604 12.3665 12.3926 12.4474 12.4494 12.5156C12.5062 12.5829 12.5805 12.6349 12.6724 12.6719C12.7642 12.7088 12.866 12.7273 12.9778 12.7273C13.1028 12.7273 13.2136 12.7055 13.3102 12.6619C13.4068 12.6184 13.4825 12.5578 13.5374 12.4801C13.5924 12.4025 13.6198 12.3125 13.6198 12.2102C13.6198 12.1032 13.5933 12.009 13.5403 11.9276C13.4873 11.8452 13.4096 11.7808 13.3073 11.7344C13.2051 11.688 13.0801 11.6648 12.9323 11.6648H12.6994V11.3523H12.9323C13.0479 11.3523 13.1492 11.3314 13.2363 11.2898C13.3244 11.2481 13.393 11.1894 13.4423 11.1136C13.4925 11.0379 13.5176 10.9489 13.5176 10.8466C13.5176 10.7481 13.4958 10.6624 13.4522 10.5895C13.4087 10.5166 13.3471 10.4598 13.2676 10.419C13.189 10.3783 13.0962 10.358 12.9891 10.358C12.8888 10.358 12.7941 10.3764 12.7051 10.4134C12.617 10.4493 12.545 10.5019 12.4891 10.571C12.4333 10.6392 12.403 10.7216 12.3982 10.8182H12.0573C12.063 10.6657 12.1089 10.5322 12.1951 10.4176C12.2813 10.3021 12.394 10.2121 12.5332 10.1477C12.6733 10.0833 12.8272 10.0511 12.9948 10.0511C13.1748 10.0511 13.3291 10.0876 13.4579 10.1605C13.5867 10.2325 13.6856 10.3277 13.7548 10.446C13.8239 10.5644 13.8585 10.6922 13.8585 10.8295C13.8585 10.9934 13.8154 11.133 13.7292 11.2486C13.644 11.3641 13.528 11.4441 13.3812 11.4886V11.5114C13.5649 11.5417 13.7084 11.6198 13.8116 11.7457C13.9148 11.8707 13.9664 12.0256 13.9664 12.2102C13.9664 12.3684 13.9233 12.5104 13.8372 12.6364C13.7519 12.7614 13.6355 12.8598 13.4877 12.9318C13.34 13.0038 13.1719 13.0398 12.9835 13.0398ZM15.3362 13.0398C15.1222 13.0398 14.9399 12.9815 14.7894 12.8651C14.6388 12.7476 14.5237 12.5777 14.4442 12.3551C14.3647 12.1316 14.3249 11.8617 14.3249 11.5455C14.3249 11.2311 14.3647 10.9626 14.4442 10.7401C14.5247 10.5166 14.6402 10.3461 14.7908 10.2287C14.9423 10.1103 15.1241 10.0511 15.3362 10.0511C15.5484 10.0511 15.7297 10.1103 15.8803 10.2287C16.0318 10.3461 16.1473 10.5166 16.2269 10.7401C16.3074 10.9626 16.3476 11.2311 16.3476 11.5455C16.3476 11.8617 16.3078 12.1316 16.2283 12.3551C16.1487 12.5777 16.0337 12.7476 15.8831 12.8651C15.7326 12.9815 15.5503 13.0398 15.3362 13.0398ZM15.3362 12.7273C15.5484 12.7273 15.7131 12.625 15.8306 12.4205C15.948 12.2159 16.0067 11.9242 16.0067 11.5455C16.0067 11.2936 15.9797 11.0791 15.9257 10.902C15.8727 10.7249 15.796 10.59 15.6956 10.4972C15.5962 10.4044 15.4764 10.358 15.3362 10.358C15.126 10.358 14.9617 10.4616 14.8434 10.669C14.725 10.8755 14.6658 11.1676 14.6658 11.5455C14.6658 11.7973 14.6923 12.0114 14.7453 12.1875C14.7984 12.3636 14.8746 12.4976 14.974 12.5895C15.0744 12.6813 15.1952 12.7273 15.3362 12.7273Z" fill="#FFFF00"/>
<path d="M11.3239 20.0909V23H10.9716V20.4602H10.9545L10.2443 20.9318V20.5739L10.9716 20.0909H11.3239ZM12.0005 23V22.7443L12.9607 21.6932C13.0734 21.5701 13.1662 21.4631 13.2391 21.3722C13.3121 21.2803 13.366 21.1941 13.4011 21.1136C13.4371 21.0322 13.4551 20.947 13.4551 20.858C13.4551 20.7557 13.4304 20.6671 13.3812 20.5923C13.3329 20.5175 13.2666 20.4598 13.1823 20.419C13.098 20.3783 13.0034 20.358 12.8982 20.358C12.7865 20.358 12.689 20.3812 12.6056 20.4276C12.5232 20.473 12.4593 20.5369 12.4139 20.6193C12.3694 20.7017 12.3471 20.7983 12.3471 20.9091H12.0119C12.0119 20.7386 12.0512 20.589 12.1298 20.4602C12.2084 20.3314 12.3154 20.2311 12.4508 20.1591C12.5872 20.0871 12.7401 20.0511 12.9096 20.0511C13.0801 20.0511 13.2311 20.0871 13.3627 20.1591C13.4944 20.2311 13.5976 20.3281 13.6724 20.4503C13.7472 20.5724 13.7846 20.7083 13.7846 20.858C13.7846 20.965 13.7652 21.0696 13.7264 21.1719C13.6885 21.2732 13.6222 21.3864 13.5275 21.5114C13.4338 21.6354 13.3035 21.7869 13.1369 21.9659L12.4835 22.6648V22.6875H13.8357V23H12.0005ZM15.2113 23.0398C14.9972 23.0398 14.8149 22.9815 14.6644 22.8651C14.5138 22.7476 14.3988 22.5777 14.3192 22.3551C14.2397 22.1316 14.1999 21.8617 14.1999 21.5455C14.1999 21.2311 14.2397 20.9626 14.3192 20.7401C14.3997 20.5166 14.5152 20.3461 14.6658 20.2287C14.8173 20.1103 14.9991 20.0511 15.2113 20.0511C15.4234 20.0511 15.6047 20.1103 15.7553 20.2287C15.9068 20.3461 16.0223 20.5166 16.1019 20.7401C16.1824 20.9626 16.2226 21.2311 16.2226 21.5455C16.2226 21.8617 16.1828 22.1316 16.1033 22.3551C16.0238 22.5777 15.9087 22.7476 15.7581 22.8651C15.6076 22.9815 15.4253 23.0398 15.2113 23.0398ZM15.2113 22.7273C15.4234 22.7273 15.5881 22.625 15.7056 22.4205C15.823 22.2159 15.8817 21.9242 15.8817 21.5455C15.8817 21.2936 15.8547 21.0791 15.8007 20.902C15.7477 20.7249 15.671 20.59 15.5706 20.4972C15.4712 20.4044 15.3514 20.358 15.2113 20.358C15.001 20.358 14.8367 20.4616 14.7184 20.669C14.6 20.8755 14.5408 21.1676 14.5408 21.5455C14.5408 21.7973 14.5673 22.0114 14.6203 22.1875C14.6734 22.3636 14.7496 22.4976 14.849 22.5895C14.9494 22.6813 15.0702 22.7273 15.2113 22.7273Z" fill="#FFFF00"/>
<path d="M11.3239 30.0909V33H10.9716V30.4602H10.9545L10.2443 30.9318V30.5739L10.9716 30.0909H11.3239ZM13.0232 30.0909V33H12.671V30.4602H12.6539L11.9437 30.9318V30.5739L12.671 30.0909H13.0232ZM14.6488 33.0398C14.4347 33.0398 14.2524 32.9815 14.1019 32.8651C13.9513 32.7476 13.8363 32.5777 13.7567 32.3551C13.6772 32.1316 13.6374 31.8617 13.6374 31.5455C13.6374 31.2311 13.6772 30.9626 13.7567 30.7401C13.8372 30.5166 13.9527 30.3461 14.1033 30.2287C14.2548 30.1103 14.4366 30.0511 14.6488 30.0511C14.8609 30.0511 15.0422 30.1103 15.1928 30.2287C15.3443 30.3461 15.4598 30.5166 15.5394 30.7401C15.6199 30.9626 15.6601 31.2311 15.6601 31.5455C15.6601 31.8617 15.6203 32.1316 15.5408 32.3551C15.4613 32.5777 15.3462 32.7476 15.1956 32.8651C15.0451 32.9815 14.8628 33.0398 14.6488 33.0398ZM14.6488 32.7273C14.8609 32.7273 15.0256 32.625 15.1431 32.4205C15.2605 32.2159 15.3192 31.9242 15.3192 31.5455C15.3192 31.2936 15.2922 31.0791 15.2382 30.902C15.1852 30.7249 15.1085 30.59 15.0081 30.4972C14.9087 30.4044 14.7889 30.358 14.6488 30.358C14.4385 30.358 14.2742 30.4616 14.1559 30.669C14.0375 30.8755 13.9783 31.1676 13.9783 31.5455C13.9783 31.7973 14.0048 32.0114 14.0578 32.1875C14.1109 32.3636 14.1871 32.4976 14.2865 32.5895C14.3869 32.6813 14.5077 32.7273 14.6488 32.7273Z" fill="#FFFF00"/>
<path d="M11.3239 40.0909V43H10.9716V40.4602H10.9545L10.2443 40.9318V40.5739L10.9716 40.0909H11.3239ZM12.9494 43.0398C12.7354 43.0398 12.5531 42.9815 12.4025 42.8651C12.2519 42.7476 12.1369 42.5777 12.0573 42.3551C11.9778 42.1316 11.938 41.8617 11.938 41.5455C11.938 41.2311 11.9778 40.9626 12.0573 40.7401C12.1378 40.5166 12.2534 40.3461 12.4039 40.2287C12.5554 40.1103 12.7373 40.0511 12.9494 40.0511C13.1615 40.0511 13.3428 40.1103 13.4934 40.2287C13.6449 40.3461 13.7605 40.5166 13.84 40.7401C13.9205 40.9626 13.9607 41.2311 13.9607 41.5455C13.9607 41.8617 13.921 42.1316 13.8414 42.3551C13.7619 42.5777 13.6468 42.7476 13.4963 42.8651C13.3457 42.9815 13.1634 43.0398 12.9494 43.0398ZM12.9494 42.7273C13.1615 42.7273 13.3263 42.625 13.4437 42.4205C13.5611 42.2159 13.6198 41.9242 13.6198 41.5455C13.6198 41.2936 13.5928 41.0791 13.5389 40.902C13.4858 40.7249 13.4091 40.59 13.3088 40.4972C13.2093 40.4044 13.0895 40.358 12.9494 40.358C12.7391 40.358 12.5748 40.4616 12.4565 40.669C12.3381 40.8755 12.2789 41.1676 12.2789 41.5455C12.2789 41.7973 12.3054 42.0114 12.3585 42.1875C12.4115 42.3636 12.4877 42.4976 12.5872 42.5895C12.6875 42.6813 12.8083 42.7273 12.9494 42.7273ZM15.2894 43.0398C15.0754 43.0398 14.8931 42.9815 14.7425 42.8651C14.5919 42.7476 14.4769 42.5777 14.3973 42.3551C14.3178 42.1316 14.278 41.8617 14.278 41.5455C14.278 41.2311 14.3178 40.9626 14.3973 40.7401C14.4778 40.5166 14.5934 40.3461 14.7439 40.2287C14.8954 40.1103 15.0773 40.0511 15.2894 40.0511C15.5015 40.0511 15.6828 40.1103 15.8334 40.2287C15.9849 40.3461 16.1005 40.5166 16.18 40.7401C16.2605 40.9626 16.3007 41.2311 16.3007 41.5455C16.3007 41.8617 16.261 42.1316 16.1814 42.3551C16.1019 42.5777 15.9868 42.7476 15.8362 42.8651C15.6857 42.9815 15.5034 43.0398 15.2894 43.0398ZM15.2894 42.7273C15.5015 42.7273 15.6663 42.625 15.7837 42.4205C15.9011 42.2159 15.9598 41.9242 15.9598 41.5455C15.9598 41.2936 15.9328 41.0791 15.8789 40.902C15.8258 40.7249 15.7491 40.59 15.6487 40.4972C15.5493 40.4044 15.4295 40.358 15.2894 40.358C15.0791 40.358 14.9148 40.4616 14.7965 40.669C14.6781 40.8755 14.6189 41.1676 14.6189 41.5455C14.6189 41.7973 14.6454 42.0114 14.6985 42.1875C14.7515 42.3636 14.8277 42.4976 14.9272 42.5895C15.0275 42.6813 15.1483 42.7273 15.2894 42.7273Z" fill="#FFFF00"/>
<path d="M11.2273 50.0511C11.3466 50.0521 11.4659 50.0748 11.5852 50.1193C11.7045 50.1638 11.8134 50.2377 11.9119 50.3409C12.0104 50.4432 12.0895 50.5829 12.1491 50.7599C12.2088 50.937 12.2386 51.1591 12.2386 51.4261C12.2386 51.6847 12.214 51.9143 12.1648 52.1151C12.1165 52.3149 12.0464 52.4834 11.9545 52.6207C11.8636 52.758 11.7528 52.8622 11.6222 52.9332C11.4924 53.0043 11.3456 53.0398 11.1818 53.0398C11.0189 53.0398 10.8736 53.0076 10.7457 52.9432C10.6188 52.8778 10.5147 52.7874 10.4332 52.6719C10.3527 52.5554 10.3011 52.4205 10.2784 52.267H10.625C10.6562 52.4006 10.7183 52.5109 10.8111 52.598C10.9048 52.6842 11.0284 52.7273 11.1818 52.7273C11.4063 52.7273 11.5833 52.6293 11.7131 52.4332C11.8438 52.2372 11.9091 51.9602 11.9091 51.6023H11.8864C11.8333 51.6818 11.7704 51.7505 11.6974 51.8082C11.6245 51.866 11.5436 51.9105 11.4545 51.9418C11.3655 51.973 11.2708 51.9886 11.1705 51.9886C11.0038 51.9886 10.8509 51.9474 10.7116 51.8651C10.5734 51.7817 10.4626 51.6676 10.3793 51.5227C10.2969 51.3769 10.2557 51.2102 10.2557 51.0227C10.2557 50.8447 10.2955 50.6818 10.375 50.5341C10.4555 50.3854 10.5682 50.267 10.7131 50.179C10.8589 50.0909 11.0303 50.0483 11.2273 50.0511ZM11.2273 50.3636C11.108 50.3636 11.0005 50.3935 10.9048 50.4531C10.8101 50.5118 10.7348 50.5914 10.679 50.6918C10.6241 50.7912 10.5966 50.9015 10.5966 51.0227C10.5966 51.1439 10.6231 51.2543 10.6761 51.3537C10.7301 51.4522 10.8035 51.5308 10.8963 51.5895C10.9901 51.6473 11.0966 51.6761 11.2159 51.6761C11.3059 51.6761 11.3897 51.6586 11.4673 51.6236C11.545 51.5876 11.6127 51.5388 11.6705 51.4773C11.7292 51.4148 11.7751 51.3442 11.8082 51.2656C11.8414 51.1861 11.858 51.1032 11.858 51.017C11.858 50.9034 11.8305 50.7969 11.7756 50.6974C11.7216 50.598 11.6468 50.5175 11.5511 50.456C11.4564 50.3944 11.3485 50.3636 11.2273 50.3636ZM13.5861 53.0398C13.3721 53.0398 13.1898 52.9815 13.0392 52.8651C12.8887 52.7476 12.7736 52.5777 12.694 52.3551C12.6145 52.1316 12.5747 51.8617 12.5747 51.5455C12.5747 51.2311 12.6145 50.9626 12.694 50.7401C12.7745 50.5166 12.8901 50.3461 13.0406 50.2287C13.1922 50.1103 13.374 50.0511 13.5861 50.0511C13.7982 50.0511 13.9796 50.1103 14.1301 50.2287C14.2816 50.3461 14.3972 50.5166 14.4767 50.7401C14.5572 50.9626 14.5975 51.2311 14.5975 51.5455C14.5975 51.8617 14.5577 52.1316 14.4781 52.3551C14.3986 52.5777 14.2835 52.7476 14.133 52.8651C13.9824 52.9815 13.8001 53.0398 13.5861 53.0398ZM13.5861 52.7273C13.7982 52.7273 13.963 52.625 14.0804 52.4205C14.1978 52.2159 14.2565 51.9242 14.2565 51.5455C14.2565 51.2936 14.2296 51.0791 14.1756 50.902C14.1226 50.7249 14.0458 50.59 13.9455 50.4972C13.846 50.4044 13.7262 50.358 13.5861 50.358C13.3759 50.358 13.2116 50.4616 13.0932 50.669C12.9748 50.8755 12.9156 51.1676 12.9156 51.5455C12.9156 51.7973 12.9422 52.0114 12.9952 52.1875C13.0482 52.3636 13.1244 52.4976 13.2239 52.5895C13.3243 52.6813 13.445 52.7273 13.5861 52.7273Z" fill="#FFFF00"/>
<path d="M11.233 63.0398C11.0379 63.0398 10.8655 63.0052 10.7159 62.9361C10.5672 62.866 10.4512 62.7699 10.3679 62.6477C10.2846 62.5246 10.2434 62.3845 10.2443 62.2273C10.2434 62.1042 10.2675 61.9905 10.3168 61.8864C10.366 61.7812 10.4332 61.6937 10.5185 61.6236C10.6046 61.5526 10.7008 61.5076 10.8068 61.4886V61.4716C10.6676 61.4356 10.5568 61.3575 10.4744 61.2372C10.392 61.116 10.3513 60.9782 10.3523 60.8239C10.3513 60.6761 10.3887 60.544 10.4645 60.4276C10.5402 60.3111 10.6444 60.2192 10.777 60.152C10.9105 60.0848 11.0625 60.0511 11.233 60.0511C11.4015 60.0511 11.5521 60.0848 11.6847 60.152C11.8172 60.2192 11.9214 60.3111 11.9972 60.4276C12.0739 60.544 12.1127 60.6761 12.1136 60.8239C12.1127 60.9782 12.0705 61.116 11.9872 61.2372C11.9048 61.3575 11.7955 61.4356 11.6591 61.4716V61.4886C11.7642 61.5076 11.8589 61.5526 11.9432 61.6236C12.0275 61.6937 12.0947 61.7812 12.1449 61.8864C12.1951 61.9905 12.2206 62.1042 12.2216 62.2273C12.2206 62.3845 12.178 62.5246 12.0938 62.6477C12.0104 62.7699 11.8944 62.866 11.7457 62.9361C11.598 63.0052 11.4271 63.0398 11.233 63.0398ZM11.233 62.7273C11.3646 62.7273 11.4782 62.706 11.5739 62.6634C11.6695 62.6207 11.7434 62.5606 11.7955 62.483C11.8475 62.4053 11.8741 62.3144 11.875 62.2102C11.8741 62.1004 11.8456 62.0033 11.7898 61.919C11.7339 61.8348 11.6577 61.7685 11.5611 61.7202C11.4654 61.6719 11.3561 61.6477 11.233 61.6477C11.1089 61.6477 10.9981 61.6719 10.9006 61.7202C10.804 61.7685 10.7277 61.8348 10.6719 61.919C10.617 62.0033 10.59 62.1004 10.5909 62.2102C10.59 62.3144 10.6151 62.4053 10.6662 62.483C10.7183 62.5606 10.7926 62.6207 10.8892 62.6634C10.9858 62.706 11.1004 62.7273 11.233 62.7273ZM11.233 61.3466C11.3371 61.3466 11.4295 61.3258 11.5099 61.2841C11.5914 61.2424 11.6553 61.1842 11.7017 61.1094C11.7481 61.0346 11.7718 60.947 11.7727 60.8466C11.7718 60.7481 11.7486 60.6624 11.7031 60.5895C11.6577 60.5156 11.5947 60.4588 11.5142 60.419C11.4337 60.3783 11.34 60.358 11.233 60.358C11.1241 60.358 11.0289 60.3783 10.9474 60.419C10.866 60.4588 10.803 60.5156 10.7585 60.5895C10.714 60.6624 10.6922 60.7481 10.6932 60.8466C10.6922 60.947 10.7145 61.0346 10.7599 61.1094C10.8063 61.1842 10.8703 61.2424 10.9517 61.2841C11.0331 61.3258 11.1269 61.3466 11.233 61.3466ZM13.5548 63.0398C13.3408 63.0398 13.1585 62.9815 13.008 62.8651C12.8574 62.7476 12.7423 62.5777 12.6628 62.3551C12.5833 62.1316 12.5435 61.8617 12.5435 61.5455C12.5435 61.2311 12.5833 60.9626 12.6628 60.7401C12.7433 60.5166 12.8588 60.3461 13.0094 60.2287C13.1609 60.1103 13.3427 60.0511 13.5548 60.0511C13.767 60.0511 13.9483 60.1103 14.0989 60.2287C14.2504 60.3461 14.3659 60.5166 14.4455 60.7401C14.526 60.9626 14.5662 61.2311 14.5662 61.5455C14.5662 61.8617 14.5264 62.1316 14.4469 62.3551C14.3673 62.5777 14.2523 62.7476 14.1017 62.8651C13.9512 62.9815 13.7689 63.0398 13.5548 63.0398ZM13.5548 62.7273C13.767 62.7273 13.9317 62.625 14.0492 62.4205C14.1666 62.2159 14.2253 61.9242 14.2253 61.5455C14.2253 61.2936 14.1983 61.0791 14.1443 60.902C14.0913 60.7249 14.0146 60.59 13.9142 60.4972C13.8148 60.4044 13.695 60.358 13.5548 60.358C13.3446 60.358 13.1803 60.4616 13.0619 60.669C12.9436 60.8755 12.8844 61.1676 12.8844 61.5455C12.8844 61.7973 12.9109 62.0114 12.9639 62.1875C13.017 62.3636 13.0932 62.4976 13.1926 62.5895C13.293 62.6813 13.4137 62.7273 13.5548 62.7273Z" fill="#FFFF00"/>
<path d="M10.392 73L11.6932 70.4261V70.4034H10.1932V70.0909H12.0568V70.4205L10.7614 73H10.392ZM13.3127 73.0398C13.0986 73.0398 12.9163 72.9815 12.7658 72.8651C12.6152 72.7476 12.5002 72.5777 12.4206 72.3551C12.3411 72.1316 12.3013 71.8617 12.3013 71.5455C12.3013 71.2311 12.3411 70.9626 12.4206 70.7401C12.5011 70.5166 12.6166 70.3461 12.7672 70.2287C12.9187 70.1103 13.1005 70.0511 13.3127 70.0511C13.5248 70.0511 13.7061 70.1103 13.8567 70.2287C14.0082 70.3461 14.1237 70.5166 14.2033 70.7401C14.2838 70.9626 14.324 71.2311 14.324 71.5455C14.324 71.8617 14.2842 72.1316 14.2047 72.3551C14.1252 72.5777 14.0101 72.7476 13.8595 72.8651C13.709 72.9815 13.5267 73.0398 13.3127 73.0398ZM13.3127 72.7273C13.5248 72.7273 13.6896 72.625 13.807 72.4205C13.9244 72.2159 13.9831 71.9242 13.9831 71.5455C13.9831 71.2936 13.9561 71.0791 13.9021 70.902C13.8491 70.7249 13.7724 70.59 13.672 70.4972C13.5726 70.4044 13.4528 70.358 13.3127 70.358C13.1024 70.358 12.9381 70.4616 12.8198 70.669C12.7014 70.8755 12.6422 71.1676 12.6422 71.5455C12.6422 71.7973 12.6687 72.0114 12.7217 72.1875C12.7748 72.3636 12.851 72.4976 12.9504 72.5895C13.0508 72.6813 13.1716 72.7273 13.3127 72.7273Z" fill="#FFFF00"/>
<path d="M11.267 83.0398C11.1477 83.0379 11.0284 83.0152 10.9091 82.9716C10.7898 82.928 10.6809 82.8546 10.5824 82.7514C10.4839 82.6473 10.4048 82.5066 10.3452 82.3295C10.2855 82.1515 10.2557 81.928 10.2557 81.6591C10.2557 81.4015 10.2798 81.1733 10.3281 80.9744C10.3764 80.7746 10.4465 80.6065 10.5384 80.4702C10.6302 80.3329 10.741 80.2287 10.8707 80.1577C11.0014 80.0866 11.1487 80.0511 11.3125 80.0511C11.4754 80.0511 11.6203 80.0838 11.7472 80.1491C11.875 80.2135 11.9792 80.3035 12.0597 80.419C12.1402 80.5346 12.1922 80.6676 12.2159 80.8182H11.8693C11.8371 80.6875 11.7746 80.5791 11.6818 80.4929C11.589 80.4067 11.4659 80.3636 11.3125 80.3636C11.0871 80.3636 10.9096 80.4616 10.7798 80.6577C10.651 80.8537 10.5862 81.1288 10.5852 81.483H10.608C10.661 81.4025 10.724 81.3338 10.7969 81.277C10.8707 81.2192 10.9522 81.1747 11.0412 81.1435C11.1302 81.1122 11.2244 81.0966 11.3239 81.0966C11.4905 81.0966 11.643 81.1383 11.7812 81.2216C11.9195 81.304 12.0303 81.4181 12.1136 81.5639C12.197 81.7088 12.2386 81.875 12.2386 82.0625C12.2386 82.2424 12.1984 82.4072 12.1179 82.5568C12.0374 82.7055 11.9242 82.8239 11.7784 82.9119C11.6335 82.9991 11.4631 83.0417 11.267 83.0398ZM11.267 82.7273C11.3864 82.7273 11.4934 82.6974 11.5881 82.6378C11.6837 82.5781 11.759 82.4981 11.8139 82.3977C11.8698 82.2973 11.8977 82.1856 11.8977 82.0625C11.8977 81.9422 11.8707 81.8329 11.8168 81.7344C11.7637 81.6349 11.6903 81.5559 11.5966 81.4972C11.5038 81.4384 11.3977 81.4091 11.2784 81.4091C11.1884 81.4091 11.1046 81.4271 11.027 81.4631C10.9493 81.4981 10.8812 81.5464 10.8224 81.608C10.7647 81.6695 10.7192 81.7401 10.6861 81.8196C10.6529 81.8982 10.6364 81.9811 10.6364 82.0682C10.6364 82.1837 10.6634 82.2917 10.7173 82.392C10.7723 82.4924 10.8471 82.5734 10.9418 82.6349C11.0374 82.6965 11.1458 82.7273 11.267 82.7273ZM13.5861 83.0398C13.3721 83.0398 13.1898 82.9815 13.0392 82.8651C12.8887 82.7476 12.7736 82.5777 12.694 82.3551C12.6145 82.1316 12.5747 81.8617 12.5747 81.5455C12.5747 81.2311 12.6145 80.9626 12.694 80.7401C12.7745 80.5166 12.8901 80.3461 13.0406 80.2287C13.1922 80.1103 13.374 80.0511 13.5861 80.0511C13.7982 80.0511 13.9796 80.1103 14.1301 80.2287C14.2816 80.3461 14.3972 80.5166 14.4767 80.7401C14.5572 80.9626 14.5975 81.2311 14.5975 81.5455C14.5975 81.8617 14.5577 82.1316 14.4781 82.3551C14.3986 82.5777 14.2835 82.7476 14.133 82.8651C13.9824 82.9815 13.8001 83.0398 13.5861 83.0398ZM13.5861 82.7273C13.7982 82.7273 13.963 82.625 14.0804 82.4205C14.1978 82.2159 14.2565 81.9242 14.2565 81.5455C14.2565 81.2936 14.2296 81.0791 14.1756 80.902C14.1226 80.7249 14.0458 80.59 13.9455 80.4972C13.846 80.4044 13.7262 80.358 13.5861 80.358C13.3759 80.358 13.2116 80.4616 13.0932 80.669C12.9748 80.8755 12.9156 81.1676 12.9156 81.5455C12.9156 81.7973 12.9422 82.0114 12.9952 82.1875C13.0482 82.3636 13.1244 82.4976 13.2239 82.5895C13.3243 82.6813 13.445 82.7273 13.5861 82.7273Z" fill="#FFFF00"/>
<path d="M11.2102 93.0398C11.0436 93.0398 10.8935 93.0066 10.7599 92.9403C10.6264 92.8741 10.5194 92.7831 10.4389 92.6676C10.3584 92.5521 10.3144 92.4205 10.3068 92.2727H10.6477C10.661 92.4044 10.7206 92.5133 10.8267 92.5994C10.9337 92.6847 11.0616 92.7273 11.2102 92.7273C11.3295 92.7273 11.4356 92.6993 11.5284 92.6435C11.6222 92.5876 11.6955 92.5109 11.7486 92.4134C11.8026 92.3149 11.8295 92.2036 11.8295 92.0795C11.8295 91.9527 11.8016 91.8395 11.7457 91.7401C11.6908 91.6397 11.6151 91.5606 11.5185 91.5028C11.4219 91.4451 11.3116 91.4157 11.1875 91.4148C11.0985 91.4138 11.0071 91.4276 10.9134 91.456C10.8196 91.4834 10.7424 91.5189 10.6818 91.5625L10.3523 91.5227L10.5284 90.0909H12.0398V90.4034H10.8239L10.7216 91.2614H10.7386C10.7983 91.214 10.8731 91.1747 10.9631 91.1435C11.053 91.1122 11.1468 91.0966 11.2443 91.0966C11.4223 91.0966 11.581 91.1392 11.7202 91.2244C11.8603 91.3087 11.9702 91.4242 12.0497 91.571C12.1302 91.7178 12.1705 91.8854 12.1705 92.0739C12.1705 92.2595 12.1288 92.4252 12.0455 92.571C11.9631 92.7159 11.8494 92.8305 11.7045 92.9148C11.5597 92.9981 11.3949 93.0398 11.2102 93.0398ZM13.5236 93.0398C13.3096 93.0398 13.1273 92.9815 12.9767 92.8651C12.8262 92.7476 12.7111 92.5777 12.6315 92.3551C12.552 92.1316 12.5122 91.8617 12.5122 91.5455C12.5122 91.2311 12.552 90.9626 12.6315 90.7401C12.712 90.5166 12.8276 90.3461 12.9781 90.2287C13.1297 90.1103 13.3115 90.0511 13.5236 90.0511C13.7357 90.0511 13.9171 90.1103 14.0676 90.2287C14.2191 90.3461 14.3347 90.5166 14.4142 90.7401C14.4947 90.9626 14.535 91.2311 14.535 91.5455C14.535 91.8617 14.4952 92.1316 14.4156 92.3551C14.3361 92.5777 14.221 92.7476 14.0705 92.8651C13.9199 92.9815 13.7376 93.0398 13.5236 93.0398ZM13.5236 92.7273C13.7357 92.7273 13.9005 92.625 14.0179 92.4205C14.1353 92.2159 14.194 91.9242 14.194 91.5455C14.194 91.2936 14.1671 91.0791 14.1131 90.902C14.0601 90.7249 13.9833 90.59 13.883 90.4972C13.7835 90.4044 13.6637 90.358 13.5236 90.358C13.3134 90.358 13.1491 90.4616 13.0307 90.669C12.9123 90.8755 12.8531 91.1676 12.8531 91.5455C12.8531 91.7973 12.8797 92.0114 12.9327 92.1875C12.9857 92.3636 13.0619 92.4976 13.1614 92.5895C13.2618 92.6813 13.3825 92.7273 13.5236 92.7273Z" fill="#FFFF00"/>
<path d="M10.233 102.403V102.114L11.5114 100.091H11.7216V100.54H11.5795L10.6136 102.068V102.091H12.3352V102.403H10.233ZM11.6023 103V102.315V102.18V100.091H11.9375V103H11.6023ZM13.6564 103.04C13.4424 103.04 13.2601 102.982 13.1095 102.865C12.959 102.748 12.8439 102.578 12.7644 102.355C12.6848 102.132 12.645 101.862 12.645 101.545C12.645 101.231 12.6848 100.963 12.7644 100.74C12.8449 100.517 12.9604 100.346 13.111 100.229C13.2625 100.11 13.4443 100.051 13.6564 100.051C13.8685 100.051 14.0499 100.11 14.2004 100.229C14.352 100.346 14.4675 100.517 14.547 100.74C14.6275 100.963 14.6678 101.231 14.6678 101.545C14.6678 101.862 14.628 102.132 14.5485 102.355C14.4689 102.578 14.3538 102.748 14.2033 102.865C14.0527 102.982 13.8704 103.04 13.6564 103.04ZM13.6564 102.727C13.8685 102.727 14.0333 102.625 14.1507 102.42C14.2681 102.216 14.3269 101.924 14.3269 101.545C14.3269 101.294 14.2999 101.079 14.2459 100.902C14.1929 100.725 14.1162 100.59 14.0158 100.497C13.9163 100.404 13.7966 100.358 13.6564 100.358C13.4462 100.358 13.2819 100.462 13.1635 100.669C13.0451 100.875 12.986 101.168 12.986 101.545C12.986 101.797 13.0125 102.011 13.0655 102.188C13.1185 102.364 13.1948 102.498 13.2942 102.589C13.3946 102.681 13.5153 102.727 13.6564 102.727Z" fill="#FFFF00"/>
<path d="M11.2841 113.04C11.0966 113.04 10.9295 113.008 10.7827 112.943C10.6368 112.879 10.5208 112.789 10.4347 112.675C10.3494 112.559 10.303 112.425 10.2955 112.273H10.6534C10.661 112.366 10.6932 112.447 10.75 112.516C10.8068 112.583 10.8812 112.635 10.973 112.672C11.0649 112.709 11.1667 112.727 11.2784 112.727C11.4034 112.727 11.5142 112.705 11.6108 112.662C11.7074 112.618 11.7831 112.558 11.8381 112.48C11.893 112.402 11.9205 112.312 11.9205 112.21C11.9205 112.103 11.8939 112.009 11.8409 111.928C11.7879 111.845 11.7102 111.781 11.608 111.734C11.5057 111.688 11.3807 111.665 11.233 111.665H11V111.352H11.233C11.3485 111.352 11.4498 111.331 11.5369 111.29C11.625 111.248 11.6937 111.189 11.7429 111.114C11.7931 111.038 11.8182 110.949 11.8182 110.847C11.8182 110.748 11.7964 110.662 11.7528 110.589C11.7093 110.517 11.6477 110.46 11.5682 110.419C11.4896 110.378 11.3968 110.358 11.2898 110.358C11.1894 110.358 11.0947 110.376 11.0057 110.413C10.9176 110.449 10.8456 110.502 10.7898 110.571C10.7339 110.639 10.7036 110.722 10.6989 110.818H10.358C10.3636 110.666 10.4096 110.532 10.4957 110.418C10.5819 110.302 10.6946 110.212 10.8338 110.148C10.974 110.083 11.1278 110.051 11.2955 110.051C11.4754 110.051 11.6297 110.088 11.7585 110.161C11.8873 110.232 11.9863 110.328 12.0554 110.446C12.1245 110.564 12.1591 110.692 12.1591 110.83C12.1591 110.993 12.116 111.133 12.0298 111.249C11.9446 111.364 11.8286 111.444 11.6818 111.489V111.511C11.8655 111.542 12.009 111.62 12.1122 111.746C12.2154 111.871 12.267 112.026 12.267 112.21C12.267 112.368 12.224 112.51 12.1378 112.636C12.0526 112.761 11.9361 112.86 11.7884 112.932C11.6406 113.004 11.4725 113.04 11.2841 113.04ZM13.6369 113.04C13.4229 113.04 13.2406 112.982 13.09 112.865C12.9394 112.748 12.8244 112.578 12.7448 112.355C12.6653 112.132 12.6255 111.862 12.6255 111.545C12.6255 111.231 12.6653 110.963 12.7448 110.74C12.8253 110.517 12.9409 110.346 13.0914 110.229C13.2429 110.11 13.4248 110.051 13.6369 110.051C13.849 110.051 14.0303 110.11 14.1809 110.229C14.3324 110.346 14.448 110.517 14.5275 110.74C14.608 110.963 14.6482 111.231 14.6482 111.545C14.6482 111.862 14.6085 112.132 14.5289 112.355C14.4494 112.578 14.3343 112.748 14.1837 112.865C14.0332 112.982 13.8509 113.04 13.6369 113.04ZM13.6369 112.727C13.849 112.727 14.0138 112.625 14.1312 112.42C14.2486 112.216 14.3073 111.924 14.3073 111.545C14.3073 111.294 14.2803 111.079 14.2264 110.902C14.1733 110.725 14.0966 110.59 13.9962 110.497C13.8968 110.404 13.777 110.358 13.6369 110.358C13.4266 110.358 13.2623 110.462 13.144 110.669C13.0256 110.875 12.9664 111.168 12.9664 111.545C12.9664 111.797 12.9929 112.011 13.046 112.188C13.099 112.364 13.1752 112.498 13.2747 112.589C13.375 112.681 13.4958 112.727 13.6369 112.727Z" fill="#FFFF00"/>
<path d="M10.3011 123V122.744L11.2614 121.693C11.3741 121.57 11.4669 121.463 11.5398 121.372C11.6127 121.28 11.6667 121.194 11.7017 121.114C11.7377 121.032 11.7557 120.947 11.7557 120.858C11.7557 120.756 11.7311 120.667 11.6818 120.592C11.6335 120.518 11.5672 120.46 11.483 120.419C11.3987 120.378 11.304 120.358 11.1989 120.358C11.0871 120.358 10.9896 120.381 10.9062 120.428C10.8239 120.473 10.7599 120.537 10.7145 120.619C10.67 120.702 10.6477 120.798 10.6477 120.909H10.3125C10.3125 120.739 10.3518 120.589 10.4304 120.46C10.509 120.331 10.616 120.231 10.7514 120.159C10.8878 120.087 11.0407 120.051 11.2102 120.051C11.3807 120.051 11.5317 120.087 11.6634 120.159C11.795 120.231 11.8982 120.328 11.973 120.45C12.0478 120.572 12.0852 120.708 12.0852 120.858C12.0852 120.965 12.0658 121.07 12.027 121.172C11.9891 121.273 11.9228 121.386 11.8281 121.511C11.7344 121.635 11.6042 121.787 11.4375 121.966L10.7841 122.665V122.688H12.1364V123H10.3011ZM13.5119 123.04C13.2979 123.04 13.1156 122.982 12.965 122.865C12.8144 122.748 12.6994 122.578 12.6198 122.355C12.5403 122.132 12.5005 121.862 12.5005 121.545C12.5005 121.231 12.5403 120.963 12.6198 120.74C12.7003 120.517 12.8159 120.346 12.9664 120.229C13.1179 120.11 13.2998 120.051 13.5119 120.051C13.724 120.051 13.9053 120.11 14.0559 120.229C14.2074 120.346 14.323 120.517 14.4025 120.74C14.483 120.963 14.5232 121.231 14.5232 121.545C14.5232 121.862 14.4835 122.132 14.4039 122.355C14.3244 122.578 14.2093 122.748 14.0587 122.865C13.9082 122.982 13.7259 123.04 13.5119 123.04ZM13.5119 122.727C13.724 122.727 13.8888 122.625 14.0062 122.42C14.1236 122.216 14.1823 121.924 14.1823 121.545C14.1823 121.294 14.1553 121.079 14.1014 120.902C14.0483 120.725 13.9716 120.59 13.8712 120.497C13.7718 120.404 13.652 120.358 13.5119 120.358C13.3016 120.358 13.1373 120.462 13.019 120.669C12.9006 120.875 12.8414 121.168 12.8414 121.545C12.8414 121.797 12.8679 122.011 12.921 122.188C12.974 122.364 13.0502 122.498 13.1497 122.589C13.25 122.681 13.3708 122.727 13.5119 122.727Z" fill="#FFFF00"/>
<path d="M11.3239 130.091V133H10.9716V130.46H10.9545L10.2443 130.932V130.574L10.9716 130.091H11.3239ZM12.9494 133.04C12.7354 133.04 12.5531 132.982 12.4025 132.865C12.2519 132.748 12.1369 132.578 12.0573 132.355C11.9778 132.132 11.938 131.862 11.938 131.545C11.938 131.231 11.9778 130.963 12.0573 130.74C12.1378 130.517 12.2534 130.346 12.4039 130.229C12.5554 130.11 12.7373 130.051 12.9494 130.051C13.1615 130.051 13.3428 130.11 13.4934 130.229C13.6449 130.346 13.7605 130.517 13.84 130.74C13.9205 130.963 13.9607 131.231 13.9607 131.545C13.9607 131.862 13.921 132.132 13.8414 132.355C13.7619 132.578 13.6468 132.748 13.4963 132.865C13.3457 132.982 13.1634 133.04 12.9494 133.04ZM12.9494 132.727C13.1615 132.727 13.3263 132.625 13.4437 132.42C13.5611 132.216 13.6198 131.924 13.6198 131.545C13.6198 131.294 13.5928 131.079 13.5389 130.902C13.4858 130.725 13.4091 130.59 13.3088 130.497C13.2093 130.404 13.0895 130.358 12.9494 130.358C12.7391 130.358 12.5748 130.462 12.4565 130.669C12.3381 130.875 12.2789 131.168 12.2789 131.545C12.2789 131.797 12.3054 132.011 12.3585 132.188C12.4115 132.364 12.4877 132.498 12.5872 132.589C12.6875 132.681 12.8083 132.727 12.9494 132.727Z" fill="#FFFF00"/>
<path d="M11.5 143.04C11.286 143.04 11.1037 142.982 10.9531 142.865C10.8026 142.748 10.6875 142.578 10.608 142.355C10.5284 142.132 10.4886 141.862 10.4886 141.545C10.4886 141.231 10.5284 140.963 10.608 140.74C10.6884 140.517 10.804 140.346 10.9545 140.229C11.1061 140.11 11.2879 140.051 11.5 140.051C11.7121 140.051 11.8935 140.11 12.044 140.229C12.1955 140.346 12.3111 140.517 12.3906 140.74C12.4711 140.963 12.5114 141.231 12.5114 141.545C12.5114 141.862 12.4716 142.132 12.392 142.355C12.3125 142.578 12.1974 142.748 12.0469 142.865C11.8963 142.982 11.714 143.04 11.5 143.04ZM11.5 142.727C11.7121 142.727 11.8769 142.625 11.9943 142.42C12.1117 142.216 12.1705 141.924 12.1705 141.545C12.1705 141.294 12.1435 141.079 12.0895 140.902C12.0365 140.725 11.9598 140.59 11.8594 140.497C11.7599 140.404 11.6402 140.358 11.5 140.358C11.2898 140.358 11.1255 140.462 11.0071 140.669C10.8887 140.875 10.8295 141.168 10.8295 141.545C10.8295 141.797 10.8561 142.011 10.9091 142.188C10.9621 142.364 11.0384 142.498 11.1378 142.589C11.2382 142.681 11.3589 142.727 11.5 142.727Z" fill="#FFFF00"/>
<g clip-path="url(#clip1_1033_1862)">
<path d="M51.1934 133.308C52.7659 134.97 54.7767 138.178 54.9684 139.452C55.1618 140.728 54.0388 142.156 52.7837 142.736C51.5286 143.316 50.3476 142.814 49.6435 142.427C48.9394 142.04 47.9743 141.383 47.7036 138.872C47.433 136.361 47.3943 136.013 46.5436 135.317C45.6929 134.621 45.498 133.579 46.3487 132.148C47.201 130.719 50.317 130.797 51.1934 133.308Z" fill="#D9DDEF" stroke="#1F1F1F" stroke-opacity="0.2" stroke-width="1.9621" stroke-miterlimit="10" stroke-linejoin="round"/>
<path d="M52.9805 105.333C52.9805 105.333 55.3183 112.056 54.0036 117.272C52.6889 122.488 50.3704 127.435 50.2544 129.212C50.1384 130.988 51.1937 133.308 51.1937 133.308C51.1937 133.308 50.0981 130.217 46.3505 132.148L46.1201 130.755L50.2624 107.765L52.9805 105.333Z" fill="#D9DDEF" stroke="#1F1F1F" stroke-opacity="0.2" stroke-width="1.9621" stroke-miterlimit="10" stroke-linejoin="round"/>
<path d="M46.6866 106.761C46.6866 106.761 45.1898 111.708 45.5765 114.49C45.9632 117.272 46.9444 124.55 46.6866 126.03C46.5754 126.666 45.2478 128.363 45.6829 129.559C45.9133 130.194 46.3483 132.148 46.3483 132.148C46.3483 132.148 47.1297 131.592 48.1512 131.581C49.171 131.57 49.8848 114.49 48.8923 109.93C47.3859 103.005 46.6866 106.761 46.6866 106.761Z" fill="#D9DDEF" stroke="#1F1F1F" stroke-opacity="0.2" stroke-width="1.9621" stroke-miterlimit="10" stroke-linejoin="round"/>
<path d="M54.173 98.2403C53.6332 99.8511 53.5011 105.642 52.0333 107.767C52.0333 107.767 50.6026 103.786 52.0333 100.888C53.4641 97.9906 54.173 98.2403 54.173 98.2403Z" fill="#D9DDEF" stroke="#1F1F1F" stroke-opacity="0.2" stroke-width="1.9621" stroke-miterlimit="10" stroke-linejoin="round"/>
<path d="M44.9196 100.526C44.9196 100.526 44.831 103.311 45.6817 105.217C46.5324 107.122 48.4384 108.282 48.4384 108.282C48.4384 108.282 49.5485 103.877 47.7053 101.713C45.8622 99.5499 44.9196 100.526 44.9196 100.526Z" fill="#D9DDEF" stroke="#1F1F1F" stroke-opacity="0.2" stroke-width="1.9621" stroke-miterlimit="10" stroke-linejoin="round"/>
<path d="M47.9003 106.592C47.9003 106.592 46.9127 107.638 47.1205 109.442C47.33 111.245 48.54 116.29 48.5223 119.669C48.4771 127.912 47.7038 131.628 47.7038 131.628C47.7038 131.628 48.5222 131.517 49.1716 131.572C49.6613 130.566 50.2543 120.558 50.7183 116.849C51.1823 113.139 50.7489 110.782 51.3966 109.88C52.0443 108.978 52.5131 106.509 51.5319 105.669C50.5507 104.83 47.9003 106.592 47.9003 106.592Z" fill="#F4F6FA" stroke="#1F1F1F" stroke-opacity="0.2" stroke-width="1.9621" stroke-miterlimit="10" stroke-linejoin="round"/>
<path d="M52.0295 102.696C52.2953 104.295 51.5397 106.699 51.0241 108.078C50.6261 109.142 48.7685 109.107 48.4366 108.284C47.9677 107.116 47.5843 105.887 47.7389 103.633C47.8952 101.38 48.7105 98.6511 50.3941 98.6495C52.0794 98.6463 51.7636 101.096 52.0295 102.696Z" fill="#F4F6FA" stroke="#1F1F1F" stroke-opacity="0.2" stroke-width="1.9621" stroke-miterlimit="10" stroke-linejoin="round"/>
<path d="M32.2059 133.308C30.6334 134.97 28.6227 138.178 28.431 139.452C28.2376 140.728 29.3606 142.156 30.6157 142.736C31.8708 143.316 33.0518 142.814 33.7559 142.427C34.46 142.04 35.4251 141.383 35.6957 138.872C35.9664 136.361 36.0051 136.013 36.8558 135.317C37.7065 134.621 37.9014 133.579 37.0507 132.148C36.1984 130.72 33.0824 130.797 32.2059 133.308Z" fill="#D9DDEF" stroke="#1F1F1F" stroke-opacity="0.2" stroke-width="1.9621" stroke-miterlimit="10" stroke-linejoin="round"/>
<path d="M30.4194 105.333C30.4194 105.333 28.0816 112.057 29.3963 117.273C30.711 122.488 33.0295 127.435 33.1455 129.212C33.2615 130.989 32.2061 133.308 32.2061 133.308C32.2061 133.308 33.3017 130.217 37.0493 132.149L37.2797 130.755L33.1374 107.765L30.4194 105.333Z" fill="#D9DDEF" stroke="#1F1F1F" stroke-opacity="0.2" stroke-width="1.9621" stroke-miterlimit="10" stroke-linejoin="round"/>
<path d="M36.7126 106.762C36.7126 106.762 38.2094 111.709 37.8227 114.49C37.436 117.272 36.4548 124.55 36.7126 126.03C36.8238 126.667 38.1514 128.363 37.7164 129.56C37.486 130.194 37.0509 132.148 37.0509 132.148C37.0509 132.148 36.2695 131.593 35.248 131.581C34.2282 131.57 33.5144 114.49 34.5069 109.93C36.0134 103.005 36.7126 106.762 36.7126 106.762Z" fill="#D9DDEF" stroke="#1F1F1F" stroke-opacity="0.2" stroke-width="1.9621" stroke-miterlimit="10" stroke-linejoin="round"/>
<path d="M29.2266 98.2403C29.7663 99.8512 29.8984 105.642 31.3662 107.767C31.3662 107.767 32.7969 103.786 31.3662 100.889C29.9371 97.9907 29.2266 98.2403 29.2266 98.2403Z" fill="#D9DDEF" stroke="#1F1F1F" stroke-opacity="0.2" stroke-width="1.9621" stroke-miterlimit="10" stroke-linejoin="round"/>
<path d="M38.4801 100.526C38.4801 100.526 38.5687 103.311 37.718 105.217C36.8673 107.122 34.9613 108.282 34.9613 108.282C34.9613 108.282 33.8512 103.877 35.6944 101.713C37.5376 99.55 38.4801 100.526 38.4801 100.526Z" fill="#D9DDEF" stroke="#1F1F1F" stroke-opacity="0.2" stroke-width="1.9621" stroke-miterlimit="10" stroke-linejoin="round"/>
<path d="M35.4995 106.593C35.4995 106.593 36.4872 107.638 36.2793 109.442C36.0699 111.245 34.8599 116.29 34.8776 119.669C34.9227 127.912 35.6961 131.628 35.6961 131.628C35.6961 131.628 34.8776 131.517 34.2283 131.572C33.7385 130.567 33.1456 120.558 32.6816 116.849C32.2176 113.139 32.651 110.782 32.0033 109.88C31.3556 108.978 30.8867 106.509 31.8679 105.67C32.8491 104.83 35.4995 106.593 35.4995 106.593Z" fill="#F4F6FA" stroke="#1F1F1F" stroke-opacity="0.2" stroke-width="1.9621" stroke-miterlimit="10" stroke-linejoin="round"/>
<path d="M31.3695 102.696C31.1037 104.295 31.8593 106.699 32.3749 108.078C32.7729 109.142 34.6305 109.107 34.9624 108.284C35.4313 107.116 35.8147 105.887 35.6601 103.633C35.5038 101.38 34.6885 98.6511 33.0049 98.6495C31.3196 98.6463 31.6354 101.096 31.3695 102.696Z" fill="#F4F6FA" stroke="#1F1F1F" stroke-opacity="0.2" stroke-width="1.9621" stroke-miterlimit="10" stroke-linejoin="round"/>
<path d="M52.0828 67.2607C52.0828 67.2607 53.4636 68.1467 53.3089 70.0539C53.1542 71.9595 53.0769 74.3436 53.1156 75.2698C53.1542 76.1976 50.4023 70.5501 50.4023 70.5501C50.4023 70.5501 50.6247 67.8294 52.0828 67.2607Z" fill="#D9DDEF" stroke="#1F1F1F" stroke-opacity="0.2" stroke-width="1.9621" stroke-miterlimit="10" stroke-linejoin="round"/>
<path d="M31.2304 67.2607C31.2304 67.2607 29.8496 68.1467 30.0043 70.0539C30.1589 71.9595 30.2363 74.3436 30.1976 75.2698C30.1589 76.1976 32.9108 70.5501 32.9108 70.5501C32.9108 70.5501 32.6885 67.8294 31.2304 67.2607Z" fill="#D9DDEF" stroke="#1F1F1F" stroke-opacity="0.2" stroke-width="1.9621" stroke-miterlimit="10" stroke-linejoin="round"/>
<path d="M42.1084 80.1215C42.1084 80.1215 42.2566 85.6644 43.0686 88.7942C43.8807 91.9241 44.5187 95.3294 44.5235 96.7163C44.5268 98.1032 54.1696 77.1479 48.8318 72.6344C43.4924 68.1208 42.1084 80.1215 42.1084 80.1215Z" fill="#D9DDEF" stroke="#1F1F1F" stroke-opacity="0.2" stroke-width="1.9621" stroke-miterlimit="10" stroke-linejoin="round"/>
<path d="M50.8164 69.9879C50.8164 69.9879 55.9544 76.0043 55.2633 85.5871L49.6064 71.3168L50.8164 69.9879Z" fill="#D9DDEF" stroke="#1F1F1F" stroke-opacity="0.2" stroke-width="1.9621" stroke-miterlimit="10" stroke-linejoin="round"/>
<path d="M54.6497 83.295C54.6497 83.295 56.9972 89.8382 55.328 94.6304C53.6588 99.4226 52.9386 101.973 52.4682 102.591C51.9961 103.21 50.6057 101.934 51.031 99.4226C51.4547 96.9097 54.6497 83.295 54.6497 83.295Z" fill="#D9DDEF" stroke="#1F1F1F" stroke-opacity="0.2" stroke-width="1.9621" stroke-miterlimit="10" stroke-linejoin="round"/>
<path d="M50.4027 70.55C51.4 77.1125 55.0316 78.1676 54.6804 85.0072C54.3292 91.8468 51.2615 98.2224 51.0295 99.4209C50.7975 100.619 49.8292 100.555 49.6068 99.6915C49.3684 98.7637 46.3925 87.4814 48.015 81.5697C49.639 75.6579 48.8318 72.636 48.8318 72.636C48.8318 72.636 49.3813 70.2938 50.4027 70.55Z" fill="#F4F6FA" stroke="#1F1F1F" stroke-opacity="0.2" stroke-width="1.9621" stroke-miterlimit="10" stroke-linejoin="round"/>
<path d="M49.3893 98.8365C49.8695 100.852 49.3587 103.286 48.1842 103.595C47.0096 103.904 44.3045 102.706 44.5365 97.1032C44.7685 91.5008 47.0966 84.4727 47.9038 82.0162C48.711 79.5597 49.3893 98.8365 49.3893 98.8365Z" fill="#F4F6FA" stroke="#1F1F1F" stroke-opacity="0.2" stroke-width="1.9621" stroke-miterlimit="10" stroke-linejoin="round"/>
<path d="M41.2076 80.1216C41.2076 80.1216 41.0594 85.6645 40.2474 88.7943C39.4354 91.9241 38.7973 95.3294 38.7925 96.7164C38.7893 98.1033 29.1464 77.148 34.4842 72.6344C39.8237 68.1209 41.2076 80.1216 41.2076 80.1216Z" fill="#D9DDEF" stroke="#1F1F1F" stroke-opacity="0.2" stroke-width="1.9621" stroke-miterlimit="10" stroke-linejoin="round"/>
<path d="M32.5 69.9879C32.5 69.9879 27.362 76.0043 28.0532 85.5871L33.71 71.3168L32.5 69.9879Z" fill="#D9DDEF" stroke="#1F1F1F" stroke-opacity="0.2" stroke-width="1.9621" stroke-miterlimit="10" stroke-linejoin="round"/>
<path d="M28.6662 83.295C28.6662 83.295 26.3188 89.8382 27.9879 94.6304C29.6571 99.4226 30.3773 101.973 30.8478 102.591C31.3198 103.21 32.7103 101.934 32.2849 99.4226C31.8612 96.9097 28.6662 83.295 28.6662 83.295Z" fill="#D9DDEF" stroke="#1F1F1F" stroke-opacity="0.2" stroke-width="1.9621" stroke-miterlimit="10" stroke-linejoin="round"/>
<path d="M32.9128 70.55C31.9155 77.1126 28.2839 78.1677 28.6352 85.0072C28.9864 91.8468 32.0541 98.2225 32.2861 99.421C32.5181 100.619 33.4864 100.555 33.7087 99.6916C33.9472 98.7637 36.923 87.4815 35.3006 81.5697C33.6765 75.658 34.4837 72.6361 34.4837 72.6361C34.4837 72.6361 33.9343 70.2939 32.9128 70.55Z" fill="#F4F6FA" stroke="#1F1F1F" stroke-opacity="0.2" stroke-width="1.9621" stroke-miterlimit="10" stroke-linejoin="round"/>
<path d="M33.9246 98.8365C33.4444 100.852 33.9552 103.286 35.1297 103.595C36.3043 103.904 39.0094 102.706 38.7774 97.1032C38.5454 91.5008 36.2173 84.4727 35.4101 82.0162C34.6045 79.5597 33.9246 98.8365 33.9246 98.8365Z" fill="#F4F6FA" stroke="#1F1F1F" stroke-opacity="0.2" stroke-width="1.9621" stroke-miterlimit="10" stroke-linejoin="round"/>
<path d="M37.2354 29.7656C37.2354 30.8352 31.237 33.6397 28.0469 36.8549C28.0469 36.8549 27.7939 39.553 27.7939 46.7551C27.7939 53.9571 30.1173 55.4858 30.8503 56.9919C31.585 58.4996 31.9395 59.8898 31.6463 60.8563C31.353 61.8228 29.8466 66.367 32.4937 69.9881C35.1409 73.6092 39.0882 78.5287 39.9937 79.3792C40.8992 80.2298 41.6548 80.204 41.6548 80.204C41.6548 80.204 42.4105 80.2298 43.316 79.3792C44.2214 78.5287 48.1688 73.6092 50.8159 69.9881C53.4631 66.367 51.9567 61.8228 51.6634 60.8563C51.3702 59.8898 51.7246 58.4996 52.4593 56.9919C53.194 55.4842 55.5157 53.9571 55.5157 46.7551C55.5157 39.553 55.2628 36.8549 55.2628 36.8549C52.0727 33.6397 46.0743 30.8352 46.0743 29.7656H37.2354Z" fill="#D9DDEF" stroke="#1F1F1F" stroke-opacity="0.2" stroke-width="1.9621" stroke-miterlimit="10" stroke-linejoin="round"/>
<path d="M59.7248 56.9337C57.8011 54.9846 55.0605 52.578 54.329 48.2578C53.517 43.4688 57.1872 42.5619 58.4181 47.3815C59.1238 50.1473 63.4385 53.9521 63.5884 55.782C63.6996 57.1415 61.6485 58.8828 59.7248 56.9337Z" fill="#D9DDEF" stroke="#1F1F1F" stroke-opacity="0.2" stroke-width="1.9621" stroke-miterlimit="10" stroke-linejoin="round"/>
<path d="M41.6511 43.6733L33.7016 49.9201C31.3235 51.2539 29.8429 54.8155 31.0045 57.3235L31.3251 58.0967C31.9583 59.4659 34.251 61.734 36.0797 62.2736C36.0797 62.2736 38.0518 59.9685 41.6544 59.9685C45.2569 59.9685 47.229 62.2736 47.229 62.2736C49.0577 61.7324 51.352 59.4659 51.9836 58.0967L52.3042 57.3235C53.4658 54.8171 51.9836 51.2539 49.6071 49.9201L41.6576 43.6733H41.6511Z" stroke="#1F1F1F" stroke-opacity="0.2" stroke-width="1.9621" stroke-miterlimit="10" stroke-linejoin="round"/>
<path d="M46.3773 26.1718C46.3773 26.2974 46.0244 30.5242 45.9261 31.175C45.4234 34.5046 43.308 35.761 41.6533 37.5152C43.1018 34.8992 43.163 29.7655 43.163 29.7655C43.9541 29.4111 45.9294 26.8725 46.3773 26.1718Z" fill="#D9DDEF" stroke="#1F1F1F" stroke-opacity="0.2" stroke-width="1.9621" stroke-miterlimit="10" stroke-linejoin="round"/>
<path d="M36.9316 26.1719C36.9316 26.2975 37.2845 30.5243 37.3828 31.1751C37.8855 34.5047 40.0009 35.7612 41.6556 37.5154C40.2071 34.8994 40.1459 29.7656 40.1459 29.7656C39.3565 29.4113 37.3812 26.8726 36.9316 26.1719Z" fill="#D9DDEF" stroke="#1F1F1F" stroke-opacity="0.2" stroke-width="1.9621" stroke-miterlimit="10" stroke-linejoin="round"/>
<path d="M43.1648 29.7656C43.1648 29.7656 43.1036 34.8993 41.6552 37.5153C40.2083 34.8993 40.1455 29.7656 40.1455 29.7656C40.5854 29.9637 41.0864 30.0781 41.6552 30.0781C42.2239 30.0781 42.725 29.9637 43.1648 29.7656Z" fill="#D9DDEF" stroke="#1F1F1F" stroke-opacity="0.2" stroke-width="1.9621" stroke-miterlimit="10" stroke-linejoin="round"/>
<path d="M65.5744 60.8447C65.4181 57.5924 63.5911 57.2767 59.7243 56.9336H59.7227C59.7227 56.9336 60.0658 62.7406 62.6904 63.306C65.315 63.8714 66.2576 63.9343 66.9713 64.7526C66.9729 64.7542 66.9729 64.7542 66.9745 64.7558C65.5648 63.0241 65.5744 60.8447 65.5744 60.8447Z" fill="#D9DDEF" stroke="#1F1F1F" stroke-opacity="0.2" stroke-width="1.9621" stroke-miterlimit="10" stroke-linejoin="round"/>
<path d="M67.6865 65.5712C67.4239 65.2877 67.1887 65.0155 66.976 64.7561C66.9744 64.7545 66.9744 64.7545 66.9728 64.7529C66.259 63.9346 65.3165 63.8718 62.6919 63.3064C62.2118 63.2033 61.7832 62.9423 61.4014 62.5895C61.4014 62.5895 62.2247 65.7274 64.44 67.0145C66.6554 68.3032 70.9636 73.8782 71.4422 74.9478C71.4422 74.9478 71.7902 74.6515 72.512 74.5774C72.5104 74.579 69.6957 67.7361 67.6865 65.5712Z" fill="#D9DDEF" stroke="#1F1F1F" stroke-opacity="0.2" stroke-width="1.9621" stroke-miterlimit="10" stroke-linejoin="round"/>
<path d="M64.5755 54.7041C64.5755 54.7041 68.5631 56.9673 70.0583 60.7802C71.5535 64.593 74.004 72.3073 74.004 72.3073C74.004 72.3073 73.337 74.1243 71.7387 74.1243C71.7387 74.1243 69.6974 67.7357 67.6867 65.5724C65.6775 63.409 65.5744 60.8462 65.5744 60.8462C65.5744 60.8462 62.663 57.1751 63.8859 54.9087L64.5755 54.7041Z" fill="#F4F6FA" stroke="#1F1F1F" stroke-opacity="0.2" stroke-width="1.9621" stroke-miterlimit="10" stroke-linejoin="round"/>
<path d="M46.8732 49.2147C46.8732 49.2147 48.5086 49.7399 48.5069 49.7383C46.5703 49.2969 45.0993 48.3143 44.4967 47.9519C44.3034 47.8343 44.0537 47.7022 43.7846 47.5379C43.7798 47.5346 43.7749 47.533 43.7717 47.5298C42.6777 46.8823 41.6562 48.4931 41.6562 49.909C41.6562 51.3265 42.8227 51.7115 43.2594 51.6213C43.6976 51.5311 45.7067 51.7373 46.8925 52.2785C48.0784 52.8198 48.262 52.4654 48.1831 51.3894C48.1041 50.3149 47.4146 49.3211 46.8732 49.2147Z" fill="#F4F6FA" stroke="#1F1F1F" stroke-opacity="0.2" stroke-width="1.9621" stroke-miterlimit="10" stroke-linejoin="round"/>
<path d="M47.3604 52.4751C47.3572 52.4735 47.3556 52.4719 47.354 52.4719C47.2219 52.4236 47.0704 52.3607 46.8932 52.2802C45.9361 51.8437 44.4426 51.6246 43.6708 51.6036C43.0022 51.6262 41.6553 52.0998 41.6553 53.5415C41.6553 54.9848 42.0742 56.71 42.3835 57.1997C42.6929 57.6894 43.3889 57.6894 44.4184 57.3801C45.4496 57.0708 46.9689 56.8131 47.7938 56.9935C48.6187 57.1739 48.9023 56.0656 48.5156 54.4693C48.1306 52.8714 47.8293 52.67 47.3604 52.4751Z" fill="#F4F6FA" stroke="#1F1F1F" stroke-opacity="0.2" stroke-width="1.9621" stroke-miterlimit="10" stroke-linejoin="round"/>
<path d="M47.9356 57.0112C47.8905 57.0096 47.8438 57.0047 47.7954 56.9935C47.6569 56.9822 47.4668 56.958 47.2412 56.9355C46.3953 56.9161 45.2498 57.1304 44.42 57.3801C44.2283 57.4381 44.0511 57.4799 43.8835 57.5154C43.8819 57.517 43.8787 57.5186 43.8771 57.5202C43.0038 57.7924 41.6553 58.2564 41.6553 59.3888C41.6553 60.5228 41.6569 60.2973 41.6569 61.122C41.6569 61.9468 42.5914 64.3083 43.6467 63.7171C44.7036 63.1243 46.5323 62.4284 47.2283 62.2738C47.9243 62.1191 48.3158 61.4732 48.5172 59.4403C48.7041 57.546 48.5559 57.1159 47.9356 57.0112Z" fill="#F4F6FA" stroke="#1F1F1F" stroke-opacity="0.2" stroke-width="1.9621" stroke-miterlimit="10" stroke-linejoin="round"/>
<path d="M47.2277 62.2738C46.9892 62.3463 46.6815 62.4365 46.3448 62.5428C45.5021 62.8376 44.3856 63.3015 43.646 63.7171C42.805 64.3276 41.6562 65.4681 41.6562 67.2722C41.6562 69.0747 41.6562 72.3157 41.6562 74.5194C41.6562 76.7214 44.1181 74.7787 45.5053 71.7391C46.8926 68.6994 48.0526 65.3199 48.1557 64.0038C48.2588 62.6862 48.1025 62.008 47.2277 62.2738Z" fill="#F4F6FA" stroke="#1F1F1F" stroke-opacity="0.2" stroke-width="1.9621" stroke-miterlimit="10" stroke-linejoin="round"/>
<path d="M36.4384 49.2147C36.4384 49.2147 34.8031 49.7399 34.8047 49.7383C36.7413 49.2969 38.2123 48.3143 38.8149 47.9519C39.0082 47.8343 39.258 47.7022 39.527 47.5379C39.5319 47.5346 39.5367 47.533 39.5399 47.5298C40.6339 46.8823 41.6554 48.4931 41.6554 49.909C41.6554 51.3265 40.4889 51.7115 40.0523 51.6213C39.614 51.5311 37.6049 51.7373 36.4191 52.2785C35.2333 52.8198 35.0496 52.4654 35.1285 51.3894C35.2091 50.3149 35.8971 49.3211 36.4384 49.2147Z" fill="#F4F6FA" stroke="#1F1F1F" stroke-opacity="0.2" stroke-width="1.9621" stroke-miterlimit="10" stroke-linejoin="round"/>
<path d="M35.9517 52.4751C35.9549 52.4735 35.9566 52.4719 35.9582 52.4719C36.0903 52.4236 36.2417 52.3607 36.419 52.2802C37.376 51.8437 38.8696 51.6246 39.6413 51.6036C40.3099 51.6262 41.6569 52.0998 41.6569 53.5415C41.6569 54.9848 41.238 56.71 40.9286 57.1997C40.6193 57.6894 39.9233 57.6894 38.8937 57.3801C37.8626 57.0708 36.3432 56.8131 35.5183 56.9935C34.6934 57.1739 34.4098 56.0656 34.7965 54.4693C35.1832 52.8714 35.4845 52.67 35.9517 52.4751Z" fill="#F4F6FA" stroke="#1F1F1F" stroke-opacity="0.2" stroke-width="1.9621" stroke-miterlimit="10" stroke-linejoin="round"/>
<path d="M35.378 57.0112C35.4231 57.0096 35.4699 57.0047 35.5182 56.9935C35.6567 56.9822 35.8469 56.958 36.0724 56.9355C36.9183 56.9161 38.0638 57.1304 38.8936 57.3801C39.0853 57.4381 39.2625 57.4799 39.4301 57.5154C39.4317 57.517 39.4349 57.5186 39.4365 57.5202C40.3098 57.7924 41.6583 58.2564 41.6583 59.3888C41.6583 60.5228 41.6567 60.2973 41.6567 61.122C41.6567 61.9468 40.7223 64.3083 39.6669 63.7171C38.61 63.1243 36.7813 62.4284 36.0853 62.2738C35.3893 62.1191 34.9978 61.4732 34.7964 59.4403C34.6095 57.546 34.7561 57.1159 35.378 57.0112Z" fill="#F4F6FA" stroke="#1F1F1F" stroke-opacity="0.2" stroke-width="1.9621" stroke-miterlimit="10" stroke-linejoin="round"/>
<path d="M36.0858 62.2738C36.3242 62.3463 36.6319 62.4365 36.9687 62.5428C37.8113 62.8376 38.9279 63.3015 39.6674 63.7171C40.5084 64.3276 41.6572 65.4681 41.6572 67.2722C41.6572 69.0747 41.6572 72.3157 41.6572 74.5194C41.6572 76.7214 39.1953 74.7787 37.8081 71.7391C36.4209 68.6994 35.2608 65.3199 35.1577 64.0038C35.0546 62.6862 35.2109 62.008 36.0858 62.2738Z" fill="#F4F6FA" stroke="#1F1F1F" stroke-opacity="0.2" stroke-width="1.9621" stroke-miterlimit="10" stroke-linejoin="round"/>
<path d="M45.1703 28.8619C44.6983 29.598 44.0715 30.2488 43.2418 30.6209C42.7793 30.8287 42.2541 30.9495 41.6548 30.9495C41.057 30.9495 40.5302 30.8287 40.0677 30.6209C39.2348 30.2488 38.608 29.5964 38.1376 28.8586C38.1376 28.857 38.1376 28.857 38.1376 28.857C37.0065 27.0851 36.7777 25.4936 36.7777 25.4936C36.7777 25.4936 35.5243 25.7948 35.0296 23.3593C34.5286 20.885 36.1317 21.03 36.1317 21.03C36.1317 21.03 35.6161 19.4627 36.1542 17.0432C36.6924 14.6237 39.043 13 41.6548 13C44.2648 13 46.6171 14.6221 47.1553 17.0432C47.6918 19.4627 47.1762 21.03 47.1762 21.03C47.1762 21.03 48.781 20.8834 48.2799 23.3593C47.7869 25.7948 46.5318 25.4936 46.5318 25.4936C46.5318 25.4936 46.303 27.0899 45.1703 28.8619Z" fill="#D9DDEF" stroke="#1F1F1F" stroke-opacity="0.2" stroke-width="1.9621" stroke-miterlimit="10" stroke-linejoin="round"/>
<path d="M71.0897 74.3453C70.9818 72.6636 74.0027 72.3076 74.0027 72.3076C75.4898 72.6862 77.2057 72.604 78.4463 73.395C79.6869 74.1843 80.3378 74.2455 81.456 74.3389C82.5758 74.4307 82.4485 75.6775 81.0597 75.837C79.6692 75.9965 78.9071 75.8692 77.9678 75.7355C79.6321 77.8924 80.6391 79.5757 81.4689 81.6682C81.8153 83.0632 79.3518 83.432 78.2965 83.2081C76.3019 82.8602 74.2025 79.8367 73.1585 79.0264C72.1015 78.1356 71.1977 76.0271 71.0897 74.3453Z" fill="#D9DDEF" stroke="#1F1F1F" stroke-opacity="0.2" stroke-width="1.9621" stroke-miterlimit="10" stroke-linejoin="round"/>
<path d="M77.9681 75.7339C76.8193 75.7742 75.2629 76.1994 73.5615 74.9478L77.9681 75.7339Z" fill="#D9DDEF"/>
<path d="M77.9681 75.7339C76.8193 75.7742 75.2629 76.1994 73.5615 74.9478" stroke="#1F1F1F" stroke-opacity="0.2" stroke-width="1.9621" stroke-miterlimit="10" stroke-linejoin="round"/>
<path d="M23.484 56.9338C25.4077 54.9847 28.1483 52.5781 28.8798 48.2579C29.6918 43.4689 26.0216 42.562 24.7907 47.3816C24.085 50.1474 19.7703 53.9521 19.6204 55.7821C19.5109 57.1416 21.5603 58.8829 23.484 56.9338Z" fill="#D9DDEF" stroke="#1F1F1F" stroke-opacity="0.2" stroke-width="1.9621" stroke-miterlimit="10" stroke-linejoin="round"/>
<path d="M17.6345 60.845C17.7908 57.5927 19.6178 57.277 23.4846 56.9339H23.4862C23.4862 56.9339 23.1431 62.7409 20.5185 63.3063C17.8939 63.8718 16.9513 63.9346 16.2376 64.7529C16.236 64.7545 16.236 64.7545 16.2344 64.7561C17.6441 63.0245 17.6345 60.845 17.6345 60.845Z" fill="#D9DDEF" stroke="#1F1F1F" stroke-opacity="0.2" stroke-width="1.9621" stroke-miterlimit="10" stroke-linejoin="round"/>
<path d="M15.5237 65.5712C15.7863 65.2877 16.0215 65.0155 16.2342 64.7561C16.2358 64.7545 16.2358 64.7545 16.2374 64.7529C16.9512 63.9346 17.8937 63.8718 20.5183 63.3064C20.9984 63.2033 21.427 62.9423 21.8089 62.5895C21.8089 62.5895 20.9856 65.7274 18.7702 67.0145C16.5548 68.3032 12.2466 73.8782 11.7681 74.9478C11.7681 74.9478 11.42 74.6515 10.6982 74.5774C10.6982 74.579 13.513 67.7361 15.5237 65.5712Z" fill="#D9DDEF" stroke="#1F1F1F" stroke-opacity="0.2" stroke-width="1.9621" stroke-miterlimit="10" stroke-linejoin="round"/>
<path d="M18.6346 54.7041C18.6346 54.7041 14.647 56.9673 13.1518 60.7802C11.6566 64.593 9.20605 72.3073 9.20605 72.3073C9.20605 72.3073 9.87308 74.1243 11.4714 74.1243C11.4714 74.1243 13.5127 67.7357 15.5235 65.5724C17.5326 63.409 17.6357 60.8462 17.6357 60.8462C17.6357 60.8462 20.5471 57.1751 19.3242 54.9087L18.6346 54.7041Z" fill="#F4F6FA" stroke="#1F1F1F" stroke-opacity="0.2" stroke-width="1.9621" stroke-miterlimit="10" stroke-linejoin="round"/>
<path d="M61.8724 48.2579C58.3118 45.6338 57.8961 46.9434 57.8961 46.9434C57.8961 46.9434 57.2629 49.4757 59.2607 54.4419C61.2586 59.4081 65.5749 60.8433 65.5749 60.8433C65.5749 60.8433 67.1974 52.1835 61.8724 48.2579Z" fill="#F4F6FA" stroke="#1F1F1F" stroke-opacity="0.2" stroke-width="1.9621" stroke-miterlimit="10" stroke-linejoin="round"/>
<path d="M21.3374 48.2578C24.8981 45.6337 25.3138 46.9433 25.3138 46.9433C25.3138 46.9433 25.947 49.4756 23.9491 54.4418C21.9513 59.408 17.635 60.8432 17.635 60.8432C17.635 60.8432 16.0125 52.1834 21.3374 48.2578Z" fill="#F4F6FA" stroke="#1F1F1F" stroke-opacity="0.2" stroke-width="1.9621" stroke-miterlimit="10" stroke-linejoin="round"/>
<path d="M12.1191 74.3453C12.227 72.6636 9.20607 72.3076 9.20607 72.3076C7.71896 72.6862 6.00306 72.604 4.76246 73.395C3.52186 74.1843 2.87095 74.2455 1.75279 74.3389C0.633032 74.4307 0.760318 75.6775 2.14915 75.837C3.53959 75.9965 4.30167 75.8692 5.24098 75.7355C3.57664 77.8924 2.56965 79.5757 1.7399 81.6682C1.39189 83.0632 3.85698 83.432 4.9123 83.2081C6.90692 82.8602 9.00628 79.8367 10.0503 79.0264C11.1072 78.1356 12.0111 76.0271 12.1191 74.3453Z" fill="#D9DDEF" stroke="#1F1F1F" stroke-opacity="0.2" stroke-width="1.9621" stroke-miterlimit="10" stroke-linejoin="round"/>
<path d="M5.24219 75.7339C6.39095 75.7742 7.94734 76.1994 9.64873 74.9478L5.24219 75.7339Z" fill="#D9DDEF"/>
<path d="M5.24219 75.7339C6.39095 75.7742 7.94734 76.1994 9.64873 74.9478" stroke="#1F1F1F" stroke-opacity="0.2" stroke-width="1.9621" stroke-miterlimit="10" stroke-linejoin="round"/>
<path d="M50.9195 38.5007C50.333 38.1334 49.6998 37.866 49.0183 37.75C44.4668 36.9768 43.3148 37.5149 42.5124 38.4717C41.7101 39.4285 41.6553 40.7204 41.6553 43.6731C41.6553 46.6273 43.6257 47.4263 44.4974 47.9514C45.3658 48.475 48.0387 50.2871 51.311 49.9086C54.5833 49.5301 55.1665 46.9576 56.043 45.9862C53.0285 43.8728 51.3368 39.6508 50.9195 38.5007Z" fill="#F4F6FA" stroke="#1F1F1F" stroke-opacity="0.2" stroke-width="1.9621" stroke-miterlimit="10" stroke-linejoin="round"/>
<path d="M32.394 38.5007C32.9805 38.1334 33.6137 37.866 34.2952 37.75C38.8468 36.9768 39.9987 37.5149 40.8011 38.4717C41.6035 39.4285 41.6582 40.7204 41.6582 43.6731C41.6582 46.6273 39.6878 47.4263 38.8162 47.9514C37.9477 48.475 35.2748 50.2871 32.0025 49.9086C28.7302 49.5301 28.147 46.9576 27.2705 45.9862C30.285 43.8728 31.9767 39.6508 32.394 38.5007Z" fill="#F4F6FA" stroke="#1F1F1F" stroke-opacity="0.2" stroke-width="1.9621" stroke-miterlimit="10" stroke-linejoin="round"/>
<path d="M61.8729 48.2582C59.0807 47.3819 57.7692 46.9647 56.8525 46.4831C52.794 44.3455 50.8154 38.2034 50.8154 38.2034C50.8154 38.2034 52.9647 36.3655 55.8423 36.9405C58.7214 37.5156 64.1301 38.3726 61.8729 48.2582Z" fill="#F4F6FA" stroke="#1F1F1F" stroke-opacity="0.2" stroke-width="1.9621" stroke-miterlimit="10" stroke-linejoin="round"/>
<path d="M21.3371 48.2582C24.1293 47.3819 25.4408 46.9647 26.3559 46.4831C30.4145 44.3455 32.393 38.2034 32.393 38.2034C32.393 38.2034 30.2437 36.3655 27.3661 36.9405C24.4902 37.5156 19.0815 38.3726 21.3371 48.2582Z" fill="#F4F6FA" stroke="#1F1F1F" stroke-opacity="0.2" stroke-width="1.9621" stroke-miterlimit="10" stroke-linejoin="round"/>
</g>
</g>
<defs>
<clipPath id="clip0_1033_1862">
<rect width="93" height="143" fill="white"/>
</clipPath>
<clipPath id="clip1_1033_1862">
<rect width="82" height="130" fill="white" transform="translate(1 13)"/>
</clipPath>
</defs>
</svg>
