<svg width="171" height="254" viewBox="0 0 171 254" fill="none" xmlns="http://www.w3.org/2000/svg">
<rect width="171" height="254" rx="24" fill="white" fill-opacity="0.05"/>
<path d="M23.5568 35L20.3295 23.3636H22.1761L24.4432 32.375H24.5511L26.9091 23.3636H28.7386L31.0966 32.3807H31.2045L33.4659 23.3636H35.3182L32.0852 35H30.3182L27.8693 26.2841H27.7784L25.3295 35H23.5568ZM37.8231 35.1932C37.27 35.1932 36.77 35.0909 36.3231 34.8864C35.8761 34.678 35.5219 34.3769 35.2606 33.983C35.003 33.589 34.8742 33.1061 34.8742 32.5341C34.8742 32.0417 34.9689 31.6364 35.1583 31.3182C35.3477 31 35.6034 30.7481 35.9253 30.5625C36.2473 30.3769 36.6072 30.2367 37.0049 30.142C37.4026 30.0473 37.8079 29.9754 38.2208 29.9261C38.7435 29.8655 39.1678 29.8163 39.4935 29.7784C39.8193 29.7367 40.056 29.6705 40.2037 29.5795C40.3515 29.4886 40.4253 29.3409 40.4253 29.1364V29.0966C40.4253 28.6004 40.2852 28.2159 40.0049 27.9432C39.7284 27.6705 39.3155 27.5341 38.7662 27.5341C38.1943 27.5341 37.7435 27.661 37.414 27.9148C37.0882 28.1648 36.8628 28.4432 36.7378 28.75L35.1412 28.3864C35.3306 27.8561 35.6072 27.428 35.9708 27.1023C36.3382 26.7727 36.7606 26.5341 37.2378 26.3864C37.7151 26.2348 38.217 26.1591 38.7435 26.1591C39.092 26.1591 39.4613 26.2008 39.8515 26.2841C40.2454 26.3636 40.6128 26.5114 40.9537 26.7273C41.2984 26.9432 41.5806 27.2519 41.8003 27.6534C42.02 28.0511 42.1299 28.5682 42.1299 29.2045V35H40.4708V33.8068H40.4026C40.2928 34.0265 40.128 34.2424 39.9083 34.4545C39.6886 34.6667 39.4064 34.8428 39.0617 34.983C38.717 35.1231 38.3041 35.1932 37.8231 35.1932ZM38.1924 33.8295C38.6621 33.8295 39.0636 33.7367 39.3969 33.5511C39.7341 33.3655 39.9897 33.1231 40.164 32.8239C40.342 32.5208 40.431 32.197 40.431 31.8523V30.7273C40.3704 30.7879 40.253 30.8447 40.0787 30.8977C39.9083 30.947 39.7132 30.9905 39.4935 31.0284C39.2738 31.0625 39.0598 31.0947 38.8515 31.125C38.6431 31.1515 38.4689 31.1742 38.3287 31.1932C37.9992 31.2348 37.6981 31.3049 37.4253 31.4034C37.1564 31.5019 36.9405 31.6439 36.7776 31.8295C36.6185 32.0114 36.539 32.2538 36.539 32.5568C36.539 32.9773 36.6943 33.2955 37.0049 33.5114C37.3155 33.7235 37.7113 33.8295 38.1924 33.8295ZM47.8265 26.2727V27.6364H43.0595V26.2727H47.8265ZM44.3379 24.1818H46.0368V32.4375C46.0368 32.767 46.086 33.0152 46.1845 33.1818C46.283 33.3447 46.4099 33.4564 46.5652 33.517C46.7243 33.5739 46.8966 33.6023 47.0822 33.6023C47.2186 33.6023 47.3379 33.5928 47.4402 33.5739C47.5424 33.5549 47.622 33.5398 47.6788 33.5284L47.9856 34.9318C47.8871 34.9697 47.747 35.0076 47.5652 35.0455C47.3834 35.0871 47.1561 35.1098 46.8834 35.1136C46.4364 35.1212 46.0197 35.0417 45.6334 34.875C45.247 34.7083 44.9345 34.4508 44.6959 34.1023C44.4572 33.7538 44.3379 33.3163 44.3379 32.7898V24.1818ZM52.7334 35.1761C51.8736 35.1761 51.133 34.9924 50.5118 34.625C49.8944 34.2538 49.4171 33.733 49.08 33.0625C48.7467 32.3883 48.58 31.5985 48.58 30.6932C48.58 29.7992 48.7467 29.0114 49.08 28.3295C49.4171 27.6477 49.8868 27.1155 50.4891 26.733C51.0952 26.3504 51.8035 26.1591 52.6141 26.1591C53.1065 26.1591 53.5838 26.2405 54.0459 26.4034C54.508 26.5663 54.9228 26.822 55.2902 27.1705C55.6577 27.5189 55.9474 27.9716 56.1595 28.5284C56.3717 29.0814 56.4777 29.7538 56.4777 30.5455V31.1477H49.5402V29.875H54.813C54.813 29.428 54.722 29.0322 54.5402 28.6875C54.3584 28.339 54.1027 28.0644 53.7732 27.8636C53.4474 27.6629 53.0648 27.5625 52.6255 27.5625C52.1482 27.5625 51.7315 27.6799 51.3755 27.9148C51.0232 28.1458 50.7505 28.4489 50.5573 28.8239C50.3679 29.1951 50.2732 29.5985 50.2732 30.0341V31.0284C50.2732 31.6117 50.3755 32.108 50.58 32.517C50.7883 32.9261 51.0781 33.2386 51.4493 33.4545C51.8205 33.6667 52.2542 33.7727 52.7505 33.7727C53.0724 33.7727 53.366 33.7273 53.6311 33.6364C53.8963 33.5417 54.1255 33.4015 54.3186 33.2159C54.5118 33.0303 54.6595 32.8011 54.7618 32.5284L56.3698 32.8182C56.241 33.2917 56.0099 33.7064 55.6766 34.0625C55.347 34.4148 54.9323 34.6894 54.4323 34.8864C53.9361 35.0795 53.3698 35.1761 52.7334 35.1761ZM57.7227 35V26.2727H59.3647V27.6591H59.4556C59.6147 27.1894 59.895 26.8201 60.2965 26.5511C60.7018 26.2784 61.1602 26.142 61.6715 26.142C61.7776 26.142 61.9026 26.1458 62.0465 26.1534C62.1943 26.161 62.3098 26.1705 62.3931 26.1818V27.8068C62.3249 27.7879 62.2037 27.767 62.0295 27.7443C61.8552 27.7178 61.681 27.7045 61.5068 27.7045C61.1052 27.7045 60.7473 27.7898 60.4329 27.9602C60.1223 28.1269 59.8761 28.3598 59.6943 28.6591C59.5124 28.9545 59.4215 29.2917 59.4215 29.6705V35H57.7227ZM68.7097 23.3636V35H66.954V23.3636H68.7097ZM72.189 29.8182V35H70.4902V26.2727H72.1209V27.6932H72.2288C72.4296 27.2311 72.744 26.8598 73.172 26.5795C73.6038 26.2992 74.1474 26.1591 74.8027 26.1591C75.3974 26.1591 75.9182 26.2841 76.3652 26.5341C76.8121 26.7803 77.1587 27.1477 77.4049 27.6364C77.6512 28.125 77.7743 28.7292 77.7743 29.4489V35H76.0754V29.6534C76.0754 29.0208 75.9106 28.5265 75.5811 28.1705C75.2515 27.8106 74.7989 27.6307 74.2231 27.6307C73.8292 27.6307 73.4788 27.7159 73.172 27.8864C72.869 28.0568 72.6284 28.3068 72.4504 28.6364C72.2762 28.9621 72.189 29.3561 72.189 29.8182ZM83.4865 26.2727V27.6364H78.7195V26.2727H83.4865ZM79.9979 24.1818H81.6968V32.4375C81.6968 32.767 81.746 33.0152 81.8445 33.1818C81.943 33.3447 82.0699 33.4564 82.2252 33.517C82.3843 33.5739 82.5566 33.6023 82.7422 33.6023C82.8786 33.6023 82.9979 33.5928 83.1002 33.5739C83.2024 33.5549 83.282 33.5398 83.3388 33.5284L83.6456 34.9318C83.5471 34.9697 83.407 35.0076 83.2252 35.0455C83.0434 35.0871 82.8161 35.1098 82.5434 35.1136C82.0964 35.1212 81.6797 35.0417 81.2934 34.875C80.907 34.7083 80.5945 34.4508 80.3559 34.1023C80.1172 33.7538 79.9979 33.3163 79.9979 32.7898V24.1818ZM87.2656 35.1932C86.7125 35.1932 86.2125 35.0909 85.7656 34.8864C85.3186 34.678 84.9644 34.3769 84.7031 33.983C84.4455 33.589 84.3167 33.1061 84.3167 32.5341C84.3167 32.0417 84.4114 31.6364 84.6008 31.3182C84.7902 31 85.0459 30.7481 85.3678 30.5625C85.6898 30.3769 86.0497 30.2367 86.4474 30.142C86.8451 30.0473 87.2504 29.9754 87.6633 29.9261C88.186 29.8655 88.6103 29.8163 88.936 29.7784C89.2618 29.7367 89.4985 29.6705 89.6463 29.5795C89.794 29.4886 89.8678 29.3409 89.8678 29.1364V29.0966C89.8678 28.6004 89.7277 28.2159 89.4474 27.9432C89.1709 27.6705 88.758 27.5341 88.2088 27.5341C87.6368 27.5341 87.186 27.661 86.8565 27.9148C86.5307 28.1648 86.3053 28.4432 86.1803 28.75L84.5838 28.3864C84.7731 27.8561 85.0497 27.428 85.4133 27.1023C85.7807 26.7727 86.2031 26.5341 86.6803 26.3864C87.1576 26.2348 87.6595 26.1591 88.186 26.1591C88.5345 26.1591 88.9038 26.2008 89.294 26.2841C89.6879 26.3636 90.0553 26.5114 90.3963 26.7273C90.7409 26.9432 91.0231 27.2519 91.2428 27.6534C91.4625 28.0511 91.5724 28.5682 91.5724 29.2045V35H89.9133V33.8068H89.8451C89.7353 34.0265 89.5705 34.2424 89.3508 34.4545C89.1311 34.6667 88.8489 34.8428 88.5042 34.983C88.1595 35.1231 87.7466 35.1932 87.2656 35.1932ZM87.6349 33.8295C88.1046 33.8295 88.5061 33.7367 88.8394 33.5511C89.1766 33.3655 89.4322 33.1231 89.6065 32.8239C89.7845 32.5208 89.8735 32.197 89.8735 31.8523V30.7273C89.8129 30.7879 89.6955 30.8447 89.5213 30.8977C89.3508 30.947 89.1557 30.9905 88.936 31.0284C88.7163 31.0625 88.5023 31.0947 88.294 31.125C88.0856 31.1515 87.9114 31.1742 87.7713 31.1932C87.4417 31.2348 87.1406 31.3049 86.8678 31.4034C86.5989 31.5019 86.383 31.6439 86.2201 31.8295C86.061 32.0114 85.9815 32.2538 85.9815 32.5568C85.9815 32.9773 86.1368 33.2955 86.4474 33.5114C86.758 33.7235 87.1538 33.8295 87.6349 33.8295ZM94.7577 32.0398L94.7463 29.9659H95.0418L98.519 26.2727H100.553L96.5872 30.4773H96.3202L94.7577 32.0398ZM93.1952 35V23.3636H94.894V35H93.1952ZM98.7065 35L95.5815 30.8523L96.752 29.6648L100.792 35H98.7065ZM104.863 35.1761C104.004 35.1761 103.263 34.9924 102.642 34.625C102.024 34.2538 101.547 33.733 101.21 33.0625C100.877 32.3883 100.71 31.5985 100.71 30.6932C100.71 29.7992 100.877 29.0114 101.21 28.3295C101.547 27.6477 102.017 27.1155 102.619 26.733C103.225 26.3504 103.933 26.1591 104.744 26.1591C105.237 26.1591 105.714 26.2405 106.176 26.4034C106.638 26.5663 107.053 26.822 107.42 27.1705C107.788 27.5189 108.077 27.9716 108.29 28.5284C108.502 29.0814 108.608 29.7538 108.608 30.5455V31.1477H101.67V29.875H106.943C106.943 29.428 106.852 29.0322 106.67 28.6875C106.488 28.339 106.233 28.0644 105.903 27.8636C105.577 27.6629 105.195 27.5625 104.755 27.5625C104.278 27.5625 103.862 27.6799 103.505 27.9148C103.153 28.1458 102.88 28.4489 102.687 28.8239C102.498 29.1951 102.403 29.5985 102.403 30.0341V31.0284C102.403 31.6117 102.505 32.108 102.71 32.517C102.918 32.9261 103.208 33.2386 103.579 33.4545C103.951 33.6667 104.384 33.7727 104.88 33.7727C105.202 33.7727 105.496 33.7273 105.761 33.6364C106.026 33.5417 106.255 33.4015 106.449 33.2159C106.642 33.0303 106.79 32.8011 106.892 32.5284L108.5 32.8182C108.371 33.2917 108.14 33.7064 107.807 34.0625C107.477 34.4148 107.062 34.6894 106.562 34.8864C106.066 35.0795 105.5 35.1761 104.863 35.1761Z" fill="white"/>
<g clip-path="url(#clip0_1033_2942)">
<path d="M71.5406 64.3561L70.8354 64.2316C70.8602 63.7836 70.536 63.302 71.12 62.9797C71.1905 62.9411 71.1657 62.7084 71.1657 62.5653C71.1657 61.7776 71.1892 60.9886 71.1571 60.2009C71.1336 59.6172 71.4119 59.2887 71.9303 59.168C72.3501 59.0654 72.78 59.0107 73.212 59.005C76.0575 58.9917 78.903 58.9917 81.7484 59.005C82.9448 59.005 83.3914 59.4443 83.4285 60.6228C83.4421 61.0372 83.4174 61.4528 83.4458 61.8672C83.478 62.35 83.5621 62.8292 83.6005 63.312C83.6252 63.6144 83.6005 63.9205 83.6005 64.2453L82.6887 64.3362C82.6887 64.9111 82.6528 65.4699 82.7072 66.0199C82.727 66.229 82.9287 66.443 83.0895 66.6135C85.549 69.2094 88.053 71.7655 90.463 74.4062C91.4258 75.4857 92.2876 76.6521 93.0376 77.8906C93.4186 78.5129 93.5943 79.3118 93.6562 80.0497C93.7588 81.1809 93.6871 82.3283 93.6908 83.4695C93.6908 84.0506 93.6747 84.6106 93.3196 85.1283C93.2108 85.2839 93.3196 85.6149 93.3679 85.8551C93.4693 86.3068 93.7106 86.7498 93.7118 87.1978C93.7242 92.9638 93.7147 98.7297 93.6834 104.496C93.6754 104.845 93.6063 105.19 93.4792 105.515C92.0132 109.411 90.7835 113.39 90.7241 117.576C90.6797 120.106 90.9091 122.634 91.4082 125.115C92.7691 131.693 93.0277 138.357 93.2961 145.026C93.4916 149.879 93.5634 154.732 93.7291 159.577C93.7774 160.97 93.5312 162.287 92.8384 163.461C92.0851 164.743 91.2378 165.966 90.3034 167.121C89.9979 167.494 89.2828 167.533 88.7545 167.721C88.5071 167.807 88.2596 167.874 88.0122 167.97C87.667 168.094 87.3392 168.306 86.9841 168.378C85.2805 168.721 83.5696 168.96 81.8449 168.492C81.7295 168.465 81.6088 168.47 81.4961 168.507C79.357 169.178 77.208 169.11 75.0492 168.62C74.8564 168.57 74.6549 168.563 74.4591 168.599C72.4623 169.056 70.4828 168.732 68.5046 168.475C67.9108 168.398 67.2798 168.329 66.7478 168.079C65.5107 167.499 64.1659 167.095 63.3295 165.847C61.6705 163.371 60.6226 160.744 60.8861 157.682C60.9678 156.734 60.9097 155.774 60.9369 154.82C61.1843 146.255 61.7616 137.713 62.6689 129.194C62.9831 126.185 63.3852 123.183 63.7823 120.184C64.0802 118.023 63.9884 115.825 63.5114 113.696C63.0673 111.716 62.6318 109.732 62.1419 107.763C61.9835 107.129 61.5827 106.554 61.4391 105.919C61.1917 104.838 60.9332 103.731 60.9195 102.633C60.8614 98.0083 60.8936 93.3827 60.8911 88.7584C60.8911 88.0951 60.8466 87.428 60.8911 86.7672C60.9187 86.3836 61.0284 86.0104 61.2128 85.6734C61.3983 85.3486 61.313 85.1843 61.12 84.918C60.8886 84.6007 60.6499 84.2149 60.6164 83.8403C60.5177 82.7257 60.4764 81.6067 60.4927 80.4878C60.4927 80.0933 60.6969 79.6914 60.854 79.3118C61.746 77.1651 63.285 75.4739 64.7943 73.774C66.9087 71.3934 69.0799 69.0626 71.2103 66.6956C71.3858 66.4804 71.492 66.2165 71.5146 65.939C71.574 65.43 71.5406 64.9111 71.5406 64.3561ZM65.3053 101.83C65.2961 101.928 65.2961 102.026 65.3053 102.124C65.8855 104.624 66.3841 107.147 67.0856 109.614C67.4419 110.867 67.7314 112.103 67.6918 113.39C67.5272 118.716 67.4555 124.047 67.1375 129.365C66.5895 138.553 65.8793 147.734 65.2558 156.918C65.2187 157.459 65.0616 157.811 64.6013 158.132C63.1984 159.114 62.9497 159.83 63.3642 161.484C63.4112 161.669 63.6512 161.94 63.8046 161.943C65.0418 161.963 65.7705 162.722 66.321 163.692C66.7379 164.429 67.0633 165.218 67.4345 165.98C67.8786 166.877 68.2497 166.988 69.0799 166.409C69.2444 166.283 69.4454 166.213 69.6525 166.212C69.8596 166.21 70.0615 166.276 70.228 166.4C70.494 166.571 70.6845 166.858 70.9096 167.096C71.6322 166.847 71.866 167.005 72.0614 167.783C72.1109 167.981 72.2792 168.288 72.4128 168.299C72.8842 168.338 73.363 168.268 73.869 168.238C72.9572 165.797 72.9411 165.08 73.7019 164.513C73.838 165.054 73.9061 165.645 74.1337 166.165C74.4974 166.998 75.1234 167.772 76.0031 167.891C77.1499 168.047 78.3413 167.891 79.5129 167.833C79.9818 167.812 80.2923 167.544 80.4804 167.086C80.7311 166.45 81.0246 165.832 81.3587 165.236C81.5344 164.931 81.8647 164.717 82.1245 164.46L82.2582 164.575C82.0887 165.336 81.9056 166.097 81.7633 166.862C81.7286 167.04 81.7522 167.36 81.8487 167.41C82.4895 167.718 83.139 168.115 83.8207 168.2C84.6224 168.298 85.4575 168.1 86.2802 168.048C86.6513 168.023 86.7961 167.827 86.879 167.477C87.3615 165.432 88.0555 163.495 89.7405 162.097C89.832 162.012 89.9149 161.918 89.988 161.816C90.7216 160.895 90.6956 160.253 89.8741 159.436C89.503 159.063 89.2172 158.681 89.2147 158.096C89.1982 154.343 89.1653 150.589 89.1158 146.835C89.07 143.457 89.1863 140.059 88.8807 136.703C88.5096 132.683 87.7672 128.7 87.2056 124.698C86.9804 123.08 86.5462 121.429 86.686 119.835C87.0468 115.536 87.7116 111.27 88.6753 107.067C89.0613 105.408 89.2061 103.692 89.4782 101.89C81.4332 102.552 73.347 102.532 65.3053 101.83ZM65.4859 86.9465C73.8158 87.1953 81.9402 87.1107 90.0919 86.8743C90.1067 86.7 90.1203 86.6005 90.1216 86.5009C90.1414 84.5733 90.1673 82.6432 90.1785 80.718C90.1909 78.478 89.618 76.4608 87.9763 74.838C87.5787 74.4159 87.2069 73.97 86.8629 73.5027C85.3263 71.5548 83.7922 69.6051 82.2606 67.6539C81.9006 67.1972 81.4429 67.0204 80.8565 67.0316C78.5491 67.0864 76.2406 67.0963 73.9283 67.1561C73.6337 67.186 73.3609 67.3258 73.1638 67.5481C71.6606 69.3102 70.1364 71.0562 68.7199 72.8867C67.672 74.2395 66.7404 75.693 65.8261 77.1402C65.565 77.5605 65.421 78.0436 65.4092 78.539C65.403 81.3116 65.4575 84.0892 65.4859 86.9465ZM65.8509 101.372C73.9927 102.035 82.0652 102.078 90.1228 101.319V87.4878H65.6084C65.6888 92.1383 65.7742 96.7228 65.8509 101.372ZM66.8035 166.207L67.0126 166.11C66.5177 165.212 66.0686 164.291 65.528 163.422C65.1408 162.8 64.5383 162.479 63.7638 162.437C63.4842 162.422 63.0846 162.166 62.9757 161.915C62.3485 160.487 62.7679 158.936 63.9654 157.973C64.0793 157.882 64.229 157.819 64.3032 157.704C64.4714 157.449 64.709 157.178 64.7325 156.897C65.0529 152.949 65.3907 149.003 65.6294 145.049C66.1763 135.985 66.6921 126.918 67.1771 117.848C67.3565 114.488 67.3008 111.172 66.0785 107.925C65.4166 106.162 65.2434 104.213 64.8253 102.354C64.777 102.136 64.6001 101.803 64.443 101.778C63.4533 101.618 62.4512 101.529 61.2573 101.404C61.4132 102.773 61.5555 104.061 61.7113 105.346C61.7505 105.485 61.807 105.619 61.8796 105.744C62.0998 106.278 62.3745 106.795 62.5266 107.349C62.9101 108.747 63.2689 110.153 63.5794 111.569C64.1857 114.348 64.6533 117.122 64.3094 120.009C63.5856 126.08 62.9052 132.16 62.3534 138.249C61.7447 144.982 61.4639 151.736 61.3637 158.501C61.3191 161.447 62.5452 163.827 64.1325 166.117C64.2553 166.313 64.4364 166.465 64.6501 166.551C64.8637 166.638 65.0991 166.654 65.3226 166.598C65.1692 165.976 65.0034 165.397 64.8958 164.81C64.8612 164.62 64.9799 164.401 65.0294 164.195C65.2694 164.262 65.5614 164.269 65.7371 164.415C65.9474 164.591 66.0662 164.882 66.2097 165.132C66.4163 165.483 66.6068 165.847 66.8035 166.206V166.207ZM89.9212 101.857C89.7455 103.286 89.6292 104.67 89.3991 106.035C88.7706 109.768 88.0555 113.494 87.4567 117.235C87.2427 118.574 87.0856 119.973 87.2167 121.307C87.4555 123.716 87.9677 126.095 88.3029 128.497C88.7273 131.532 89.3236 134.569 89.4288 137.62C89.6613 144.312 89.6391 151.012 89.6947 157.708C89.6947 158.319 89.863 158.764 90.3022 159.181C91.1682 160.008 91.2523 160.915 90.536 161.891C90.1639 162.36 89.7596 162.803 89.3261 163.216C88.5937 163.963 87.7685 165.675 87.8143 166.458C88.0637 166.166 88.2979 165.861 88.5157 165.544C88.7768 165.124 88.9574 164.649 89.2382 164.245C89.3768 164.045 89.6626 163.949 89.8816 163.806C89.936 164.047 90.0721 164.303 90.0276 164.526C89.9041 165.05 89.7512 165.567 89.5698 166.073C89.4609 166.412 89.3323 166.743 89.2123 167.077L89.3657 167.189C89.5945 167.039 89.8915 166.94 90.0412 166.73C90.8342 165.624 91.6495 164.529 92.3448 163.358C93.04 162.187 93.2961 160.875 93.2454 159.48C93.0339 153.575 92.9163 147.665 92.6677 141.763C92.4425 136.442 92.1085 131.137 91.0507 125.884C90.5011 123.139 90.2329 120.346 90.2502 117.546C90.2775 113.383 91.5134 109.42 92.9584 105.54C93.4533 104.196 93.1068 102.817 93.217 101.433L89.9212 101.857ZM80.4309 66.4716C82.2087 66.7205 82.2124 66.7205 83.3506 68.1379C83.7143 68.5884 84.0607 69.0539 84.4182 69.5068C85.7791 71.2304 87.0645 73.0099 88.5009 74.6588C89.8172 76.1646 90.5781 77.8458 90.6177 79.827C90.661 81.9189 90.6177 84.0133 90.6103 86.1065C90.6103 86.3454 90.6362 86.5831 90.6461 86.7486H93.3097C93.1031 86.3939 92.925 86.1786 92.8495 85.9322C92.7741 85.6858 92.6639 85.2988 92.7839 85.1196C93.2899 84.3729 93.2281 83.5417 93.217 82.7228C93.1613 78.5527 93.7972 79.1662 90.6078 75.3806C88.1087 72.4114 85.309 69.6985 82.6454 66.8711C82.492 66.7081 82.2384 66.5351 82.2297 66.3571C82.1852 65.5196 82.2099 64.6796 82.2099 63.8508L83.0388 63.7513L83.0252 63.6592H71.3464L71.3377 63.7637L72.0206 63.8994C72.0206 64.6012 71.9959 65.2683 72.0281 65.9228C72.0503 66.397 71.8821 66.7392 71.5629 67.0789C69.9929 68.7527 68.4143 70.419 66.8963 72.1388C65.4191 73.8126 63.9271 75.4889 62.607 77.2821C61.8712 78.2756 61.3327 79.4025 61.021 80.601C60.7736 81.5866 61.0099 82.7017 61.0928 83.7545C61.1294 84.0774 61.2737 84.3783 61.5022 84.6081C61.981 85.0649 61.939 85.4793 61.5975 85.977C61.4589 86.1774 61.4119 86.4412 61.2684 86.8257H65.069C65.069 86.425 65.0801 86.0119 65.069 85.6C65.0047 83.7333 64.9836 81.8666 64.8513 80.0149C64.7275 78.2602 65.2373 76.737 66.2901 75.3881C68.2856 72.8283 70.3096 70.2859 72.3274 67.7497C72.5848 67.4261 72.8223 67.0242 73.1662 66.85C73.6351 66.611 73.5918 66.2676 73.5918 65.8868V63.9703L80.5793 64.4544C80.5336 65.0891 80.4828 65.7636 80.4309 66.4704V66.4716ZM61.407 100.914L65.3535 101.332C65.2719 96.6519 65.1915 92.0798 65.1061 87.4094H61.407V100.914ZM90.6968 87.3409V101.259L93.1996 100.913V87.3409H90.6968ZM82.9423 63.0606C82.9423 62.2343 82.9213 61.4528 82.9423 60.6713C82.9609 60.1262 82.7951 59.9246 82.2 59.9333C79.9731 59.9694 77.7536 59.947 75.5305 59.947H74.7721V63.0581L82.9423 63.0606ZM80.0585 64.9335L74.1399 64.5179V66.0224H79.9447C79.9855 65.6316 80.0214 65.2882 80.0585 64.9335ZM72.7481 59.5339V63.0581H74.2141V59.5339H72.7481ZM71.454 167.453C70.8218 167.858 70.5249 167.53 70.2008 167.08C70.077 166.897 69.6638 166.776 69.4312 166.831C68.9364 166.955 68.4601 167.204 67.9664 167.406C68.1433 168.052 70.0461 168.516 71.6 168.182C71.5567 167.961 71.5146 167.749 71.454 167.447V167.453ZM72.1963 60.0478L72.0083 59.9557C71.8845 60.0889 71.6792 60.2183 71.673 60.3552C71.6421 61.184 71.6495 62.014 71.673 62.8441C71.673 62.93 71.8437 63.0768 71.9353 63.0756C71.9935 63.0602 72.0469 63.03 72.0902 62.988C72.1335 62.9459 72.1654 62.8934 72.1827 62.8354C72.2074 61.8983 72.2 60.97 72.2 60.0416L72.1963 60.0478ZM67.0002 167.289L65.5032 165.004C65.4797 166.156 66.1095 167.106 66.999 167.283L67.0002 167.289ZM89.19 165.58L87.3231 167.717C88.6506 167.243 88.7397 167.141 89.1888 165.574L89.19 165.58ZM81.1756 167.054L79.8853 168.482L81.3971 168.058C81.2956 167.605 81.2276 167.295 81.1756 167.054ZM73.8974 166.916L73.8392 166.968L74.4257 168.077L74.97 167.921L73.8974 166.916Z" fill="#C9CBCE"/>
<path d="M65.3054 102C73.3447 102.702 81.4283 102.722 89.471 102.061C89.1988 103.863 89.054 105.579 88.668 107.238C87.7043 111.441 87.0395 115.708 86.6787 120.006C86.5389 121.6 86.9731 123.251 87.1983 124.869C87.7563 128.871 88.5072 132.855 88.8734 136.874C89.179 140.234 89.0627 143.628 89.1085 147.007C89.1596 150.76 89.1926 154.513 89.2074 158.267C89.2074 158.852 89.4908 159.233 89.8669 159.608C90.6883 160.424 90.7143 161.066 89.9807 161.987C89.9076 162.089 89.8247 162.183 89.7332 162.268C88.0482 163.668 87.3542 165.603 86.8717 167.648C86.7888 167.998 86.6453 168.194 86.2729 168.219C85.4502 168.272 84.6151 168.468 83.8134 168.371C83.1317 168.286 82.4822 167.889 81.8414 167.581C81.7449 167.535 81.7177 167.208 81.756 167.033C81.9045 166.268 82.0876 165.508 82.2509 164.746L82.1173 164.632C81.8574 164.888 81.5271 165.102 81.3515 165.407C81.0173 166.003 80.7238 166.621 80.4731 167.257C80.285 167.714 79.9782 167.982 79.5056 168.004C78.334 168.057 77.1426 168.218 75.9958 168.062C75.1186 167.938 74.4901 167.169 74.1264 166.336C73.8988 165.816 73.8307 165.225 73.6946 164.684C72.9338 165.251 72.9523 165.968 73.8617 168.41C73.3557 168.44 72.8719 168.509 72.4055 168.471C72.2719 168.459 72.1036 168.152 72.0542 167.954C71.8587 167.176 71.6249 167.023 70.9024 167.267C70.6772 167.03 70.4867 166.742 70.2207 166.572C70.0542 166.448 69.8523 166.382 69.6452 166.383C69.4381 166.385 69.2372 166.454 69.0726 166.58C68.2425 167.159 67.8713 167.048 67.4272 166.151C67.056 165.389 66.7282 164.6 66.3137 163.864C65.7632 162.893 65.0382 162.134 63.7973 162.114C63.6439 162.114 63.4039 161.84 63.3569 161.655C62.9461 160.001 63.1948 159.29 64.5941 158.304C65.0543 157.982 65.2126 157.63 65.2485 157.089C65.8671 147.905 66.5822 138.725 67.1302 129.536C67.4482 124.218 67.5199 118.887 67.6845 113.561C67.7241 112.269 67.4371 111.038 67.0783 109.785C66.3768 107.319 65.8782 104.795 65.298 102.295C65.2912 102.197 65.2937 102.098 65.3054 102ZM66.6589 157.831C66.7443 158.139 66.8049 158.352 66.863 158.564C67.0498 159.244 67.3579 159.874 66.8407 160.614C66.6428 160.902 66.8296 161.538 66.9929 161.955C67.0498 162.102 67.5608 162.065 67.8589 162.12C67.9542 162.147 68.0476 162.18 68.1385 162.219C67.6066 162.725 67.6028 162.896 68.0928 163.339C68.2449 163.478 68.4107 163.602 68.5604 163.745C69.0763 164.235 69.4908 164.292 70.1081 163.946C70.6624 163.637 70.6846 163.307 70.1811 162.94C70.0742 162.88 69.983 162.794 69.9151 162.691C69.4648 161.678 68.9489 160.685 68.6111 159.635C68.2981 158.656 67.6474 158.175 66.6589 157.831ZM83.9965 162.35C84.1846 162.176 84.5223 161.905 84.8118 161.59C85.204 161.165 85.0172 160.478 84.4641 160.384C84.1843 160.363 83.9055 160.438 83.6736 160.597C82.9449 161.074 82.6195 161.799 82.6307 162.655C82.6307 162.868 82.8954 163.072 82.9128 163.29C82.9437 163.68 83.0674 164.001 83.472 163.912C83.7899 163.846 84.2142 163.634 84.3145 163.377C84.4147 163.121 84.1363 162.755 83.9965 162.35ZM70.7687 163.658C70.791 163.896 70.7687 163.998 70.812 164.057C70.9798 164.316 71.1738 164.558 71.391 164.777C71.448 164.831 71.7882 164.721 71.7968 164.653C71.8217 164.379 71.8151 164.103 71.777 163.831C71.7682 163.727 71.7215 163.63 71.6459 163.558C71.4714 163.421 71.2475 163.197 71.0916 163.23C70.9358 163.264 70.8294 163.571 70.7687 163.658Z" fill="#FFFF00" fill-opacity="0.9"/>
<path d="M65.4854 86.9464C65.457 84.0842 65.4075 81.3166 65.4186 78.5452C65.4304 78.0498 65.5744 77.5667 65.8355 77.1464C66.756 75.6992 67.6814 74.2456 68.7292 72.8929C70.1458 71.0624 71.67 69.3164 73.1731 67.5543C73.3703 67.332 73.6431 67.1922 73.9377 67.1623C76.245 67.0976 78.5536 67.0876 80.8658 67.0378C81.4522 67.0242 81.91 67.2009 82.27 67.6601C83.8033 69.6105 85.3374 71.5601 86.8723 73.5089C87.2163 73.9762 87.5881 74.4222 87.9857 74.8442C89.6274 76.462 90.2002 78.4842 90.1879 80.7242C90.1767 82.6519 90.1508 84.582 90.131 86.5071C90.131 86.6067 90.1161 86.7063 90.1013 86.8805C81.9409 87.1107 73.8152 87.2003 65.4854 86.9464Z" fill="white" fill-opacity="0.2"/>
<path d="M65.8509 101.372C65.7693 96.7228 65.6889 92.132 65.6035 87.4878H90.1179V101.319C82.0652 102.078 73.9927 102.035 65.8509 101.372Z" fill="#F4F6FA" fill-opacity="0.2"/>
<path d="M66.8035 166.206C66.6068 165.847 66.4163 165.483 66.2121 165.129C66.0686 164.88 65.9499 164.587 65.7395 164.412C65.5639 164.265 65.2719 164.259 65.0319 164.191C64.9824 164.397 64.8636 164.616 64.8983 164.806C65.0059 165.394 65.1717 165.97 65.3251 166.594C65.1016 166.65 64.8662 166.634 64.6525 166.547C64.4389 166.461 64.2577 166.309 64.1349 166.113C62.5477 163.823 61.3216 161.444 61.3662 158.497C61.4688 151.732 61.7497 144.979 62.3559 138.245C62.9077 132.156 63.5931 126.077 64.3119 120.005C64.6558 117.118 64.1881 114.344 63.5819 111.565C63.2739 110.149 62.9126 108.743 62.5291 107.345C62.3782 106.792 62.1023 106.274 61.8821 105.74C61.8095 105.615 61.753 105.481 61.7138 105.342C61.5579 104.058 61.4156 102.772 61.2598 101.401C62.4536 101.525 63.4557 101.617 64.4455 101.774C64.6026 101.799 64.7795 102.132 64.8277 102.35C65.2459 104.209 65.4191 106.158 66.081 107.922C67.2996 111.168 67.359 114.487 67.1796 117.845C66.6938 126.913 66.1779 135.98 65.6319 145.046C65.3931 148.999 65.0554 152.945 64.735 156.893C64.7115 157.174 64.4739 157.445 64.3057 157.7C64.2314 157.815 64.0817 157.878 63.9679 157.969C62.7679 158.932 62.3485 160.483 62.9782 161.912C63.0871 162.161 63.4867 162.418 63.7663 162.433C64.5395 162.475 65.1432 162.793 65.5305 163.419C66.0686 164.29 66.5202 165.208 67.0151 166.107L66.8035 166.206Z" fill="#FFFF00" fill-opacity="0.9"/>
<path d="M89.9214 101.856L93.2172 101.432C93.1071 102.819 93.4646 104.198 92.9586 105.538C91.5136 109.418 90.2777 113.378 90.2505 117.545C90.2331 120.344 90.5013 123.138 91.0509 125.882C92.1087 131.135 92.4427 136.44 92.6679 141.762C92.9153 147.664 93.0391 153.574 93.2457 159.479C93.2964 160.874 93.0378 162.182 92.345 163.356C91.6522 164.531 90.8344 165.622 90.0414 166.729C89.8917 166.937 89.5948 167.037 89.3659 167.188L89.2125 167.076C89.3362 166.741 89.4599 166.41 89.57 166.072C89.7515 165.565 89.9043 165.049 90.0278 164.525C90.0723 164.303 89.9362 164.046 89.8818 163.804C89.6628 163.947 89.377 164.043 89.2385 164.244C88.9576 164.648 88.777 165.122 88.516 165.543C88.2981 165.859 88.064 166.164 87.8145 166.456C87.7687 165.673 88.5939 163.967 89.3263 163.214C89.7599 162.802 90.1642 162.359 90.5363 161.889C91.2526 160.913 91.1746 160.006 90.3024 159.18C89.8632 158.763 89.6999 158.318 89.695 157.707C89.6393 151.01 89.6616 144.31 89.429 137.619C89.3238 134.567 88.7275 131.531 88.3032 128.496C87.9679 126.094 87.4557 123.715 87.2169 121.305C87.0833 119.968 87.2429 118.568 87.457 117.234C88.0557 113.492 88.7708 109.767 89.3993 106.034C89.6294 104.668 89.7457 103.285 89.9214 101.856Z" fill="#FFFF00" fill-opacity="0.9"/>
<path d="M80.4305 66.4701C80.4824 65.7633 80.5332 65.0888 80.5802 64.4516L73.5926 63.9675V65.884C73.5926 66.2648 73.636 66.6082 73.1671 66.8472C72.8244 67.0214 72.5856 67.4233 72.3283 67.7469C70.3105 70.2881 68.2865 72.8255 66.2909 75.3853C65.2381 76.7343 64.7259 78.2575 64.8521 80.0121C64.9845 81.8701 65.0055 83.7342 65.0698 85.5972C65.0834 86.0091 65.0698 86.4223 65.0698 86.823H61.2693C61.4128 86.4384 61.4598 86.1746 61.5983 85.9742C61.9398 85.4765 61.9819 85.0633 61.5031 84.6054C61.2745 84.3756 61.1302 84.0746 61.0936 83.7517C61.0107 82.6989 60.7769 81.5839 61.0218 80.5983C61.3336 79.3997 61.8721 78.2728 62.6079 77.2793C63.9329 75.4861 65.4199 73.8098 66.8971 72.1361C68.4151 70.4162 69.99 68.7499 71.5637 67.0761C71.8829 66.7364 72.0512 66.3942 72.0289 65.9201C71.9967 65.2605 72.0215 64.5985 72.0215 63.8966L71.341 63.7647L71.3497 63.6602H83.0285L83.0421 63.7522L82.2132 63.8518C82.2132 64.6806 82.1885 65.5206 82.233 66.3581C82.2417 66.5361 82.4953 66.709 82.6487 66.8721C85.3123 69.6994 88.112 72.4123 90.6111 75.3816C93.8005 79.1696 93.1646 78.5561 93.2203 82.7238C93.2314 83.5426 93.2933 84.3702 92.7873 85.1206C92.6635 85.2998 92.7724 85.6731 92.8528 85.9332C92.9332 86.1933 93.1003 86.3949 93.313 86.7495H90.6494C90.6395 86.584 90.6136 86.3463 90.6136 86.1074C90.6136 84.0143 90.6643 81.9198 90.621 79.8279C90.5814 77.8468 89.8205 76.1656 88.5042 74.6598C87.0641 73.0109 85.7725 71.2313 84.4215 69.5078C84.064 69.0523 83.7176 68.5869 83.3539 68.1389C82.212 66.7215 82.2083 66.7215 80.4305 66.4701Z" fill="#F4F6FA" fill-opacity="0.2"/>
<path d="M61.4072 100.914V87.4092H65.1101C65.1917 92.0796 65.2721 96.6517 65.3575 101.332L61.4072 100.914Z" fill="#F4F6FA" fill-opacity="0.2"/>
<path d="M90.6963 87.3408H93.1991V100.913L90.6963 101.259V87.3408Z" fill="white" fill-opacity="0.2"/>
<path d="M82.942 63.0606H74.7842V59.9495H75.5475C77.7744 59.9495 80.0013 59.9719 82.2171 59.9358C82.806 59.9259 82.9717 60.1287 82.9594 60.6738C82.921 61.4528 82.942 62.2343 82.942 63.0606Z" fill="#F4F6FA" fill-opacity="0.2"/>
<path d="M80.0582 64.9335C80.0211 65.2882 79.9853 65.6354 79.9444 66.0224H74.1396V64.5179L80.0582 64.9335Z" fill="#F4F6FA" fill-opacity="0.2"/>
<path d="M72.748 59.5339H74.2141V63.0581H72.748V59.5339Z" fill="#F4F6FA" fill-opacity="0.2"/>
<path d="M71.4534 167.447C71.514 167.75 71.5561 167.961 71.5994 168.171C70.0455 168.505 68.1427 168.041 67.9658 167.395C68.4607 167.192 68.9296 166.939 69.4306 166.82C69.6632 166.765 70.0702 166.886 70.2001 167.069C70.5243 167.524 70.8212 167.852 71.4534 167.447Z" fill="#FFFF00"/>
<path d="M72.1997 60.0416C72.1997 60.9699 72.2071 61.8995 72.1885 62.8279C72.1712 62.8859 72.1393 62.9385 72.096 62.9805C72.0527 63.0226 71.9993 63.0527 71.9411 63.0681C71.8495 63.0681 71.6801 62.9225 71.6788 62.8366C71.6578 62.0078 71.6504 61.1778 71.6788 60.3477C71.6788 60.2108 71.8966 60.0814 72.0141 59.9483L72.1997 60.0416Z" fill="#F4F6FA" fill-opacity="0.2"/>
<path d="M66.9985 167.283C66.109 167.106 65.4793 166.157 65.5015 164.998L66.9985 167.283Z" fill="#FFFF00"/>
<path d="M89.1882 165.574C88.7391 167.141 88.65 167.243 87.3213 167.711L89.1882 165.574Z" fill="#FFFF00"/>
<path d="M81.1751 167.054C81.2271 167.29 81.2988 167.6 81.3966 168.058L79.8848 168.482L81.1751 167.054Z" fill="#FFFF00"/>
<path d="M73.897 166.921L74.9696 167.926L74.4253 168.082L73.8389 166.973L73.897 166.921Z" fill="#FFFF00"/>
<path d="M66.6582 157.661C67.6479 158.005 68.2974 158.486 68.6142 159.473C68.9519 160.523 69.4678 161.516 69.9181 162.529C69.9861 162.632 70.0772 162.717 70.1841 162.778C70.6876 163.145 70.6654 163.475 70.1111 163.783C69.4926 164.129 69.0793 164.072 68.5634 163.583C68.4137 163.44 68.248 163.315 68.0958 163.176C67.6009 162.731 67.6096 162.56 68.1416 162.056C68.0506 162.017 67.9572 161.984 67.862 161.958C67.5601 161.903 67.0491 161.939 66.9959 161.792C66.8326 161.375 66.6458 160.739 66.8438 160.452C67.3547 159.711 67.0529 159.083 66.866 158.401C66.8042 158.182 66.7436 157.969 66.6582 157.661ZM67.1803 161.394L68.7713 161.582C68.4199 160.604 68.0748 159.647 67.7296 158.689C67.5947 159.272 67.5663 159.784 67.4822 160.286C67.4012 160.662 67.3005 161.032 67.1803 161.396V161.394ZM69.8476 163.32L69.0905 161.976L68.264 162.723C68.8393 162.913 69.0459 163.877 69.8476 163.32Z" fill="#C9CBCE"/>
<path d="M83.996 162.18C84.1358 162.585 84.408 162.969 84.3139 163.209C84.2199 163.45 83.7894 163.678 83.4714 163.744C83.0669 163.83 82.9432 163.509 82.9122 163.122C82.8949 162.904 82.6326 162.7 82.6302 162.488C82.619 161.631 82.9444 160.906 83.6731 160.429C83.905 160.27 84.1837 160.195 84.4636 160.216C85.0166 160.31 85.2059 160.997 84.8113 161.422C84.5218 161.735 84.184 162.006 83.996 162.18ZM83.151 161.72L83.3737 161.969C83.7077 161.705 84.0554 161.456 84.3634 161.167C84.4451 161.093 84.4129 160.895 84.4327 160.753C84.2855 160.763 84.0851 160.715 84.0009 160.794C83.6978 161.08 83.4318 161.41 83.151 161.72Z" fill="#C9CBCE"/>
<path d="M70.7686 163.488C70.8292 163.401 70.9319 163.101 71.0915 163.066C71.251 163.032 71.4713 163.257 71.6457 163.394C71.7213 163.466 71.768 163.563 71.7768 163.668C71.8149 163.94 71.8216 164.215 71.7966 164.489C71.788 164.551 71.4478 164.661 71.3909 164.613C71.1736 164.394 70.9796 164.152 70.8119 163.893C70.7698 163.828 70.7908 163.726 70.7686 163.488Z" fill="#C9CBCE"/>
<path d="M67.1807 161.396C67.3012 161.033 67.4023 160.663 67.4838 160.289C67.5667 159.791 67.5951 159.275 67.7312 158.691C68.0764 159.649 68.4215 160.606 68.7729 161.584L67.1807 161.396Z" fill="#FCEB00"/>
<path d="M69.8482 163.32C69.0465 163.873 68.8399 162.909 68.2646 162.72L69.0911 161.974L69.8482 163.32Z" fill="#FCEB00"/>
<path d="M83.1514 161.72C83.4322 161.41 83.6982 161.083 84.0038 160.799C84.0879 160.721 84.2883 160.768 84.4355 160.758C84.4157 160.9 84.4479 161.098 84.3663 161.172C84.0557 161.461 83.7081 161.71 83.3765 161.974L83.1514 161.72Z" fill="#FCEB00"/>
</g>
<path d="M21.179 208V205.784L26.3565 200.99C26.7969 200.564 27.1662 200.18 27.4645 199.839C27.7675 199.499 27.9972 199.165 28.1534 198.838C28.3097 198.507 28.3878 198.149 28.3878 197.766C28.3878 197.339 28.2907 196.973 28.0966 196.665C27.9025 196.352 27.6373 196.113 27.3011 195.947C26.965 195.777 26.5838 195.692 26.1577 195.692C25.7126 195.692 25.3243 195.782 24.9929 195.962C24.6615 196.142 24.4058 196.4 24.2259 196.736C24.0459 197.072 23.956 197.472 23.956 197.936H21.0369C21.0369 196.984 21.2524 196.158 21.6832 195.457C22.1141 194.757 22.7178 194.214 23.4943 193.831C24.2708 193.447 25.1657 193.256 26.179 193.256C27.2206 193.256 28.1274 193.44 28.8991 193.81C29.6757 194.174 30.2794 194.681 30.7102 195.33C31.1411 195.978 31.3565 196.722 31.3565 197.56C31.3565 198.109 31.2476 198.651 31.0298 199.186C30.8168 199.721 30.4356 200.315 29.8864 200.969C29.3371 201.617 28.563 202.396 27.5639 203.305L25.4403 205.386V205.486H31.5483V208H21.179ZM38.6798 208.32C37.4582 208.315 36.407 208.014 35.5263 207.418C34.6504 206.821 33.9757 205.957 33.5022 204.825C33.0335 203.694 32.8014 202.332 32.8062 200.741C32.8062 199.155 33.0406 197.804 33.5093 196.686C33.9828 195.569 34.6575 194.719 35.5335 194.136C36.4141 193.549 37.4629 193.256 38.6798 193.256C39.8966 193.256 40.943 193.549 41.819 194.136C42.6996 194.723 43.3767 195.576 43.8502 196.693C44.3237 197.806 44.5581 199.155 44.5533 200.741C44.5533 202.337 44.3166 203.701 43.8431 204.832C43.3744 205.964 42.702 206.828 41.8261 207.425C40.9501 208.021 39.9013 208.32 38.6798 208.32ZM38.6798 205.77C39.5131 205.77 40.1783 205.351 40.6755 204.513C41.1727 203.675 41.4189 202.418 41.4141 200.741C41.4141 199.638 41.3005 198.72 41.0732 197.986C40.8507 197.252 40.5335 196.7 40.1215 196.331C39.7143 195.962 39.2337 195.777 38.6798 195.777C37.8512 195.777 37.1883 196.191 36.6911 197.02C36.194 197.848 35.943 199.089 35.9383 200.741C35.9383 201.859 36.0496 202.792 36.2721 203.54C36.4994 204.283 36.819 204.842 37.2309 205.216C37.6428 205.585 38.1258 205.77 38.6798 205.77ZM54.7325 208.213C53.615 208.213 52.6539 207.976 51.8489 207.503C51.0487 207.025 50.4332 206.362 50.0023 205.514C49.5762 204.667 49.3631 203.691 49.3631 202.588C49.3631 201.471 49.5786 200.491 50.0094 199.648C50.4451 198.8 51.063 198.14 51.8631 197.666C52.6633 197.188 53.615 196.949 54.7183 196.949C55.67 196.949 56.5033 197.122 57.2183 197.467C57.9332 197.813 58.499 198.298 58.9157 198.923C59.3324 199.548 59.562 200.282 59.6046 201.125H56.7495C56.669 200.58 56.4559 200.143 56.1103 199.811C55.7694 199.475 55.3219 199.307 54.768 199.307C54.2992 199.307 53.8897 199.435 53.5393 199.69C53.1936 199.941 52.9237 200.308 52.7296 200.791C52.5355 201.274 52.4384 201.859 52.4384 202.545C52.4384 203.241 52.5331 203.833 52.7225 204.321C52.9166 204.809 53.1889 205.18 53.5393 205.436C53.8897 205.692 54.2992 205.82 54.768 205.82C55.1136 205.82 55.4237 205.749 55.6984 205.607C55.9777 205.464 56.2074 205.259 56.3873 204.989C56.5719 204.714 56.6927 204.385 56.7495 204.001H59.6046C59.5573 204.835 59.33 205.569 58.9228 206.203C58.5203 206.833 57.964 207.325 57.2538 207.68C56.5435 208.036 55.7031 208.213 54.7325 208.213ZM67.7375 203.355V197.091H70.7631V208H67.8582V206.018H67.7446C67.4984 206.658 67.0888 207.171 66.5159 207.56C65.9477 207.948 65.2541 208.142 64.4349 208.142C63.7058 208.142 63.0642 207.976 62.5102 207.645C61.9562 207.313 61.523 206.842 61.2105 206.232C60.9027 205.621 60.7465 204.889 60.7418 204.037V197.091H63.7673V203.497C63.7721 204.141 63.9449 204.65 64.2858 205.024C64.6267 205.398 65.0836 205.585 65.6565 205.585C66.0211 205.585 66.362 205.502 66.6793 205.337C66.9965 205.166 67.2522 204.915 67.4463 204.584C67.6452 204.252 67.7422 203.843 67.7375 203.355ZM72.3832 212.091V197.091H75.3661V198.923H75.5011C75.6336 198.63 75.8254 198.331 76.0763 198.028C76.332 197.721 76.6635 197.465 77.0707 197.261C77.4826 197.053 77.994 196.949 78.6048 196.949C79.4002 196.949 80.1341 197.157 80.8065 197.574C81.4788 197.986 82.0162 198.608 82.4187 199.442C82.8211 200.27 83.0224 201.31 83.0224 202.56C83.0224 203.777 82.8259 204.804 82.4329 205.642C82.0446 206.475 81.5143 207.107 80.842 207.538C80.1744 207.964 79.4263 208.178 78.5977 208.178C78.0105 208.178 77.511 208.08 77.0991 207.886C76.6919 207.692 76.3581 207.448 76.0977 207.155C75.8372 206.857 75.6384 206.556 75.5011 206.253H75.4087V212.091H72.3832ZM75.3448 202.545C75.3448 203.194 75.4348 203.76 75.6147 204.243C75.7946 204.726 76.055 205.102 76.396 205.372C76.7369 205.637 77.1512 205.77 77.6388 205.77C78.1313 205.77 78.5479 205.635 78.8888 205.365C79.2298 205.09 79.4878 204.712 79.663 204.229C79.8429 203.741 79.9329 203.18 79.9329 202.545C79.9329 201.916 79.8453 201.362 79.6701 200.884C79.4949 200.405 79.2369 200.031 78.896 199.761C78.555 199.491 78.136 199.357 77.6388 199.357C77.1464 199.357 76.7298 199.487 76.3888 199.747C76.0527 200.008 75.7946 200.377 75.6147 200.855C75.4348 201.333 75.3448 201.897 75.3448 202.545ZM93.3161 200.202L90.5462 200.372C90.4989 200.135 90.3971 199.922 90.2408 199.733C90.0846 199.539 89.8786 199.385 89.6229 199.271C89.372 199.153 89.0713 199.094 88.721 199.094C88.2522 199.094 87.8568 199.193 87.5349 199.392C87.2129 199.586 87.0519 199.847 87.0519 200.173C87.0519 200.434 87.1561 200.654 87.3644 200.834C87.5728 201.014 87.9302 201.158 88.4369 201.267L90.4113 201.665C91.4719 201.883 92.2626 202.233 92.7835 202.716C93.3043 203.199 93.5647 203.833 93.5647 204.619C93.5647 205.334 93.354 205.962 92.9326 206.501C92.5159 207.041 91.943 207.463 91.2139 207.766C90.4894 208.064 89.6537 208.213 88.7067 208.213C87.2626 208.213 86.1121 207.912 85.255 207.311C84.4028 206.705 83.9032 205.881 83.7565 204.839L86.7323 204.683C86.8223 205.124 87.0401 205.46 87.3857 205.692C87.7314 205.919 88.1741 206.033 88.7139 206.033C89.2442 206.033 89.6703 205.931 89.9923 205.727C90.319 205.519 90.4847 205.251 90.4894 204.925C90.4847 204.65 90.3687 204.425 90.1414 204.25C89.9141 204.07 89.5638 203.933 89.0903 203.838L87.2011 203.462C86.1357 203.249 85.3426 202.879 84.8218 202.354C84.3057 201.828 84.0477 201.158 84.0477 200.344C84.0477 199.643 84.2371 199.039 84.6158 198.533C84.9994 198.026 85.5368 197.635 86.2281 197.361C86.9241 197.086 87.7385 196.949 88.6712 196.949C90.0491 196.949 91.1334 197.24 91.9241 197.822C92.7195 198.405 93.1835 199.198 93.3161 200.202ZM102.057 208H98.466V196.364H102.216C103.345 196.364 104.311 196.597 105.114 197.062C105.917 197.525 106.532 198.189 106.96 199.057C107.388 199.92 107.602 200.955 107.602 202.159C107.602 203.371 107.386 204.415 106.955 205.29C106.523 206.161 105.894 206.831 105.068 207.301C104.242 207.767 103.239 208 102.057 208ZM99.8751 206.75H101.966C102.928 206.75 103.725 206.564 104.358 206.193C104.991 205.822 105.462 205.294 105.773 204.608C106.083 203.922 106.239 203.106 106.239 202.159C106.239 201.22 106.085 200.411 105.778 199.733C105.472 199.051 105.013 198.528 104.403 198.165C103.794 197.797 103.034 197.614 102.125 197.614H99.8751V206.75ZM109.144 208V199.273H110.44V200.591H110.531C110.69 200.159 110.977 199.809 111.394 199.54C111.811 199.271 112.281 199.136 112.803 199.136C112.902 199.136 113.025 199.138 113.173 199.142C113.32 199.146 113.432 199.152 113.508 199.159V200.523C113.462 200.511 113.358 200.494 113.195 200.472C113.036 200.445 112.868 200.432 112.69 200.432C112.265 200.432 111.887 200.521 111.553 200.699C111.224 200.873 110.962 201.116 110.769 201.426C110.58 201.733 110.485 202.083 110.485 202.477V208H109.144ZM117.025 208.205C116.472 208.205 115.971 208.1 115.52 207.892C115.069 207.68 114.711 207.375 114.446 206.977C114.181 206.576 114.048 206.091 114.048 205.523C114.048 205.023 114.147 204.617 114.344 204.307C114.541 203.992 114.804 203.746 115.133 203.568C115.463 203.39 115.827 203.258 116.224 203.17C116.626 203.08 117.029 203.008 117.435 202.955C117.965 202.886 118.395 202.835 118.724 202.801C119.058 202.763 119.3 202.701 119.452 202.614C119.607 202.527 119.685 202.375 119.685 202.159V202.114C119.685 201.553 119.531 201.117 119.224 200.807C118.921 200.496 118.461 200.341 117.844 200.341C117.203 200.341 116.702 200.481 116.338 200.761C115.974 201.042 115.719 201.341 115.571 201.659L114.298 201.205C114.525 200.674 114.828 200.261 115.207 199.966C115.59 199.667 116.007 199.458 116.457 199.341C116.912 199.22 117.359 199.159 117.798 199.159C118.078 199.159 118.4 199.193 118.764 199.261C119.132 199.326 119.486 199.46 119.827 199.665C120.171 199.869 120.457 200.178 120.685 200.591C120.912 201.004 121.025 201.557 121.025 202.25V208H119.685V206.818H119.616C119.525 207.008 119.374 207.21 119.162 207.426C118.95 207.642 118.668 207.826 118.315 207.977C117.963 208.129 117.533 208.205 117.025 208.205ZM117.23 207C117.76 207 118.207 206.896 118.571 206.688C118.938 206.479 119.215 206.21 119.4 205.881C119.59 205.551 119.685 205.205 119.685 204.841V203.614C119.628 203.682 119.503 203.744 119.31 203.801C119.12 203.854 118.9 203.902 118.65 203.943C118.404 203.981 118.164 204.015 117.929 204.045C117.698 204.072 117.51 204.095 117.366 204.114C117.018 204.159 116.692 204.233 116.389 204.335C116.09 204.434 115.847 204.583 115.662 204.784C115.48 204.981 115.389 205.25 115.389 205.591C115.389 206.057 115.561 206.409 115.906 206.648C116.255 206.883 116.696 207 117.23 207ZM124.174 202.75V208H122.833V199.273H124.128V200.636H124.242C124.447 200.193 124.757 199.837 125.174 199.568C125.59 199.295 126.128 199.159 126.787 199.159C127.378 199.159 127.895 199.28 128.339 199.523C128.782 199.761 129.126 200.125 129.373 200.614C129.619 201.098 129.742 201.712 129.742 202.455V208H128.401V202.545C128.401 201.86 128.223 201.326 127.867 200.943C127.511 200.557 127.022 200.364 126.401 200.364C125.973 200.364 125.59 200.456 125.253 200.642C124.92 200.828 124.657 201.098 124.464 201.455C124.27 201.811 124.174 202.242 124.174 202.75ZM132.802 204.818L132.78 203.159H133.052L136.87 199.273H138.53L134.461 203.386H134.348L132.802 204.818ZM131.552 208V196.364H132.893V208H131.552ZM137.098 208L133.689 203.682L134.643 202.75L138.802 208H137.098Z" fill="white"/>
<path d="M21.233 231V220.818H22.4659V229.906H27.1989V231H21.233ZM30.636 231.179C30.1521 231.179 29.713 231.088 29.3186 230.906C28.9241 230.72 28.6109 230.453 28.3789 230.105C28.1469 229.754 28.0309 229.33 28.0309 228.832C28.0309 228.395 28.1171 228.04 28.2894 227.768C28.4618 227.493 28.6921 227.278 28.9805 227.122C29.2688 226.966 29.587 226.85 29.935 226.774C30.2864 226.695 30.6393 226.632 30.994 226.585C31.458 226.526 31.8342 226.481 32.1225 226.451C32.4142 226.418 32.6263 226.363 32.7589 226.287C32.8948 226.211 32.9627 226.078 32.9627 225.889V225.849C32.9627 225.359 32.8285 224.978 32.56 224.706C32.2949 224.434 31.8922 224.298 31.3519 224.298C30.7918 224.298 30.3526 224.421 30.0345 224.666C29.7163 224.911 29.4926 225.173 29.3633 225.452L28.2497 225.054C28.4485 224.59 28.7137 224.229 29.0451 223.97C29.3799 223.708 29.7445 223.526 30.1389 223.423C30.5366 223.317 30.9277 223.264 31.3122 223.264C31.5574 223.264 31.8391 223.294 32.1573 223.354C32.4788 223.41 32.7887 223.528 33.087 223.707C33.3886 223.886 33.6389 224.156 33.8377 224.517C34.0366 224.878 34.136 225.362 34.136 225.969V231H32.9627V229.966H32.9031C32.8235 230.132 32.6909 230.309 32.5053 230.498C32.3197 230.687 32.0728 230.848 31.7646 230.98C31.4563 231.113 31.0802 231.179 30.636 231.179ZM30.815 230.125C31.279 230.125 31.6701 230.034 31.9883 229.852C32.3098 229.669 32.5517 229.434 32.7141 229.146C32.8799 228.857 32.9627 228.554 32.9627 228.236V227.162C32.913 227.222 32.8036 227.276 32.6346 227.326C32.4689 227.372 32.2766 227.414 32.0579 227.45C31.8425 227.483 31.632 227.513 31.4265 227.54C31.2243 227.563 31.0603 227.583 30.9343 227.599C30.6294 227.639 30.3444 227.704 30.0792 227.793C29.8174 227.879 29.6052 228.01 29.4428 228.186C29.2838 228.358 29.2042 228.594 29.2042 228.892C29.2042 229.3 29.355 229.608 29.6566 229.817C29.9615 230.022 30.3477 230.125 30.815 230.125ZM41.1266 225.074L40.0726 225.372C40.0064 225.196 39.9086 225.026 39.7793 224.86C39.6534 224.691 39.481 224.552 39.2623 224.442C39.0435 224.333 38.7635 224.278 38.4221 224.278C37.9548 224.278 37.5653 224.386 37.2538 224.602C36.9455 224.814 36.7914 225.084 36.7914 225.412C36.7914 225.704 36.8975 225.934 37.1096 226.103C37.3217 226.272 37.6531 226.413 38.1039 226.526L39.2374 226.804C39.9202 226.97 40.4289 227.223 40.7637 227.565C41.0985 227.903 41.2658 228.339 41.2658 228.872C41.2658 229.31 41.1399 229.701 40.888 230.045C40.6394 230.39 40.2914 230.662 39.844 230.861C39.3965 231.06 38.8762 231.159 38.2829 231.159C37.504 231.159 36.8593 230.99 36.3489 230.652C35.8385 230.314 35.5154 229.82 35.3795 229.17L36.4931 228.892C36.5992 229.303 36.7997 229.611 37.0947 229.817C37.393 230.022 37.7824 230.125 38.263 230.125C38.8099 230.125 39.2441 230.009 39.5655 229.777C39.8904 229.542 40.0528 229.26 40.0528 228.932C40.0528 228.667 39.96 228.445 39.7744 228.266C39.5887 228.083 39.3037 227.947 38.9192 227.858L37.6465 227.56C36.9472 227.394 36.4334 227.137 36.1053 226.789C35.7805 226.438 35.6181 225.999 35.6181 225.472C35.6181 225.041 35.7391 224.66 35.981 224.328C36.2263 223.997 36.5594 223.737 36.9803 223.548C37.4046 223.359 37.8851 223.264 38.4221 223.264C39.1778 223.264 39.771 223.43 40.2019 223.761C40.6361 224.093 40.9443 224.53 41.1266 225.074ZM45.793 223.364V224.358H41.8356V223.364H45.793ZM42.989 221.534H44.1623V228.812C44.1623 229.144 44.2104 229.393 44.3065 229.558C44.4059 229.721 44.5319 229.83 44.6843 229.886C44.8401 229.939 45.0042 229.966 45.1765 229.966C45.3058 229.966 45.4119 229.959 45.4947 229.946C45.5776 229.929 45.6439 229.916 45.6936 229.906L45.9322 230.96C45.8527 230.99 45.7416 231.02 45.5991 231.05C45.4566 231.083 45.276 231.099 45.0572 231.099C44.7258 231.099 44.401 231.028 44.0828 230.886C43.7679 230.743 43.5061 230.526 43.2973 230.234C43.0918 229.943 42.989 229.575 42.989 229.131V221.534ZM55.1879 227.878V223.364H56.3612V231H55.1879V229.707H55.1084C54.9294 230.095 54.651 230.425 54.2732 230.697C53.8953 230.965 53.418 231.099 52.8413 231.099C52.3641 231.099 51.9398 230.995 51.5686 230.786C51.1974 230.574 50.9057 230.256 50.6936 229.832C50.4815 229.404 50.3754 228.866 50.3754 228.216V223.364H51.5487V228.136C51.5487 228.693 51.7045 229.137 52.0161 229.469C52.3309 229.8 52.732 229.966 53.2192 229.966C53.5108 229.966 53.8075 229.891 54.1091 229.742C54.414 229.593 54.6692 229.364 54.8747 229.056C55.0835 228.748 55.1879 228.355 55.1879 227.878ZM57.9502 233.864V223.364H59.0837V224.577H59.2229C59.3091 224.444 59.4284 224.275 59.5809 224.07C59.7366 223.861 59.9587 223.675 60.2471 223.513C60.5387 223.347 60.9331 223.264 61.4303 223.264C62.0733 223.264 62.6401 223.425 63.1306 223.746C63.6211 224.068 64.0039 224.524 64.279 225.114C64.5541 225.704 64.6917 226.4 64.6917 227.202C64.6917 228.01 64.5541 228.711 64.279 229.305C64.0039 229.895 63.6228 230.352 63.1356 230.677C62.6483 230.998 62.0866 231.159 61.4502 231.159C60.9597 231.159 60.5669 231.078 60.2719 230.915C59.9769 230.75 59.7499 230.562 59.5908 230.354C59.4317 230.142 59.3091 229.966 59.2229 229.827H59.1235V233.864H57.9502ZM59.1036 227.182C59.1036 227.759 59.1881 228.267 59.3572 228.708C59.5262 229.146 59.7731 229.489 60.0979 229.737C60.4227 229.982 60.8205 230.105 61.2911 230.105C61.7816 230.105 62.191 229.976 62.5191 229.717C62.8505 229.455 63.0991 229.104 63.2648 228.663C63.4339 228.219 63.5184 227.725 63.5184 227.182C63.5184 226.645 63.4355 226.161 63.2698 225.73C63.1074 225.296 62.8605 224.953 62.529 224.701C62.2009 224.446 61.7883 224.318 61.2911 224.318C60.8138 224.318 60.4128 224.439 60.088 224.681C59.7632 224.92 59.5179 225.254 59.3522 225.685C59.1865 226.113 59.1036 226.612 59.1036 227.182ZM68.805 231.159C68.1686 231.159 67.6068 230.998 67.1196 230.677C66.6324 230.352 66.2512 229.895 65.9761 229.305C65.701 228.711 65.5635 228.01 65.5635 227.202C65.5635 226.4 65.701 225.704 65.9761 225.114C66.2512 224.524 66.634 224.068 67.1246 223.746C67.6151 223.425 68.1819 223.264 68.8249 223.264C69.322 223.264 69.7148 223.347 70.0031 223.513C70.2948 223.675 70.5169 223.861 70.6693 224.07C70.8251 224.275 70.9461 224.444 71.0322 224.577H71.1317V220.818H72.305V231H71.1714V229.827H71.0322C70.9461 229.966 70.8234 230.142 70.6643 230.354C70.5053 230.562 70.2782 230.75 69.9832 230.915C69.6883 231.078 69.2955 231.159 68.805 231.159ZM68.9641 230.105C69.4347 230.105 69.8324 229.982 70.1572 229.737C70.482 229.489 70.729 229.146 70.898 228.708C71.067 228.267 71.1516 227.759 71.1516 227.182C71.1516 226.612 71.0687 226.113 70.903 225.685C70.7373 225.254 70.492 224.92 70.1672 224.681C69.8424 224.439 69.4413 224.318 68.9641 224.318C68.4669 224.318 68.0526 224.446 67.7212 224.701C67.393 224.953 67.1461 225.296 66.9804 225.73C66.818 226.161 66.7368 226.645 66.7368 227.182C66.7368 227.725 66.8196 228.219 66.9854 228.663C67.1544 229.104 67.403 229.455 67.7311 229.717C68.0625 229.976 68.4735 230.105 68.9641 230.105ZM76.3039 231.179C75.82 231.179 75.3809 231.088 74.9864 230.906C74.592 230.72 74.2788 230.453 74.0468 230.105C73.8148 229.754 73.6988 229.33 73.6988 228.832C73.6988 228.395 73.785 228.04 73.9573 227.768C74.1297 227.493 74.36 227.278 74.6484 227.122C74.9367 226.966 75.2549 226.85 75.6029 226.774C75.9542 226.695 76.3072 226.632 76.6619 226.585C77.1259 226.526 77.5021 226.481 77.7904 226.451C78.0821 226.418 78.2942 226.363 78.4268 226.287C78.5627 226.211 78.6306 226.078 78.6306 225.889V225.849C78.6306 225.359 78.4964 224.978 78.2279 224.706C77.9628 224.434 77.5601 224.298 77.0198 224.298C76.4597 224.298 76.0205 224.421 75.7024 224.666C75.3842 224.911 75.1604 225.173 75.0312 225.452L73.9176 225.054C74.1164 224.59 74.3816 224.229 74.713 223.97C75.0478 223.708 75.4123 223.526 75.8068 223.423C76.2045 223.317 76.5956 223.264 76.9801 223.264C77.2253 223.264 77.507 223.294 77.8252 223.354C78.1467 223.41 78.4566 223.528 78.7549 223.707C79.0565 223.886 79.3068 224.156 79.5056 224.517C79.7045 224.878 79.8039 225.362 79.8039 225.969V231H78.6306V229.966H78.571C78.4914 230.132 78.3588 230.309 78.1732 230.498C77.9876 230.687 77.7407 230.848 77.4325 230.98C77.1242 231.113 76.748 231.179 76.3039 231.179ZM76.4829 230.125C76.9469 230.125 77.338 230.034 77.6562 229.852C77.9777 229.669 78.2196 229.434 78.382 229.146C78.5478 228.857 78.6306 228.554 78.6306 228.236V227.162C78.5809 227.222 78.4715 227.276 78.3025 227.326C78.1368 227.372 77.9445 227.414 77.7258 227.45C77.5104 227.483 77.2999 227.513 77.0944 227.54C76.8922 227.563 76.7282 227.583 76.6022 227.599C76.2973 227.639 76.0122 227.704 75.7471 227.793C75.4853 227.879 75.2731 228.01 75.1107 228.186C74.9516 228.358 74.8721 228.594 74.8721 228.892C74.8721 229.3 75.0229 229.608 75.3245 229.817C75.6294 230.022 76.0156 230.125 76.4829 230.125ZM84.7064 223.364V224.358H80.7491V223.364H84.7064ZM81.9025 221.534H83.0758V228.812C83.0758 229.144 83.1238 229.393 83.2199 229.558C83.3194 229.721 83.4453 229.83 83.5978 229.886C83.7536 229.939 83.9176 229.966 84.09 229.966C84.2192 229.966 84.3253 229.959 84.4082 229.946C84.491 229.929 84.5573 229.916 84.607 229.906L84.8457 230.96C84.7661 230.99 84.6551 231.02 84.5126 231.05C84.37 231.083 84.1894 231.099 83.9707 231.099C83.6392 231.099 83.3144 231.028 82.9962 230.886C82.6814 230.743 82.4195 230.526 82.2107 230.234C82.0052 229.943 81.9025 229.575 81.9025 229.131V221.534ZM89.031 231.159C88.2952 231.159 87.6605 230.997 87.1269 230.672C86.5966 230.344 86.1873 229.886 85.8989 229.3C85.6139 228.71 85.4714 228.024 85.4714 227.241C85.4714 226.459 85.6139 225.77 85.8989 225.173C86.1873 224.573 86.5883 224.106 87.1021 223.771C87.6191 223.433 88.2223 223.264 88.9117 223.264C89.3094 223.264 89.7022 223.33 90.09 223.463C90.4778 223.596 90.8308 223.811 91.1489 224.109C91.4671 224.404 91.7207 224.795 91.9096 225.283C92.0985 225.77 92.193 226.37 92.193 227.082V227.58H86.3066V226.565H90.9998C90.9998 226.134 90.9136 225.75 90.7413 225.412C90.5722 225.074 90.3303 224.807 90.0154 224.612C89.7039 224.416 89.336 224.318 88.9117 224.318C88.4444 224.318 88.04 224.434 87.6987 224.666C87.3606 224.895 87.1004 225.193 86.9181 225.561C86.7358 225.929 86.6447 226.323 86.6447 226.744V227.42C86.6447 227.997 86.7441 228.486 86.943 228.887C87.1451 229.285 87.4252 229.588 87.7832 229.797C88.1411 230.002 88.5571 230.105 89.031 230.105C89.3393 230.105 89.6177 230.062 89.8663 229.976C90.1182 229.886 90.3353 229.754 90.5175 229.578C90.6998 229.399 90.8407 229.177 90.9401 228.912L92.0737 229.23C91.9543 229.615 91.7538 229.953 91.4721 230.244C91.1904 230.533 90.8424 230.758 90.4281 230.92C90.0138 231.08 89.5481 231.159 89.031 231.159ZM96.3013 231.159C95.6649 231.159 95.1031 230.998 94.6159 230.677C94.1287 230.352 93.7475 229.895 93.4725 229.305C93.1974 228.711 93.0598 228.01 93.0598 227.202C93.0598 226.4 93.1974 225.704 93.4725 225.114C93.7475 224.524 94.1304 224.068 94.6209 223.746C95.1114 223.425 95.6782 223.264 96.3212 223.264C96.8183 223.264 97.2111 223.347 97.4994 223.513C97.7911 223.675 98.0132 223.861 98.1656 224.07C98.3214 224.275 98.4424 224.444 98.5286 224.577H98.628V220.818H99.8013V231H98.6678V229.827H98.5286C98.4424 229.966 98.3198 230.142 98.1607 230.354C98.0016 230.562 97.7745 230.75 97.4796 230.915C97.1846 231.078 96.7918 231.159 96.3013 231.159ZM96.4604 230.105C96.931 230.105 97.3288 229.982 97.6536 229.737C97.9784 229.489 98.2253 229.146 98.3943 228.708C98.5634 228.267 98.6479 227.759 98.6479 227.182C98.6479 226.612 98.565 226.113 98.3993 225.685C98.2336 225.254 97.9883 224.92 97.6635 224.681C97.3387 224.439 96.9377 224.318 96.4604 224.318C95.9632 224.318 95.5489 224.446 95.2175 224.701C94.8894 224.953 94.6424 225.296 94.4767 225.73C94.3143 226.161 94.2331 226.645 94.2331 227.182C94.2331 227.725 94.316 228.219 94.4817 228.663C94.6507 229.104 94.8993 229.455 95.2274 229.717C95.5589 229.976 95.9698 230.105 96.4604 230.105ZM108.351 231.139C107.695 231.139 107.11 231.027 106.596 230.801C106.086 230.576 105.68 230.263 105.378 229.862C105.08 229.457 104.917 228.988 104.891 228.455H106.144C106.17 228.783 106.283 229.066 106.482 229.305C106.681 229.54 106.941 229.722 107.262 229.852C107.584 229.981 107.94 230.045 108.331 230.045C108.769 230.045 109.156 229.969 109.495 229.817C109.833 229.664 110.098 229.452 110.29 229.18C110.482 228.909 110.578 228.594 110.578 228.236C110.578 227.861 110.486 227.531 110.3 227.246C110.114 226.958 109.843 226.733 109.485 226.57C109.127 226.408 108.689 226.327 108.172 226.327H107.357V225.233H108.172C108.576 225.233 108.931 225.16 109.236 225.014C109.544 224.868 109.785 224.663 109.957 224.398C110.133 224.133 110.22 223.821 110.22 223.463C110.22 223.118 110.144 222.818 109.992 222.563C109.839 222.308 109.624 222.109 109.345 221.967C109.07 221.824 108.745 221.753 108.371 221.753C108.02 221.753 107.688 221.817 107.377 221.947C107.068 222.073 106.816 222.257 106.621 222.499C106.425 222.737 106.319 223.026 106.303 223.364H105.11C105.129 222.83 105.29 222.363 105.592 221.962C105.893 221.557 106.288 221.242 106.775 221.017C107.266 220.792 107.804 220.679 108.391 220.679C109.021 220.679 109.561 220.807 110.012 221.062C110.462 221.314 110.809 221.647 111.051 222.061C111.293 222.475 111.414 222.923 111.414 223.403C111.414 223.977 111.263 224.466 110.961 224.87C110.663 225.274 110.257 225.554 109.743 225.71V225.79C110.386 225.896 110.888 226.169 111.249 226.61C111.611 227.048 111.791 227.589 111.791 228.236C111.791 228.789 111.641 229.286 111.339 229.727C111.041 230.165 110.633 230.509 110.116 230.761C109.599 231.013 109.011 231.139 108.351 231.139ZM113.285 231V223.364H114.418V224.557H114.518C114.677 224.149 114.934 223.833 115.288 223.607C115.643 223.379 116.069 223.264 116.566 223.264C117.07 223.264 117.489 223.379 117.824 223.607C118.162 223.833 118.425 224.149 118.614 224.557H118.694C118.889 224.162 119.183 223.849 119.574 223.617C119.965 223.382 120.434 223.264 120.981 223.264C121.663 223.264 122.222 223.478 122.656 223.906C123.09 224.33 123.307 224.991 123.307 225.889V231H122.134V225.889C122.134 225.326 121.98 224.923 121.672 224.681C121.363 224.439 121.001 224.318 120.583 224.318C120.046 224.318 119.63 224.481 119.335 224.805C119.04 225.127 118.893 225.535 118.893 226.028V231H117.699V225.77C117.699 225.336 117.559 224.986 117.277 224.721C116.995 224.452 116.632 224.318 116.188 224.318C115.883 224.318 115.598 224.399 115.333 224.562C115.071 224.724 114.859 224.95 114.697 225.238C114.537 225.523 114.458 225.853 114.458 226.227V231H113.285Z" fill="#9A9A9A"/>
<defs>
<clipPath id="clip0_1033_2942">
<rect width="50" height="110" fill="white" transform="translate(60.5 59)"/>
</clipPath>
</defs>
</svg>
