<svg width="51" height="110" viewBox="0 0 51 110" fill="none" xmlns="http://www.w3.org/2000/svg">
<g clip-path="url(#clip0_1033_2944)">
<path d="M11.5406 5.35609L10.8354 5.23164C10.8602 4.78364 10.536 4.30204 11.12 3.97973C11.1905 3.94115 11.1657 3.70844 11.1657 3.56533C11.1657 2.7776 11.1892 1.98862 11.1571 1.20089C11.1336 0.617249 11.4119 0.288725 11.9303 0.168014C12.3501 0.0653763 12.78 0.0106827 13.212 0.00498499C16.0575 -0.00828906 18.903 -0.00828906 21.7484 0.00498499C22.9448 0.00498499 23.3914 0.444273 23.4285 1.62276C23.4421 2.03716 23.4174 2.4528 23.4458 2.8672C23.478 3.35005 23.5621 3.82915 23.6005 4.312C23.6252 4.6144 23.6005 4.92053 23.6005 5.24533L22.6887 5.33617C22.6887 5.9111 22.6528 6.46986 22.7072 7.01991C22.727 7.22897 22.9287 7.44302 23.0895 7.61351C25.549 10.2094 28.053 12.7655 30.463 15.4062C31.4258 16.4857 32.2876 17.6521 33.0376 18.8906C33.4186 19.5129 33.5943 20.3118 33.6562 21.0497C33.7588 22.1809 33.6871 23.3283 33.6908 24.4695C33.6908 25.0506 33.6747 25.6106 33.3196 26.1283C33.2108 26.2839 33.3196 26.6149 33.3679 26.8551C33.4693 27.3068 33.7106 27.7498 33.7118 28.1978C33.7242 33.9638 33.7147 39.7297 33.6834 45.4956C33.6754 45.8447 33.6063 46.1898 33.4792 46.5148C32.0132 50.4111 30.7835 54.3896 30.7241 58.5759C30.6797 61.1064 30.9091 63.6342 31.4082 66.1147C32.7691 72.6929 33.0277 79.3569 33.2961 86.0258C33.4916 90.8792 33.5634 95.7325 33.7291 100.577C33.7774 101.97 33.5312 103.287 32.8384 104.461C32.0851 105.743 31.2378 106.966 30.3034 108.121C29.9979 108.494 29.2828 108.533 28.7545 108.721C28.5071 108.807 28.2596 108.874 28.0122 108.97C27.667 109.094 27.3392 109.306 26.9841 109.378C25.2805 109.721 23.5696 109.96 21.8449 109.492C21.7295 109.465 21.6088 109.47 21.4961 109.507C19.357 110.178 17.208 110.11 15.0492 109.62C14.8564 109.57 14.6549 109.563 14.4591 109.599C12.4623 110.056 10.4828 109.732 8.50459 109.475C7.91075 109.398 7.27981 109.329 6.74783 109.079C5.51066 108.499 4.16586 108.095 3.32954 106.847C1.6705 104.371 0.622624 101.744 0.88614 98.6818C0.967793 97.7335 0.90965 96.7741 0.936868 95.8196C1.1843 87.2553 1.76164 78.7135 2.6689 70.194C2.98314 67.185 3.38522 64.1834 3.78235 61.1843C4.08017 59.0226 3.98838 56.8247 3.5114 54.6957C3.06726 52.7158 2.63178 50.7322 2.14187 48.7635C1.98351 48.1288 1.58266 47.5539 1.43915 46.9192C1.19172 45.8378 0.933155 44.7315 0.919546 43.6326C0.861399 39.0083 0.893568 34.3827 0.891094 29.7584C0.891094 29.0951 0.846556 28.428 0.891094 27.7672C0.918665 27.3836 1.02839 27.0104 1.21275 26.6734C1.39833 26.3486 1.31296 26.1843 1.11997 25.918C0.888616 25.6007 0.64985 25.2149 0.616447 24.8403C0.517691 23.7257 0.476397 22.6067 0.49273 21.4878C0.49273 21.0933 0.696853 20.6914 0.853973 20.3118C1.74597 18.1651 3.285 16.4739 4.79434 14.774C6.90865 12.3934 9.07987 10.0626 11.2103 7.69565C11.3858 7.48044 11.492 7.21648 11.5146 6.93901C11.574 6.43004 11.5406 5.91111 11.5406 5.35609ZM5.30529 42.83C5.29609 42.9277 5.29609 43.026 5.30529 43.1237C5.88552 45.6238 6.3841 48.1475 7.08557 50.614C7.44187 51.8671 7.73137 53.1029 7.69178 54.3896C7.52724 59.7158 7.45549 65.047 7.13754 70.3645C6.58947 79.5535 5.87934 88.7337 5.25581 97.9177C5.2187 98.459 5.06157 98.8112 4.60135 99.1323C3.1984 100.114 2.94973 100.83 3.36418 102.484C3.4112 102.669 3.6512 102.94 3.80461 102.943C5.04177 102.963 5.77047 103.722 6.32101 104.692C6.73793 105.429 7.06331 106.218 7.43446 106.98C7.8786 107.877 8.24974 107.988 9.07988 107.409C9.24444 107.283 9.4454 107.213 9.65247 107.212C9.85955 107.21 10.0615 107.276 10.228 107.4C10.494 107.571 10.6845 107.858 10.9096 108.096C11.6322 107.847 11.866 108.005 12.0614 108.783C12.1109 108.981 12.2792 109.288 12.4128 109.299C12.8842 109.338 13.363 109.268 13.869 109.238C12.9572 106.797 12.9411 106.08 13.7019 105.513C13.838 106.054 13.9061 106.645 14.1337 107.165C14.4974 107.998 15.1234 108.772 16.0031 108.891C17.1499 109.047 18.3413 108.891 19.5129 108.833C19.9818 108.812 20.2923 108.544 20.4804 108.086C20.7311 107.45 21.0246 106.832 21.3587 106.236C21.5344 105.931 21.8647 105.717 22.1245 105.46L22.2582 105.575C22.0887 106.336 21.9056 107.097 21.7633 107.862C21.7286 108.04 21.7522 108.36 21.8487 108.41C22.4895 108.718 23.139 109.115 23.8207 109.2C24.6224 109.298 25.4575 109.1 26.2802 109.048C26.6513 109.023 26.7961 108.827 26.879 108.477C27.3615 106.432 28.0555 104.495 29.7405 103.097C29.832 103.012 29.9149 102.918 29.988 102.816C30.7216 101.895 30.6956 101.253 29.8741 100.436C29.503 100.063 29.2172 99.6811 29.2147 99.0962C29.1982 95.343 29.1653 91.5893 29.1158 87.8353C29.07 84.4566 29.1863 81.0593 28.8807 77.703C28.5096 73.6834 27.7672 69.7 27.2056 65.6979C26.9804 64.0801 26.5462 62.4287 26.686 60.8346C27.0468 56.5365 27.7116 52.2697 28.6753 48.0666C29.0613 46.4077 29.2061 44.6917 29.4782 42.8897C21.4332 43.5518 13.347 43.5318 5.30529 42.83ZM5.48592 27.9465C13.8158 28.1953 21.9402 28.1107 30.0919 27.8743C30.1067 27.7 30.1203 27.6005 30.1216 27.5009C30.1414 25.5733 30.1673 23.6432 30.1785 21.718C30.1909 19.478 29.618 17.4608 27.9763 15.838C27.5787 15.4159 27.2069 14.97 26.8629 14.5027C25.3263 12.5548 23.7922 10.6051 22.2606 8.65386C21.9006 8.19715 21.4429 8.02044 20.8565 8.03164C18.5491 8.08639 16.2406 8.09635 13.9283 8.15608C13.6337 8.18598 13.3609 8.32584 13.1638 8.54809C11.6606 10.3102 10.1364 12.0562 8.71987 13.8867C7.672 15.2395 6.74041 16.693 5.82614 18.1402C5.56502 18.5605 5.42102 19.0436 5.40922 19.539C5.40303 22.3116 5.45747 25.0892 5.48592 27.9465ZM5.85088 42.372C13.9927 43.0353 22.0652 43.0776 30.1228 42.3185V28.4878H5.6084C5.68882 33.1383 5.77418 37.7228 5.85088 42.372ZM6.80349 107.207L7.01258 107.11C6.51771 106.212 6.06862 105.291 5.52798 104.422C5.14075 103.8 4.53825 103.479 3.76379 103.437C3.48419 103.422 3.08458 103.166 2.97571 102.915C2.34847 101.487 2.76787 99.9362 3.96544 98.973C4.07926 98.8822 4.22896 98.8187 4.30319 98.7042C4.47144 98.4491 4.70897 98.1778 4.73248 97.8966C5.05291 93.9492 5.39065 90.0031 5.62942 86.0495C6.17625 76.985 6.69215 67.9179 7.17712 58.8484C7.35651 55.4884 7.30083 52.172 6.07852 48.9253C5.41663 47.1619 5.24343 45.2131 4.82527 43.3539C4.77702 43.1361 4.60011 42.8026 4.44299 42.7777C3.45326 42.6184 2.45115 42.5288 1.25729 42.4044C1.41317 43.7733 1.55545 45.0613 1.71133 46.3455C1.7505 46.4849 1.80704 46.6187 1.87959 46.7437C2.0998 47.2776 2.37445 47.7953 2.52662 48.3491C2.91014 49.7466 3.26892 51.1528 3.57945 52.569C4.18566 55.3478 4.65331 58.1217 4.30938 61.0088C3.58564 67.0804 2.90519 73.1595 2.35342 79.2486C1.74473 85.9823 1.46389 92.7359 1.36368 99.5007C1.31915 102.447 2.54518 104.827 4.13246 107.117C4.25527 107.313 4.43639 107.465 4.65007 107.551C4.86374 107.638 5.09908 107.654 5.32261 107.598C5.1692 106.976 5.00343 106.397 4.89579 105.81C4.86115 105.62 4.97992 105.401 5.0294 105.195C5.26941 105.262 5.56138 105.269 5.73706 105.415C5.94738 105.591 6.06615 105.882 6.20966 106.132C6.41627 106.483 6.60678 106.847 6.80349 107.206V107.207ZM29.9212 42.8574C29.7455 44.286 29.6292 45.6698 29.3991 47.035C28.7706 50.7683 28.0555 54.4941 27.4567 58.2349C27.2427 59.574 27.0856 60.9727 27.2167 62.3068C27.4555 64.716 27.9677 67.0954 28.3029 69.4972C28.7273 72.5323 29.3236 75.5688 29.4288 78.6202C29.6613 85.3115 29.6391 92.0116 29.6947 98.7079C29.6947 99.319 29.863 99.7645 30.3022 100.181C31.1682 101.008 31.2523 101.915 30.536 102.891C30.1639 103.36 29.7596 103.803 29.3261 104.216C28.5937 104.963 27.7685 106.675 27.8143 107.458C28.0637 107.166 28.2979 106.861 28.5157 106.544C28.7768 106.124 28.9574 105.649 29.2382 105.245C29.3768 105.045 29.6626 104.949 29.8816 104.806C29.936 105.047 30.0721 105.303 30.0276 105.526C29.9041 106.05 29.7512 106.567 29.5698 107.073C29.4609 107.412 29.3323 107.743 29.2123 108.077L29.3657 108.189C29.5945 108.039 29.8915 107.94 30.0412 107.73C30.8342 106.624 31.6495 105.529 32.3448 104.358C33.04 103.187 33.2961 101.875 33.2454 100.48C33.0339 94.5751 32.9163 88.6653 32.6677 82.7629C32.4425 77.4417 32.1085 72.1366 31.0507 66.8838C30.5011 64.1394 30.2329 61.3455 30.2502 58.5461C30.2775 54.3834 31.5134 50.4198 32.9584 46.5397C33.4533 45.1957 33.1068 43.8168 33.217 42.433L29.9212 42.8574ZM20.4309 7.47164C22.2087 7.72053 22.2124 7.72053 23.3506 9.13795C23.7143 9.58844 24.0607 10.0539 24.4182 10.5068C25.7791 12.2304 27.0645 14.0099 28.5009 15.6588C29.8172 17.1646 30.5781 18.8458 30.6177 20.827C30.661 22.9189 30.6177 25.0133 30.6103 27.1065C30.6103 27.3454 30.6362 27.5831 30.6461 27.7486H33.3097C33.1031 27.3939 32.925 27.1786 32.8495 26.9322C32.7741 26.6858 32.6639 26.2988 32.7839 26.1196C33.2899 25.3729 33.2281 24.5417 33.217 23.7228C33.1613 19.5527 33.7972 20.1662 30.6078 16.3806C28.1087 13.4114 25.309 10.6985 22.6454 7.8711C22.492 7.70808 22.2384 7.5351 22.2297 7.35715C22.1852 6.51964 22.2099 5.67964 22.2099 4.85084L23.0388 4.75129L23.0252 4.6592H11.3464L11.3377 4.76373L12.0206 4.89937C12.0206 5.60124 11.9959 6.26826 12.0281 6.92284C12.0503 7.39697 11.8821 7.7392 11.5629 8.07893C9.99291 9.7527 8.41428 11.419 6.89628 13.1388C5.41911 14.8126 3.92709 16.4889 2.60704 18.2821C1.87124 19.2756 1.33272 20.4025 1.02099 21.601C0.773554 22.5866 1.00986 23.7017 1.09275 24.7545C1.12936 25.0774 1.27371 25.3783 1.50225 25.6081C1.98103 26.0649 1.93897 26.4793 1.59751 26.977C1.45895 27.1774 1.41193 27.4412 1.26842 27.8257H5.069C5.069 27.425 5.08013 27.0119 5.069 26.6C5.00467 24.7333 4.98363 22.8666 4.85126 21.0149C4.72754 19.2602 5.23725 17.737 6.29008 16.3881C8.28563 13.8283 10.3096 11.2859 12.3274 8.74969C12.5848 8.42613 12.8223 8.02418 13.1662 7.84996C13.6351 7.61102 13.5918 7.26756 13.5918 6.88676V4.97031L20.5793 5.4544C20.5336 6.08907 20.4828 6.76355 20.4309 7.47039V7.47164ZM1.40698 41.9141L5.35354 42.3322C5.27189 37.6519 5.19147 33.0798 5.10611 28.4094H1.40698V41.9141ZM30.6968 28.3409V42.2588L33.1996 41.9128V28.3409H30.6968ZM22.9423 4.06062C22.9423 3.23431 22.9213 2.45281 22.9423 1.6713C22.9609 1.12623 22.7951 0.924623 22.2 0.933334C19.9731 0.969423 17.7536 0.947021 15.5305 0.947021H14.7721V4.05813L22.9423 4.06062ZM20.0585 5.93351L14.1399 5.51787V7.0224H19.9447C19.9855 6.63164 20.0214 6.28818 20.0585 5.93351ZM12.7481 0.533873V4.05813H14.2141V0.533873H12.7481ZM11.454 108.453C10.8218 108.858 10.5249 108.53 10.2008 108.08C10.077 107.897 9.66383 107.776 9.43124 107.831C8.93638 107.955 8.46006 108.204 7.96643 108.406C8.14334 109.052 10.0461 109.516 11.6 109.182C11.5567 108.961 11.5146 108.749 11.454 108.447V108.453ZM12.1963 1.04783L12.0083 0.955741C11.8845 1.0889 11.6792 1.21831 11.673 1.3552C11.6421 2.184 11.6495 3.01404 11.673 3.84409C11.673 3.92995 11.8437 4.0768 11.9353 4.07555C11.9935 4.0602 12.0469 4.03005 12.0902 3.98799C12.1335 3.94593 12.1654 3.89339 12.1827 3.83538C12.2074 2.89832 12.2 1.96995 12.2 1.0416L12.1963 1.04783ZM7.00021 108.289L5.50325 106.004C5.47974 107.156 6.10945 108.106 6.99897 108.283L7.00021 108.289ZM29.19 106.58L27.3231 108.717C28.6506 108.243 28.7397 108.141 29.1888 106.574L29.19 106.58ZM21.1756 108.054L19.8853 109.482L21.3971 109.058C21.2956 108.605 21.2276 108.295 21.1756 108.054ZM13.8974 107.916L13.8392 107.968L14.4257 109.077L14.97 108.921L13.8974 107.916Z" fill="#C9CBCE"/>
<path d="M5.30542 43C13.3447 43.7018 21.4283 43.7222 29.471 43.061C29.1988 44.8629 29.054 46.579 28.668 48.2379C27.7043 52.4409 27.0395 56.7077 26.6787 61.0058C26.5389 62.6 26.9731 64.2513 27.1983 65.8691C27.7563 69.8712 28.5072 73.8547 28.8734 77.8743C29.179 81.2342 29.0627 84.6278 29.1085 88.0065C29.1596 91.7597 29.1926 95.5134 29.2074 99.2675C29.2074 99.8524 29.4908 100.233 29.8669 100.608C30.6883 101.424 30.7143 102.066 29.9807 102.987C29.9076 103.089 29.8247 103.183 29.7332 103.268C28.0482 104.668 27.3542 106.603 26.8717 108.648C26.7888 108.998 26.6453 109.194 26.2729 109.219C25.4502 109.272 24.6151 109.468 23.8134 109.371C23.1317 109.286 22.4822 108.889 21.8414 108.581C21.7449 108.535 21.7177 108.208 21.756 108.033C21.9045 107.268 22.0876 106.508 22.2509 105.746L22.1173 105.632C21.8574 105.888 21.5271 106.102 21.3515 106.407C21.0173 107.003 20.7238 107.621 20.4731 108.257C20.285 108.714 19.9782 108.982 19.5056 109.004C18.334 109.057 17.1426 109.218 15.9958 109.062C15.1186 108.938 14.4901 108.169 14.1264 107.336C13.8988 106.816 13.8307 106.225 13.6946 105.684C12.9338 106.251 12.9523 106.968 13.8617 109.41C13.3557 109.44 12.8719 109.509 12.4055 109.471C12.2719 109.459 12.1036 109.152 12.0542 108.954C11.8587 108.176 11.6249 108.023 10.9024 108.267C10.6772 108.03 10.4867 107.742 10.2207 107.572C10.0542 107.448 9.85227 107.382 9.64519 107.383C9.43812 107.385 9.23716 107.454 9.0726 107.58C8.24246 108.159 7.8713 108.048 7.42716 107.151C7.05601 106.389 6.72816 105.6 6.31371 104.864C5.76318 103.893 5.0382 103.134 3.79733 103.114C3.64392 103.114 3.4039 102.84 3.35689 102.655C2.94615 101.001 3.19482 100.29 4.59405 99.3036C5.05428 98.9825 5.21264 98.6303 5.24852 98.089C5.8671 88.905 6.58218 79.7247 7.13024 70.5358C7.44819 65.2183 7.51994 59.8871 7.68449 54.5609C7.72408 53.2691 7.43707 52.0384 7.07829 50.7852C6.37682 48.3187 5.87824 45.795 5.29801 43.2949C5.2912 43.1966 5.29368 43.0979 5.30542 43ZM6.65889 98.8307C6.74425 99.1393 6.80488 99.3521 6.86302 99.5636C7.04984 100.244 7.35788 100.874 6.84075 101.614C6.6428 101.902 6.82961 102.538 6.99292 102.955C7.04983 103.102 7.56077 103.065 7.85893 103.12C7.95418 103.147 8.04758 103.18 8.13853 103.219C7.60655 103.725 7.60284 103.896 8.09276 104.339C8.24493 104.478 8.41071 104.602 8.56041 104.745C9.07631 105.235 9.49076 105.292 10.1081 104.946C10.6624 104.637 10.6846 104.307 10.1811 103.94C10.0742 103.88 9.98303 103.794 9.9151 103.691C9.46477 102.678 8.94888 101.685 8.61114 100.635C8.29813 99.6557 7.64738 99.1754 6.65889 98.8307ZM23.9965 103.35C24.1846 103.176 24.5223 102.905 24.8118 102.59C25.204 102.165 25.0172 101.478 24.4641 101.384C24.1843 101.363 23.9055 101.438 23.6736 101.597C22.9449 102.074 22.6195 102.799 22.6307 103.655C22.6307 103.868 22.8954 104.072 22.9128 104.29C22.9437 104.68 23.0674 105.001 23.472 104.912C23.7899 104.846 24.2142 104.634 24.3145 104.377C24.4147 104.121 24.1363 103.755 23.9965 103.35ZM10.7687 104.658C10.791 104.896 10.7687 104.998 10.812 105.057C10.9798 105.316 11.1738 105.558 11.391 105.777C11.448 105.831 11.7882 105.721 11.7968 105.653C11.8217 105.379 11.8151 105.103 11.777 104.831C11.7682 104.727 11.7215 104.63 11.6459 104.558C11.4714 104.421 11.2475 104.197 11.0916 104.23C10.9358 104.264 10.8294 104.571 10.7687 104.658Z" fill="#FFFF00" fill-opacity="0.9"/>
<path d="M5.48541 27.9464C5.45695 25.0842 5.40746 22.3166 5.4186 19.5452C5.4304 19.0498 5.5744 18.5667 5.83552 18.1464C6.75597 16.6992 7.68137 15.2456 8.72925 13.8929C10.1458 12.0624 11.67 10.3164 13.1731 8.55427C13.3703 8.33203 13.6431 8.19218 13.9377 8.16229C16.245 8.09758 18.5536 8.08762 20.8658 8.03784C21.4522 8.02415 21.91 8.20087 22.27 8.66006C23.8033 10.6105 25.3374 12.5601 26.8723 14.5089C27.2163 14.9762 27.5881 15.4222 27.9857 15.8442C29.6274 17.462 30.2002 19.4842 30.1879 21.7242C30.1767 23.6519 30.1508 25.582 30.131 27.5071C30.131 27.6067 30.1161 27.7063 30.1013 27.8805C21.9409 28.1107 13.8152 28.2003 5.48541 27.9464Z" fill="white" fill-opacity="0.2"/>
<path d="M5.85095 42.372C5.7693 37.7228 5.68888 33.132 5.60352 28.4878H30.1179V42.3185C22.0652 43.0776 13.9927 43.0353 5.85095 42.372Z" fill="#F4F6FA" fill-opacity="0.2"/>
<path d="M6.80349 107.206C6.60678 106.847 6.41627 106.483 6.21214 106.129C6.06863 105.88 5.94985 105.587 5.73953 105.412C5.56386 105.265 5.27189 105.259 5.03188 105.191C4.98239 105.397 4.86363 105.616 4.89827 105.806C5.0059 106.394 5.17168 106.97 5.32509 107.594C5.10156 107.65 4.86622 107.634 4.65254 107.547C4.43887 107.461 4.25775 107.309 4.13493 107.113C2.54765 104.823 1.32162 102.444 1.36616 99.4969C1.46884 92.7321 1.74968 85.9785 2.35589 79.2449C2.90767 73.1558 3.59306 67.0767 4.31186 61.0051C4.65579 58.118 4.18814 55.3441 3.58193 52.5652C3.27387 51.1491 2.91262 49.7428 2.5291 48.3453C2.37816 47.7916 2.10228 47.2739 1.88206 46.74C1.80951 46.6149 1.75298 46.4811 1.71381 46.3418C1.55793 45.0575 1.41565 43.772 1.25977 42.4007C2.45363 42.5251 3.45573 42.6172 4.44546 42.774C4.60258 42.7989 4.77949 43.1324 4.82774 43.3502C5.24591 45.2094 5.41911 47.1581 6.08099 48.9215C7.2996 52.1683 7.35898 55.4872 7.17959 58.8447C6.6938 67.9134 6.1779 76.9804 5.6319 86.0457C5.39313 89.9993 5.05538 93.9454 4.73496 97.8928C4.71145 98.1741 4.47392 98.4454 4.30566 98.7005C4.23143 98.815 4.08174 98.8784 3.96792 98.9693C2.76787 99.9325 2.34847 101.483 2.97819 102.912C3.08706 103.161 3.48666 103.418 3.76626 103.433C4.53949 103.475 5.14323 103.793 5.53046 104.419C6.06863 105.29 6.52019 106.208 7.01506 107.107L6.80349 107.206Z" fill="#FFFF00" fill-opacity="0.9"/>
<path d="M29.9214 42.856L33.2172 42.4316C33.1071 43.8192 33.4646 45.198 32.9586 46.5383C31.5136 50.4185 30.2777 54.3783 30.2505 58.5447C30.2331 61.3442 30.5013 64.138 31.0509 66.8824C32.1087 72.1352 32.4427 77.4403 32.6679 82.7615C32.9153 88.6639 33.0391 94.5738 33.2457 100.479C33.2964 101.874 33.0378 103.182 32.345 104.356C31.6522 105.531 30.8344 106.622 30.0414 107.729C29.8917 107.937 29.5948 108.037 29.3659 108.188L29.2125 108.076C29.3362 107.741 29.4599 107.41 29.57 107.072C29.7515 106.565 29.9043 106.049 30.0278 105.525C30.0723 105.303 29.9362 105.046 29.8818 104.804C29.6628 104.947 29.377 105.043 29.2385 105.244C28.9576 105.648 28.777 106.122 28.516 106.543C28.2981 106.859 28.064 107.164 27.8145 107.456C27.7687 106.673 28.5939 104.967 29.3263 104.214C29.7599 103.802 30.1642 103.359 30.5363 102.889C31.2526 101.913 31.1746 101.006 30.3024 100.18C29.8632 99.7631 29.6999 99.3176 29.695 98.7066C29.6393 92.0102 29.6616 85.3101 29.429 78.6188C29.3238 75.5674 28.7275 72.531 28.3032 69.4958C27.9679 67.094 27.4557 64.7146 27.2169 62.3054C27.0833 60.9676 27.2429 59.5676 27.457 58.2336C28.0557 54.4915 28.7708 50.7669 29.3993 47.0336C29.6294 45.6684 29.7457 44.2846 29.9214 42.856Z" fill="#FFFF00" fill-opacity="0.9"/>
<path d="M20.4305 7.4701C20.4824 6.76326 20.5332 6.08877 20.5802 5.45162L13.5926 4.96753V6.88397C13.5926 7.26477 13.636 7.60824 13.1671 7.84717C12.8244 8.02139 12.5856 8.42335 12.3283 8.7469C10.3105 11.2881 8.28646 13.8255 6.29092 16.3853C5.23809 17.7343 4.7259 19.2575 4.85209 21.0121C4.98447 22.8701 5.0055 24.7342 5.06983 26.5972C5.08344 27.0091 5.06983 27.4223 5.06983 27.823H1.26925C1.41276 27.4384 1.45978 27.1746 1.59834 26.9742C1.9398 26.4765 1.98186 26.0633 1.50308 25.6054C1.27454 25.3756 1.1302 25.0746 1.09359 24.7517C1.0107 23.6989 0.776863 22.5839 1.02182 21.5983C1.33356 20.3997 1.87207 19.2728 2.60787 18.2793C3.93288 16.4861 5.41994 14.8098 6.89711 13.1361C8.41511 11.4162 9.99004 9.74992 11.5637 8.07614C11.8829 7.73641 12.0512 7.39419 12.0289 6.92005C11.9967 6.2605 12.0215 5.59847 12.0215 4.8966L11.341 4.76469L11.3497 4.66016H23.0285L23.0421 4.75224L22.2132 4.85179C22.2132 5.68059 22.1885 6.52059 22.233 7.3581C22.2417 7.53605 22.4953 7.70903 22.6487 7.87205C25.3123 10.6994 28.112 13.4123 30.6111 16.3816C33.8005 20.1696 33.1646 19.5561 33.2203 23.7238C33.2314 24.5426 33.2933 25.3702 32.7873 26.1206C32.6635 26.2998 32.7724 26.6731 32.8528 26.9332C32.9332 27.1933 33.1003 27.3949 33.313 27.7495H30.6494C30.6395 27.584 30.6136 27.3463 30.6136 27.1074C30.6136 25.0143 30.6643 22.9198 30.621 20.8279C30.5814 18.8468 29.8205 17.1656 28.5042 15.6598C27.0641 14.0109 25.7725 12.2313 24.4215 10.5078C24.064 10.0523 23.7176 9.5869 23.3539 9.1389C22.212 7.72148 22.2083 7.72148 20.4305 7.4701Z" fill="#F4F6FA" fill-opacity="0.2"/>
<path d="M1.40723 41.9139V28.4092H5.11007C5.19172 33.0796 5.27213 37.6517 5.3575 42.332L1.40723 41.9139Z" fill="#F4F6FA" fill-opacity="0.2"/>
<path d="M30.6963 28.3408H33.1991V41.9127L30.6963 42.2587V28.3408Z" fill="white" fill-opacity="0.2"/>
<path d="M22.942 4.06061H14.7842V0.949505H15.5475C17.7744 0.949505 20.0013 0.971907 22.2171 0.935818C22.806 0.925863 22.9717 1.12871 22.9594 1.67378C22.921 2.4528 22.942 3.2343 22.942 4.06061Z" fill="#F4F6FA" fill-opacity="0.2"/>
<path d="M20.0582 5.9335C20.0211 6.28817 19.9853 6.63537 19.9444 7.02239H14.1396V5.51786L20.0582 5.9335Z" fill="#F4F6FA" fill-opacity="0.2"/>
<path d="M12.748 0.533867H14.2141V4.05812H12.748V0.533867Z" fill="#F4F6FA" fill-opacity="0.2"/>
<path d="M11.4534 108.447C11.514 108.75 11.5561 108.961 11.5994 109.171C10.0455 109.505 8.14273 109.041 7.96582 108.395C8.46069 108.192 8.92958 107.939 9.43063 107.82C9.66322 107.765 10.0702 107.886 10.2001 108.069C10.5243 108.524 10.8212 108.852 11.4534 108.447Z" fill="#FFFF00"/>
<path d="M12.1997 1.04159C12.1997 1.96995 12.2071 2.89955 12.1885 3.8279C12.1712 3.88591 12.1393 3.93847 12.096 3.98053C12.0527 4.02258 11.9993 4.05273 11.9411 4.06809C11.8495 4.06809 11.6801 3.92249 11.6788 3.83662C11.6578 3.00782 11.6504 2.17778 11.6788 1.34774C11.6788 1.21085 11.8966 1.08142 12.0141 0.948261L12.1997 1.04159Z" fill="#F4F6FA" fill-opacity="0.2"/>
<path d="M6.99852 108.283C6.10899 108.106 5.47928 107.157 5.50155 105.998L6.99852 108.283Z" fill="#FFFF00"/>
<path d="M29.1882 106.574C28.7391 108.141 28.65 108.243 27.3213 108.711L29.1882 106.574Z" fill="#FFFF00"/>
<path d="M21.1751 108.054C21.2271 108.29 21.2988 108.6 21.3966 109.058L19.8848 109.482L21.1751 108.054Z" fill="#FFFF00"/>
<path d="M13.897 107.921L14.9696 108.926L14.4253 109.082L13.8389 107.973L13.897 107.921Z" fill="#FFFF00"/>
<path d="M6.6582 98.6606C7.64793 99.0054 8.29744 99.4857 8.61415 100.473C8.9519 101.523 9.4678 102.516 9.91813 103.529C9.98606 103.632 10.0772 103.717 10.1841 103.778C10.6876 104.145 10.6654 104.475 10.1111 104.783C9.49255 105.129 9.07934 105.072 8.56344 104.583C8.41374 104.44 8.24796 104.315 8.09579 104.176C7.60092 103.731 7.60958 103.56 8.14156 103.056C8.05061 103.017 7.95721 102.984 7.86196 102.958C7.56009 102.903 7.04914 102.939 6.99595 102.792C6.83264 102.375 6.64583 101.739 6.84378 101.452C7.35473 100.711 7.05285 100.083 6.86604 99.4011C6.80418 99.1821 6.74357 98.9693 6.6582 98.6606ZM7.18028 102.394L8.77127 102.582C8.41992 101.604 8.07476 100.647 7.72959 99.6886C7.59474 100.272 7.56629 100.784 7.48216 101.286C7.40123 101.662 7.30045 102.032 7.18028 102.396V102.394ZM9.84762 104.32L9.09047 102.976L8.26404 103.723C8.83932 103.913 9.04593 104.877 9.84762 104.32Z" fill="#C9CBCE"/>
<path d="M23.996 103.18C24.1358 103.585 24.408 103.969 24.3139 104.209C24.2199 104.45 23.7894 104.678 23.4714 104.744C23.0669 104.83 22.9432 104.509 22.9122 104.122C22.8949 103.904 22.6326 103.7 22.6302 103.488C22.619 102.631 22.9444 101.906 23.6731 101.429C23.905 101.27 24.1837 101.195 24.4636 101.216C25.0166 101.31 25.2059 101.997 24.8113 102.422C24.5218 102.735 24.184 103.006 23.996 103.18ZM23.151 102.72L23.3737 102.969C23.7077 102.705 24.0554 102.456 24.3634 102.167C24.4451 102.093 24.4129 101.895 24.4327 101.753C24.2855 101.763 24.0851 101.715 24.0009 101.794C23.6978 102.08 23.4318 102.41 23.151 102.72Z" fill="#C9CBCE"/>
<path d="M10.7686 104.488C10.8292 104.401 10.9319 104.101 11.0915 104.066C11.251 104.032 11.4713 104.257 11.6457 104.394C11.7213 104.466 11.768 104.563 11.7768 104.668C11.8149 104.94 11.8216 105.215 11.7966 105.489C11.788 105.551 11.4478 105.661 11.3909 105.613C11.1736 105.394 10.9796 105.152 10.8119 104.893C10.7698 104.828 10.7908 104.726 10.7686 104.488Z" fill="#C9CBCE"/>
<path d="M7.18066 102.396C7.30117 102.033 7.40234 101.663 7.48376 101.289C7.56665 100.791 7.59511 100.275 7.7312 99.691C8.07637 100.649 8.42154 101.606 8.77289 102.584L7.18066 102.396Z" fill="#FCEB00"/>
<path d="M9.84822 104.32C9.04654 104.873 8.83993 103.909 8.26465 103.72L9.09108 102.974L9.84822 104.32Z" fill="#FCEB00"/>
<path d="M23.1514 102.72C23.4322 102.41 23.6982 102.083 24.0038 101.799C24.0879 101.721 24.2883 101.768 24.4355 101.758C24.4157 101.9 24.4479 102.098 24.3663 102.172C24.0557 102.461 23.7081 102.71 23.3765 102.974L23.1514 102.72Z" fill="#FCEB00"/>
</g>
<defs>
<clipPath id="clip0_1033_2944">
<rect width="50" height="110" fill="white" transform="translate(0.5)"/>
</clipPath>
</defs>
</svg>
