<svg width="64" height="64" viewBox="0 0 64 64" fill="none" xmlns="http://www.w3.org/2000/svg">
<rect width="64" height="64" rx="32" fill="#8DFF48" fill-opacity="0.05"/>
<g clip-path="url(#clip0_1033_2999)">
<path d="M29.9863 22.3322C29.843 22.3509 29.7116 22.4255 29.627 22.5429C29.2303 23.0915 28.9903 23.7435 28.8996 24.4095C28.8623 24.6795 28.6265 24.8722 28.3543 24.8675C28.0548 24.8624 27.7907 24.5753 27.8443 24.2568C28.0617 22.6849 28.975 21.1789 30.453 20.5203C30.7216 20.4003 30.8423 20.0849 30.7223 19.8156C30.6023 19.5469 30.287 19.4256 30.0183 19.5456C29.4263 19.8096 28.8936 20.1883 28.4383 20.6556C28.193 18.487 26.351 16.795 24.1197 16.7857C23.2211 16.7823 22.4671 17.5216 22.4671 18.4203C22.4671 20.6718 24.1896 22.5685 26.4524 22.7675C26.7764 22.7962 27.0017 23.1042 26.9224 23.4195C26.8854 23.6417 26.649 23.8569 26.357 23.8315C25.1081 23.7224 23.9775 23.1886 23.1138 22.3762C23.0084 22.2769 22.8671 22.2249 22.7224 22.2316C19.0338 22.397 16.871 24.4909 16.2052 28.0194C15.5312 31.5814 16.5737 35.9764 18.5078 38.8586C19.9567 41.0169 21.9315 42.4498 24.5129 42.0695C24.6981 42.0422 24.8534 41.9163 24.9245 41.7431C26.8736 36.9984 29.8897 32.7272 33.7349 29.2914C34.951 28.2015 36.3666 27.6293 37.8643 27.5977C38.2198 27.5903 38.4633 27.2403 38.3569 26.901C37.1417 23.0277 33.9478 21.8148 29.9863 22.3322ZM21.7578 26.8868C20.0745 28.2648 20.0138 31.3101 20.7005 33.716C20.7811 33.9993 20.6171 34.294 20.3338 34.3753C20.0525 34.4562 19.7564 34.2931 19.6745 34.0087C18.9155 31.3469 18.9494 27.8074 21.0818 26.0615C21.3098 25.8748 21.6458 25.9082 21.8324 26.1361C22.0191 26.3641 21.9851 26.7001 21.7578 26.8868Z" fill="#8DFF48"/>
<path d="M47.4713 31.3854C46.1933 31.3747 45.0234 31.6101 43.906 32.1061C43.76 31.9001 43.604 31.7001 43.4407 31.5067C43.8387 30.9001 44.104 30.2468 44.2327 29.5601C44.2874 29.2708 44.096 28.9921 43.8067 28.9381C43.5174 28.8841 43.2387 29.0741 43.1847 29.3641C43.0967 29.8321 42.9281 30.2821 42.6801 30.7088C40.349 28.5392 37.3894 27.8935 34.791 29.8206C34.4994 30.0369 34.5023 30.4749 34.7987 30.6847C35.6011 31.2526 36.4018 31.8812 37.1316 32.5776C37.481 32.9109 37.2404 33.4968 36.7634 33.4968C36.6311 33.4968 36.4986 33.4478 36.3954 33.3493C35.5919 32.5826 34.688 31.8961 33.7922 31.2835C33.5798 31.1383 33.2945 31.1661 33.1124 31.348C32.5428 31.9169 31.9947 32.5056 31.4695 33.113C31.2683 33.3456 31.3046 33.7015 31.5504 33.8863C32.4819 34.5865 33.3362 35.3675 34.1181 36.2344C34.298 36.4339 34.3152 36.7379 34.1424 36.9436C33.9296 37.1972 33.5502 37.1978 33.3357 36.9596C32.5707 36.11 31.7416 35.3584 30.8471 34.6923C30.6126 34.5177 30.2806 34.5683 30.1044 34.8015C29.5764 35.5005 29.0767 36.2202 28.6062 36.9583C28.4613 37.1857 28.5084 37.4837 28.7147 37.6572C29.0253 37.9185 29.3314 38.1976 29.6322 38.4968C29.8259 38.6895 29.862 38.9995 29.6946 39.2153C29.494 39.4739 29.1197 39.4921 28.8949 39.2679C28.6921 39.0655 28.4995 38.8847 28.3048 38.7126C28.0488 38.4863 27.6479 38.5559 27.4838 38.8557C26.553 40.5564 25.7713 42.3401 25.1533 44.1864C24.6149 45.7943 25.9339 47.4029 27.6192 47.1963C29.3333 46.98 31.0243 46.6277 32.6763 46.1471C32.9798 46.0587 33.1426 45.7261 33.022 45.4339C32.5584 44.3116 31.9943 43.2465 31.325 42.2317C31.1627 41.9859 31.2307 41.6551 31.4765 41.4929C31.7227 41.3308 32.0533 41.3986 32.2153 41.6444C32.9252 42.7205 33.5487 43.8899 34.0654 45.1675C34.1734 45.4348 34.4726 45.5697 34.7435 45.4711C36.5758 44.8044 38.3487 43.9755 40.0388 42.9943C40.2661 42.8623 40.3645 42.5853 40.2706 42.3399C39.6927 40.8276 38.9756 39.3747 38.1072 37.9766C37.9528 37.7282 38.0074 37.393 38.2507 37.2308C38.5025 37.063 38.8412 37.1374 38.9999 37.3924C39.818 38.7066 40.527 40.0993 41.117 41.5745C41.2434 41.8905 41.6278 42.0129 41.9101 41.8228C42.3707 41.5128 42.8239 41.1911 43.269 40.8572C45.8433 38.9244 45.9991 35.787 44.481 33.0194C45.4156 32.6287 46.3969 32.4477 47.4622 32.4521C47.7688 32.4533 47.9976 32.2093 48.0002 31.9234C48.0026 31.6287 47.766 31.3881 47.4713 31.3854ZM35.7099 41.9192C35.4503 42.0606 35.1268 41.9637 34.9864 41.7059C34.8061 41.375 34.6145 41.0463 34.417 40.7292C34.2614 40.4792 34.3378 40.1502 34.5878 39.9946C34.8381 39.8388 35.1669 39.9153 35.3225 40.1654C35.5309 40.5 35.733 40.8466 35.9232 41.1958C36.064 41.4544 35.9686 41.7783 35.7099 41.9192Z" fill="#8DFF48"/>
</g>
<defs>
<clipPath id="clip0_1033_2999">
<rect width="32" height="32" fill="white" transform="translate(16 16)"/>
</clipPath>
</defs>
</svg>
