<svg width="85" height="132" viewBox="0 0 85 132" fill="none" xmlns="http://www.w3.org/2000/svg">
<path d="M52.0894 121.308C53.6619 122.97 55.6727 126.178 55.8644 127.452C56.0578 128.728 54.9348 130.156 53.6797 130.736C52.4246 131.316 51.2436 130.814 50.5395 130.427C49.8354 130.04 48.8703 129.383 48.5996 126.872C48.329 124.361 48.2903 124.013 47.4396 123.317C46.5889 122.621 46.394 121.579 47.2447 120.148C48.097 118.72 51.213 118.797 52.0894 121.308Z" fill="#D9DDEF" stroke="#1F1F1F" stroke-opacity="0.2" stroke-width="1.9621" stroke-miterlimit="10" stroke-linejoin="round"/>
<path d="M53.8765 93.3328C53.8765 93.3328 56.2143 100.056 54.8996 105.272C53.5848 110.488 51.2664 115.435 51.1504 117.212C51.0344 118.988 52.0897 121.308 52.0897 121.308C52.0897 121.308 50.9941 118.217 47.2465 120.148L47.0161 118.755L51.1584 95.7651L53.8765 93.3328Z" fill="#D9DDEF" stroke="#1F1F1F" stroke-opacity="0.2" stroke-width="1.9621" stroke-miterlimit="10" stroke-linejoin="round"/>
<path d="M47.5831 94.7616C47.5831 94.7616 46.0863 99.7085 46.473 102.49C46.8597 105.272 47.8409 112.55 47.5831 114.03C47.4719 114.667 46.1443 116.363 46.5793 117.56C46.8097 118.194 47.2448 120.148 47.2448 120.148C47.2448 120.148 48.0262 119.593 49.0477 119.581C50.0675 119.57 50.7813 102.49 49.7888 97.9301C48.2823 91.0052 47.5831 94.7616 47.5831 94.7616Z" fill="#D9DDEF" stroke="#1F1F1F" stroke-opacity="0.2" stroke-width="1.9621" stroke-miterlimit="10" stroke-linejoin="round"/>
<path d="M55.0685 86.2403C54.5287 87.8512 54.3966 93.6421 52.9288 95.7668C52.9288 95.7668 51.4981 91.7864 52.9288 88.8886C54.3596 85.9907 55.0685 86.2403 55.0685 86.2403Z" fill="#D9DDEF" stroke="#1F1F1F" stroke-opacity="0.2" stroke-width="1.9621" stroke-miterlimit="10" stroke-linejoin="round"/>
<path d="M45.8156 88.5261C45.8156 88.5261 45.727 91.3112 46.5777 93.2168C47.4284 95.1225 49.3344 96.2823 49.3344 96.2823C49.3344 96.2823 50.4445 91.8766 48.6013 89.7133C46.7582 87.5499 45.8156 88.5261 45.8156 88.5261Z" fill="#D9DDEF" stroke="#1F1F1F" stroke-opacity="0.2" stroke-width="1.9621" stroke-miterlimit="10" stroke-linejoin="round"/>
<path d="M48.7958 94.5926C48.7958 94.5926 47.8082 95.638 48.016 97.4421C48.2255 99.2446 49.4355 104.29 49.4178 107.669C49.3727 115.912 48.5993 119.628 48.5993 119.628C48.5993 119.628 49.4178 119.517 50.0671 119.572C50.5569 118.567 51.1498 108.558 51.6138 104.849C52.0778 101.139 51.6444 98.7823 52.2921 97.8803C52.9398 96.9782 53.4086 94.5088 52.4274 93.6696C51.4462 92.8303 48.7958 94.5926 48.7958 94.5926Z" fill="#F4F6FA" stroke="#1F1F1F" stroke-opacity="0.2" stroke-width="1.9621" stroke-miterlimit="10" stroke-linejoin="round"/>
<path d="M52.9255 90.696C53.1913 92.2955 52.4357 94.6989 51.9201 96.0778C51.5221 97.1425 49.6645 97.1071 49.3326 96.284C48.8637 95.1161 48.4803 93.8871 48.6349 91.6335C48.7912 89.3799 49.6065 86.6512 51.2901 86.6496C52.9754 86.6464 52.6596 89.0964 52.9255 90.696Z" fill="#F4F6FA" stroke="#1F1F1F" stroke-opacity="0.2" stroke-width="1.9621" stroke-miterlimit="10" stroke-linejoin="round"/>
<path d="M33.1014 121.308C31.5289 122.97 29.5182 126.178 29.3265 127.452C29.1331 128.728 30.2561 130.156 31.5112 130.736C32.7663 131.316 33.9473 130.814 34.6514 130.427C35.3555 130.04 36.3206 129.383 36.5912 126.872C36.8619 124.361 36.9006 124.013 37.7513 123.317C38.602 122.621 38.7969 121.579 37.9462 120.148C37.0939 118.72 33.9779 118.797 33.1014 121.308Z" fill="#D9DDEF" stroke="#1F1F1F" stroke-opacity="0.2" stroke-width="1.9621" stroke-miterlimit="10" stroke-linejoin="round"/>
<path d="M31.3144 93.3328C31.3144 93.3328 28.9766 100.056 30.2913 105.272C31.606 110.488 33.9245 115.435 34.0405 117.212C34.1565 118.988 33.1012 121.308 33.1012 121.308C33.1012 121.308 34.1968 118.217 37.9443 120.148L38.1747 118.755L34.0324 95.7651L31.3144 93.3328Z" fill="#D9DDEF" stroke="#1F1F1F" stroke-opacity="0.2" stroke-width="1.9621" stroke-miterlimit="10" stroke-linejoin="round"/>
<path d="M37.6081 94.7616C37.6081 94.7616 39.1049 99.7085 38.7182 102.49C38.3315 105.272 37.3503 112.55 37.6081 114.03C37.7193 114.667 39.0469 116.363 38.6119 117.56C38.3815 118.194 37.9465 120.148 37.9465 120.148C37.9465 120.148 37.165 119.593 36.1436 119.581C35.1237 119.57 34.4099 102.49 35.4024 97.9301C36.9089 91.0052 37.6081 94.7616 37.6081 94.7616Z" fill="#D9DDEF" stroke="#1F1F1F" stroke-opacity="0.2" stroke-width="1.9621" stroke-miterlimit="10" stroke-linejoin="round"/>
<path d="M30.1221 86.2403C30.6618 87.8512 30.7939 93.6421 32.2617 95.7668C32.2617 95.7668 33.6924 91.7864 32.2617 88.8886C30.8326 85.9907 30.1221 86.2403 30.1221 86.2403Z" fill="#D9DDEF" stroke="#1F1F1F" stroke-opacity="0.2" stroke-width="1.9621" stroke-miterlimit="10" stroke-linejoin="round"/>
<path d="M39.3756 88.5261C39.3756 88.5261 39.4642 91.3112 38.6135 93.2168C37.7628 95.1225 35.8568 96.2823 35.8568 96.2823C35.8568 96.2823 34.7467 91.8766 36.5899 89.7133C38.4331 87.5499 39.3756 88.5261 39.3756 88.5261Z" fill="#D9DDEF" stroke="#1F1F1F" stroke-opacity="0.2" stroke-width="1.9621" stroke-miterlimit="10" stroke-linejoin="round"/>
<path d="M36.3945 94.5926C36.3945 94.5926 37.3822 95.638 37.1743 97.4421C36.9649 99.2446 35.7549 104.29 35.7726 107.669C35.8177 115.912 36.5911 119.628 36.5911 119.628C36.5911 119.628 35.7726 119.517 35.1233 119.572C34.6335 118.567 34.0406 108.558 33.5766 104.849C33.1126 101.139 33.546 98.7823 32.8983 97.8803C32.2506 96.9782 31.7818 94.5088 32.763 93.6696C33.7442 92.8303 36.3945 94.5926 36.3945 94.5926Z" fill="#F4F6FA" stroke="#1F1F1F" stroke-opacity="0.2" stroke-width="1.9621" stroke-miterlimit="10" stroke-linejoin="round"/>
<path d="M32.2655 90.6959C31.9997 92.2954 32.7553 94.6988 33.2709 96.0777C33.6688 97.1424 35.5265 97.107 35.8584 96.2838C36.3273 95.116 36.7107 93.8869 36.5561 91.6334C36.3998 89.3798 35.5845 86.6511 33.9009 86.6495C32.2156 86.6462 32.5314 89.0963 32.2655 90.6959Z" fill="#F4F6FA" stroke="#1F1F1F" stroke-opacity="0.2" stroke-width="1.9621" stroke-miterlimit="10" stroke-linejoin="round"/>
<path d="M52.9778 55.2609C52.9778 55.2609 54.3586 56.1469 54.2039 58.0541C54.0492 59.9597 53.9719 62.3437 54.0106 63.27C54.0492 64.1978 51.2974 58.5502 51.2974 58.5502C51.2974 58.5502 51.5197 55.8295 52.9778 55.2609Z" fill="#D9DDEF" stroke="#1F1F1F" stroke-opacity="0.2" stroke-width="1.9621" stroke-miterlimit="10" stroke-linejoin="round"/>
<path d="M32.1264 55.2609C32.1264 55.2609 30.7456 56.1469 30.9003 58.0541C31.0549 59.9597 31.1323 62.3437 31.0936 63.27C31.0549 64.1978 33.8068 58.5502 33.8068 58.5502C33.8068 58.5502 33.5845 55.8295 32.1264 55.2609Z" fill="#D9DDEF" stroke="#1F1F1F" stroke-opacity="0.2" stroke-width="1.9621" stroke-miterlimit="10" stroke-linejoin="round"/>
<path d="M43.0044 68.1216C43.0044 68.1216 43.1526 73.6644 43.9646 76.7943C44.7767 79.9241 45.4147 83.3294 45.4195 84.7164C45.4228 86.1033 55.0656 65.148 49.7278 60.6344C44.3884 56.1209 43.0044 68.1216 43.0044 68.1216Z" fill="#D9DDEF" stroke="#1F1F1F" stroke-opacity="0.2" stroke-width="1.9621" stroke-miterlimit="10" stroke-linejoin="round"/>
<path d="M51.7129 57.9878C51.7129 57.9878 56.8509 64.0043 56.1597 73.5871L50.5029 59.3168L51.7129 57.9878Z" fill="#D9DDEF" stroke="#1F1F1F" stroke-opacity="0.2" stroke-width="1.9621" stroke-miterlimit="10" stroke-linejoin="round"/>
<path d="M55.5462 71.2949C55.5462 71.2949 57.8936 77.8381 56.2245 82.6304C54.5553 87.4226 53.8351 89.9725 53.3646 90.5911C52.8926 91.2096 51.5021 89.9339 51.9275 87.4226C52.3512 84.9097 55.5462 71.2949 55.5462 71.2949Z" fill="#D9DDEF" stroke="#1F1F1F" stroke-opacity="0.2" stroke-width="1.9621" stroke-miterlimit="10" stroke-linejoin="round"/>
<path d="M51.2987 58.55C52.296 65.1125 55.9276 66.1676 55.5764 73.0072C55.2251 79.8468 52.1575 86.2225 51.9255 87.4209C51.6935 88.6194 50.7252 88.555 50.5028 87.6916C50.2644 86.7637 47.2885 75.4815 48.911 69.5697C50.535 63.658 49.7278 60.636 49.7278 60.636C49.7278 60.636 50.2772 58.2939 51.2987 58.55Z" fill="#F4F6FA" stroke="#1F1F1F" stroke-opacity="0.2" stroke-width="1.9621" stroke-miterlimit="10" stroke-linejoin="round"/>
<path d="M50.2848 86.8362C50.765 88.8513 50.2542 91.2853 49.0797 91.5946C47.9051 91.9039 45.2 90.7054 45.432 85.1029C45.664 79.5005 47.9921 72.4724 48.7993 70.0159C49.6065 67.5594 50.2848 86.8362 50.2848 86.8362Z" fill="#F4F6FA" stroke="#1F1F1F" stroke-opacity="0.2" stroke-width="1.9621" stroke-miterlimit="10" stroke-linejoin="round"/>
<path d="M42.1032 68.1216C42.1032 68.1216 41.9549 73.6644 41.1429 76.7943C40.3309 79.9241 39.6928 83.3294 39.688 84.7164C39.6848 86.1033 30.0419 65.148 35.3797 60.6344C40.7192 56.1209 42.1032 68.1216 42.1032 68.1216Z" fill="#D9DDEF" stroke="#1F1F1F" stroke-opacity="0.2" stroke-width="1.9621" stroke-miterlimit="10" stroke-linejoin="round"/>
<path d="M33.3951 57.9878C33.3951 57.9878 28.2571 64.0043 28.9482 73.5871L34.6051 59.3168L33.3951 57.9878Z" fill="#D9DDEF" stroke="#1F1F1F" stroke-opacity="0.2" stroke-width="1.9621" stroke-miterlimit="10" stroke-linejoin="round"/>
<path d="M29.5618 71.2949C29.5618 71.2949 27.2143 77.8381 28.8834 82.6304C30.5526 87.4226 31.2728 89.9725 31.7433 90.5911C32.2153 91.2096 33.6058 89.9339 33.1804 87.4226C32.7567 84.9097 29.5618 71.2949 29.5618 71.2949Z" fill="#D9DDEF" stroke="#1F1F1F" stroke-opacity="0.2" stroke-width="1.9621" stroke-miterlimit="10" stroke-linejoin="round"/>
<path d="M33.8083 58.55C32.811 65.1125 29.1794 66.1676 29.5307 73.0072C29.8819 79.8468 32.9496 86.2225 33.1816 87.4209C33.4136 88.6194 34.3819 88.555 34.6042 87.6916C34.8427 86.7637 37.8185 75.4815 36.1961 69.5697C34.572 63.658 35.3792 60.636 35.3792 60.636C35.3792 60.636 34.8298 58.2939 33.8083 58.55Z" fill="#F4F6FA" stroke="#1F1F1F" stroke-opacity="0.2" stroke-width="1.9621" stroke-miterlimit="10" stroke-linejoin="round"/>
<path d="M34.8206 86.8362C34.3404 88.8513 34.8512 91.2853 36.0257 91.5946C37.2003 91.9039 39.9054 90.7054 39.6734 85.1029C39.4414 79.5004 37.1133 72.4724 36.3061 70.0159C35.5005 67.5593 34.8206 86.8362 34.8206 86.8362Z" fill="#F4F6FA" stroke="#1F1F1F" stroke-opacity="0.2" stroke-width="1.9621" stroke-miterlimit="10" stroke-linejoin="round"/>
<path d="M38.1314 17.7655C38.1314 18.8351 32.133 21.6396 28.9429 24.8548C28.9429 24.8548 28.6899 27.553 28.6899 34.755C28.6899 41.957 31.0133 43.4857 31.7463 44.9918C32.481 46.4996 32.8355 47.8897 32.5423 48.8562C32.249 49.8227 30.7426 54.3669 33.3897 57.988C36.0369 61.6092 39.9842 66.5287 40.8897 67.3792C41.7952 68.2297 42.5508 68.2039 42.5508 68.2039C42.5508 68.2039 43.3065 68.2297 44.212 67.3792C45.1174 66.5287 49.0648 61.6092 51.7119 57.988C54.3591 54.3669 52.8527 49.8227 52.5594 48.8562C52.2662 47.8897 52.6206 46.4996 53.3553 44.9918C54.09 43.4841 56.4117 41.957 56.4117 34.755C56.4117 27.553 56.1588 24.8548 56.1588 24.8548C52.9686 21.6396 46.9703 18.8351 46.9703 17.7655H38.1314Z" fill="#D9DDEF" stroke="#1F1F1F" stroke-opacity="0.2" stroke-width="1.9621" stroke-miterlimit="10" stroke-linejoin="round"/>
<path d="M60.6198 44.9338C58.6961 42.9847 55.9555 40.5781 55.224 36.2579C54.412 31.4689 58.0822 30.562 59.3132 35.3816C60.0189 38.1474 64.3336 41.9522 64.4834 43.7821C64.5946 45.1416 62.5436 46.8829 60.6198 44.9338Z" fill="#D9DDEF" stroke="#1F1F1F" stroke-opacity="0.2" stroke-width="1.9621" stroke-miterlimit="10" stroke-linejoin="round"/>
<path d="M42.5461 31.6734L34.5966 37.9203C32.2186 39.254 30.7379 42.8156 31.8995 45.3236L32.2202 46.0968C32.8534 47.466 35.146 49.7341 36.9747 50.2737C36.9747 50.2737 38.9468 47.9686 42.5494 47.9686C46.1519 47.9686 48.124 50.2737 48.124 50.2737C49.9527 49.7325 52.247 47.466 52.8786 46.0968L53.1992 45.3236C54.3608 42.8172 52.8786 39.254 50.5021 37.9203L42.5526 31.6734H42.5461Z" stroke="#1F1F1F" stroke-opacity="0.2" stroke-width="1.9621" stroke-miterlimit="10" stroke-linejoin="round"/>
<path d="M47.2728 14.1718C47.2728 14.2974 46.9199 18.5242 46.8216 19.175C46.319 22.5046 44.2035 23.761 42.5488 25.5152C43.9973 22.8993 44.0585 17.7655 44.0585 17.7655C44.8496 17.4111 46.8249 14.8725 47.2728 14.1718Z" fill="#D9DDEF" stroke="#1F1F1F" stroke-opacity="0.2" stroke-width="1.9621" stroke-miterlimit="10" stroke-linejoin="round"/>
<path d="M37.8267 14.1718C37.8267 14.2974 38.1795 18.5242 38.2778 19.175C38.7805 22.5046 40.8959 23.761 42.5506 25.5152C41.1022 22.8993 41.0409 17.7655 41.0409 17.7655C40.2515 17.4111 38.2762 14.8725 37.8267 14.1718Z" fill="#D9DDEF" stroke="#1F1F1F" stroke-opacity="0.2" stroke-width="1.9621" stroke-miterlimit="10" stroke-linejoin="round"/>
<path d="M44.0603 17.7655C44.0603 17.7655 43.9991 22.8993 42.5507 25.5153C41.1039 22.8993 41.041 17.7655 41.041 17.7655C41.4809 17.9637 41.9819 18.0781 42.5507 18.0781C43.1194 18.0781 43.6205 17.9637 44.0603 17.7655Z" fill="#D9DDEF" stroke="#1F1F1F" stroke-opacity="0.2" stroke-width="1.9621" stroke-miterlimit="10" stroke-linejoin="round"/>
<path d="M66.4695 48.845C66.3132 45.5927 64.4861 45.277 60.6193 44.9339H60.6177C60.6177 44.9339 60.9609 50.7409 63.5855 51.3063C66.2101 51.8717 67.1526 51.9346 67.8663 52.7529C67.8679 52.7545 67.8679 52.7545 67.8695 52.7561C66.4598 51.0244 66.4695 48.845 66.4695 48.845Z" fill="#D9DDEF" stroke="#1F1F1F" stroke-opacity="0.2" stroke-width="1.9621" stroke-miterlimit="10" stroke-linejoin="round"/>
<path d="M68.582 53.5712C68.3194 53.2877 68.0842 53.0154 67.8715 52.7561C67.8699 52.7545 67.8699 52.7545 67.8683 52.7529C67.1545 51.9346 66.212 51.8717 63.5874 51.3063C63.1073 51.2033 62.6787 50.9423 62.2969 50.5895C62.2969 50.5895 63.1202 53.7274 65.3355 55.0145C67.5509 56.3031 71.8592 61.8782 72.3377 62.9478C72.3377 62.9478 72.6857 62.6514 73.4075 62.5773C73.4059 62.5789 70.5912 55.7361 68.582 53.5712Z" fill="#D9DDEF" stroke="#1F1F1F" stroke-opacity="0.2" stroke-width="1.9621" stroke-miterlimit="10" stroke-linejoin="round"/>
<path d="M65.4715 42.7043C65.4715 42.7043 69.4591 44.9676 70.9543 48.7804C72.4494 52.5932 74.9 60.3075 74.9 60.3075C74.9 60.3075 74.233 62.1245 72.6347 62.1245C72.6347 62.1245 70.5934 55.736 68.5826 53.5726C66.5735 51.4093 66.4704 48.8464 66.4704 48.8464C66.4704 48.8464 63.559 45.1754 64.7819 42.9089L65.4715 42.7043Z" fill="#F4F6FA" stroke="#1F1F1F" stroke-opacity="0.2" stroke-width="1.9621" stroke-miterlimit="10" stroke-linejoin="round"/>
<path d="M47.7687 37.2147C47.7687 37.2147 49.4041 37.7399 49.4025 37.7383C47.4658 37.2969 45.9948 36.3143 45.3922 35.9519C45.1989 35.8343 44.9492 35.7022 44.6801 35.5379C44.6753 35.5346 44.6704 35.533 44.6672 35.5298C43.5732 34.8823 42.5518 36.4931 42.5518 37.909C42.5518 39.3265 43.7182 39.7115 44.1549 39.6213C44.5931 39.5311 46.6022 39.7373 47.7881 40.2785C48.9739 40.8198 49.1576 40.4654 49.0786 39.3894C48.9997 38.3149 48.3101 37.3211 47.7687 37.2147Z" fill="#F4F6FA" stroke="#1F1F1F" stroke-opacity="0.2" stroke-width="1.9621" stroke-miterlimit="10" stroke-linejoin="round"/>
<path d="M48.2559 40.4751C48.2527 40.4735 48.2511 40.4719 48.2495 40.4719C48.1174 40.4236 47.9659 40.3607 47.7887 40.2802C46.8316 39.8437 45.3381 39.6246 44.5663 39.6036C43.8977 39.6262 42.5508 40.0998 42.5508 41.5415C42.5508 42.9848 42.9697 44.71 43.279 45.1997C43.5884 45.6894 44.2844 45.6894 45.3139 45.3801C46.3451 45.0708 47.8644 44.8131 48.6893 44.9935C49.5143 45.1739 49.7978 44.0656 49.4111 42.4693C49.0261 40.8714 48.7248 40.67 48.2559 40.4751Z" fill="#FFFF00" stroke="#1F1F1F" stroke-opacity="0.2" stroke-width="1.9621" stroke-miterlimit="10" stroke-linejoin="round"/>
<path d="M48.8311 45.0112C48.786 45.0096 48.7393 45.0048 48.6909 44.9935C48.5524 44.9822 48.3623 44.958 48.1367 44.9355C47.2908 44.9162 46.1453 45.1304 45.3155 45.3801C45.1238 45.4381 44.9466 45.4799 44.779 45.5154C44.7774 45.517 44.7742 45.5186 44.7726 45.5202C43.8993 45.7924 42.5508 46.2564 42.5508 47.3888C42.5508 48.5228 42.5524 48.2973 42.5524 49.122C42.5524 49.9468 43.4869 52.3083 44.5422 51.7171C45.5991 51.1243 47.4278 50.4284 48.1238 50.2738C48.8198 50.1191 49.2113 49.4732 49.4127 47.4403C49.5996 45.546 49.4514 45.1159 48.8311 45.0112Z" fill="#FFFF00" stroke="#1F1F1F" stroke-opacity="0.2" stroke-width="1.9621" stroke-miterlimit="10" stroke-linejoin="round"/>
<path d="M48.1232 50.2738C47.8847 50.3463 47.577 50.4365 47.2403 50.5428C46.3976 50.8376 45.2811 51.3015 44.5416 51.7171C43.7005 52.3276 42.5518 53.4681 42.5518 55.2722C42.5518 57.0747 42.5518 60.3157 42.5518 62.5193C42.5518 64.7213 45.0136 62.7787 46.4008 59.739C47.7881 56.6994 48.9481 53.3199 49.0512 52.0038C49.1543 50.6862 48.998 50.008 48.1232 50.2738Z" fill="#FFFF00" stroke="#1F1F1F" stroke-opacity="0.2" stroke-width="1.9621" stroke-miterlimit="10" stroke-linejoin="round"/>
<path d="M37.3339 37.2147C37.3339 37.2147 35.6986 37.7399 35.7002 37.7383C37.6368 37.2969 39.1078 36.3143 39.7104 35.9519C39.9037 35.8343 40.1535 35.7022 40.4225 35.5379C40.4274 35.5346 40.4322 35.533 40.4354 35.5298C41.5294 34.8823 42.5509 36.4931 42.5509 37.909C42.5509 39.3265 41.3844 39.7115 40.9478 39.6213C40.5095 39.5311 38.5004 39.7373 37.3146 40.2785C36.1288 40.8198 35.9451 40.4654 36.024 39.3894C36.1046 38.3149 36.7926 37.3211 37.3339 37.2147Z" fill="#F4F6FA" stroke="#1F1F1F" stroke-opacity="0.2" stroke-width="1.9621" stroke-miterlimit="10" stroke-linejoin="round"/>
<path d="M36.8472 40.4751C36.8505 40.4735 36.8521 40.4719 36.8537 40.4719C36.9858 40.4236 37.1372 40.3607 37.3145 40.2802C38.2715 39.8437 39.7651 39.6246 40.5368 39.6036C41.2055 39.6262 42.5524 40.0998 42.5524 41.5415C42.5524 42.9848 42.1335 44.71 41.8241 45.1997C41.5148 45.6894 40.8188 45.6894 39.7892 45.3801C38.7581 45.0708 37.2387 44.8131 36.4138 44.9935C35.5889 45.1739 35.3053 44.0656 35.692 42.4693C36.0787 40.8714 36.38 40.67 36.8472 40.4751Z" fill="#FFFF00" stroke="#1F1F1F" stroke-opacity="0.2" stroke-width="1.9621" stroke-miterlimit="10" stroke-linejoin="round"/>
<path d="M36.2735 45.0112C36.3186 45.0096 36.3654 45.0048 36.4137 44.9935C36.5523 44.9822 36.7424 44.958 36.9679 44.9355C37.8138 44.9162 38.9593 45.1304 39.7891 45.3801C39.9808 45.4381 40.1581 45.4799 40.3256 45.5154C40.3272 45.517 40.3304 45.5186 40.3321 45.5202C41.2053 45.7924 42.5539 46.2564 42.5539 47.3888C42.5539 48.5228 42.5522 48.2973 42.5522 49.122C42.5522 49.9468 41.6178 52.3083 40.5625 51.7171C39.5055 51.1243 37.6769 50.4284 36.9808 50.2738C36.2848 50.1191 35.8933 49.4732 35.6919 47.4403C35.505 45.546 35.6516 45.1159 36.2735 45.0112Z" fill="#FFFF00" stroke="#1F1F1F" stroke-opacity="0.2" stroke-width="1.9621" stroke-miterlimit="10" stroke-linejoin="round"/>
<path d="M36.9808 50.2738C37.2192 50.3463 37.527 50.4365 37.8637 50.5428C38.7063 50.8376 39.8229 51.3015 40.5624 51.7171C41.4034 52.3276 42.5522 53.4681 42.5522 55.2722C42.5522 57.0747 42.5522 60.3157 42.5522 62.5193C42.5522 64.7213 40.0903 62.7787 38.7031 59.739C37.3159 56.6994 36.1559 53.3199 36.0528 52.0038C35.9496 50.6862 36.1059 50.008 36.9808 50.2738Z" fill="#FFFF00" stroke="#1F1F1F" stroke-opacity="0.2" stroke-width="1.9621" stroke-miterlimit="10" stroke-linejoin="round"/>
<path d="M46.0663 16.8619C45.5943 17.598 44.9675 18.2488 44.1377 18.6209C43.6753 18.8287 43.1501 18.9495 42.5508 18.9495C41.953 18.9495 41.4261 18.8287 40.9637 18.6209C40.1308 18.2488 39.504 17.5964 39.0336 16.8586C39.0336 16.857 39.0336 16.857 39.0336 16.857C37.9025 15.0851 37.6737 13.4936 37.6737 13.4936C37.6737 13.4936 36.4203 13.7948 35.9256 11.3593C35.4245 8.88502 37.0277 9.03 37.0277 9.03C37.0277 9.03 36.5121 7.46266 37.0502 5.04319C37.5883 2.62372 39.939 1 42.5508 1C45.1608 1 47.5131 2.62211 48.0513 5.04319C48.5878 7.46266 48.0722 9.03 48.0722 9.03C48.0722 9.03 49.677 8.88341 49.1759 11.3593C48.6829 13.7948 47.4278 13.4936 47.4278 13.4936C47.4278 13.4936 47.199 15.0899 46.0663 16.8619Z" fill="#D9DDEF" stroke="#1F1F1F" stroke-opacity="0.2" stroke-width="1.9621" stroke-miterlimit="10" stroke-linejoin="round"/>
<path d="M71.9852 62.3454C71.8773 60.6637 74.8982 60.3077 74.8982 60.3077C76.3853 60.6862 78.1013 60.6041 79.3419 61.395C80.5825 62.1843 81.2334 62.2455 82.3515 62.3389C83.4713 62.4307 83.344 63.6775 81.9552 63.837C80.5647 63.9965 79.8026 63.8692 78.8633 63.7355C80.5277 65.8924 81.5346 67.5757 82.3644 69.6682C82.7108 71.0632 80.2473 71.4321 79.192 71.2082C77.1974 70.8602 75.098 67.8367 74.054 67.0264C72.9971 66.1357 72.0932 64.0271 71.9852 62.3454Z" fill="#D9DDEF" stroke="#1F1F1F" stroke-opacity="0.2" stroke-width="1.9621" stroke-miterlimit="10" stroke-linejoin="round"/>
<path d="M78.8636 63.7339C77.7148 63.7742 76.1584 64.1994 74.457 62.9478L78.8636 63.7339Z" fill="#D9DDEF"/>
<path d="M78.8636 63.7339C77.7148 63.7742 76.1584 64.1994 74.457 62.9478" stroke="#1F1F1F" stroke-opacity="0.2" stroke-width="1.9621" stroke-miterlimit="10" stroke-linejoin="round"/>
<path d="M24.3795 44.9338C26.3032 42.9847 29.0438 40.5781 29.7753 36.2579C30.5873 31.4689 26.9171 30.562 25.6862 35.3816C24.9805 38.1474 20.6658 41.9522 20.5159 43.7821C20.4064 45.1416 22.4558 46.8829 24.3795 44.9338Z" fill="#D9DDEF" stroke="#1F1F1F" stroke-opacity="0.2" stroke-width="1.9621" stroke-miterlimit="10" stroke-linejoin="round"/>
<path d="M18.53 48.845C18.6863 45.5927 20.5133 45.277 24.3801 44.9339H24.3818C24.3818 44.9339 24.0386 50.7409 21.414 51.3063C18.7894 51.8717 17.8469 51.9346 17.1331 52.7529C17.1315 52.7545 17.1315 52.7545 17.1299 52.7561C18.5397 51.0244 18.53 48.845 18.53 48.845Z" fill="#D9DDEF" stroke="#1F1F1F" stroke-opacity="0.2" stroke-width="1.9621" stroke-miterlimit="10" stroke-linejoin="round"/>
<path d="M16.4192 53.5712C16.6818 53.2877 16.917 53.0154 17.1297 52.7561C17.1313 52.7545 17.1313 52.7545 17.1329 52.7529C17.8467 51.9346 18.7892 51.8717 21.4138 51.3063C21.894 51.2033 22.3225 50.9423 22.7044 50.5895C22.7044 50.5895 21.8811 53.7274 19.6657 55.0145C17.4503 56.3031 13.1421 61.8782 12.6636 62.9478C12.6636 62.9478 12.3156 62.6514 11.5938 62.5773C11.5938 62.5789 14.4085 55.7361 16.4192 53.5712Z" fill="#D9DDEF" stroke="#1F1F1F" stroke-opacity="0.2" stroke-width="1.9621" stroke-miterlimit="10" stroke-linejoin="round"/>
<path d="M19.5296 42.7043C19.5296 42.7043 15.542 44.9676 14.0468 48.7804C12.5517 52.5932 10.1011 60.3075 10.1011 60.3075C10.1011 60.3075 10.7681 62.1245 12.3664 62.1245C12.3664 62.1245 14.4077 55.736 16.4185 53.5726C18.4276 51.4093 18.5307 48.8464 18.5307 48.8464C18.5307 48.8464 21.4421 45.1754 20.2192 42.9089L19.5296 42.7043Z" fill="#F4F6FA" stroke="#1F1F1F" stroke-opacity="0.2" stroke-width="1.9621" stroke-miterlimit="10" stroke-linejoin="round"/>
<path d="M62.768 36.2579C59.2073 33.6338 58.7916 34.9434 58.7916 34.9434C58.7916 34.9434 58.1584 37.4757 60.1562 42.4419C62.1541 47.408 66.4704 48.8433 66.4704 48.8433C66.4704 48.8433 68.0929 40.1835 62.768 36.2579Z" fill="#F4F6FA" stroke="#1F1F1F" stroke-opacity="0.2" stroke-width="1.9621" stroke-miterlimit="10" stroke-linejoin="round"/>
<path d="M22.2329 36.2578C25.7936 33.6337 26.2093 34.9433 26.2093 34.9433C26.2093 34.9433 26.8425 37.4756 24.8446 42.4418C22.8468 47.408 18.5305 48.8432 18.5305 48.8432C18.5305 48.8432 16.908 40.1834 22.2329 36.2578Z" fill="#F4F6FA" stroke="#1F1F1F" stroke-opacity="0.2" stroke-width="1.9621" stroke-miterlimit="10" stroke-linejoin="round"/>
<path d="M13.0146 62.3454C13.1225 60.6637 10.1016 60.3077 10.1016 60.3077C8.61446 60.6862 6.89857 60.6041 5.65797 61.395C4.41737 62.1843 3.76645 62.2455 2.6483 62.3389C1.52854 62.4307 1.65583 63.6775 3.04465 63.837C4.43509 63.9965 5.19718 63.8692 6.13649 63.7355C4.47215 65.8924 3.46516 67.5757 2.63541 69.6682C2.2874 71.0632 4.75249 71.4321 5.8078 71.2082C7.80243 70.8602 9.90179 67.8367 10.9458 67.0264C12.0028 66.1357 12.9066 64.0271 13.0146 62.3454Z" fill="#D9DDEF" stroke="#1F1F1F" stroke-opacity="0.2" stroke-width="1.9621" stroke-miterlimit="10" stroke-linejoin="round"/>
<path d="M6.1377 63.7339C7.28646 63.7742 8.84284 64.1994 10.5442 62.9478L6.1377 63.7339Z" fill="#D9DDEF"/>
<path d="M6.1377 63.7339C7.28646 63.7742 8.84284 64.1994 10.5442 62.9478" stroke="#1F1F1F" stroke-opacity="0.2" stroke-width="1.9621" stroke-miterlimit="10" stroke-linejoin="round"/>
<path d="M51.8155 26.5009C51.229 26.1336 50.5958 25.8662 49.9143 25.7503C45.3628 24.9771 44.2108 25.5151 43.4084 26.4719C42.6061 27.4287 42.5513 28.7206 42.5513 31.6733C42.5513 34.6275 44.5217 35.4265 45.3934 35.9516C46.2618 36.4752 48.9347 38.2874 52.207 37.9088C55.4793 37.5303 56.0625 34.9578 56.939 33.9864C53.9245 31.873 52.2328 27.651 51.8155 26.5009Z" fill="#F4F6FA" stroke="#1F1F1F" stroke-opacity="0.2" stroke-width="1.9621" stroke-miterlimit="10" stroke-linejoin="round"/>
<path d="M33.29 26.5009C33.8765 26.1336 34.5097 25.8662 35.1912 25.7503C39.7428 24.9771 40.8947 25.5151 41.6971 26.4719C42.4995 27.4287 42.5542 28.7206 42.5542 31.6733C42.5542 34.6275 40.5838 35.4265 39.7121 35.9516C38.8437 36.4752 36.1708 38.2874 32.8985 37.9088C29.6262 37.5303 29.043 34.9578 28.1665 33.9864C31.181 31.873 32.8727 27.651 33.29 26.5009Z" fill="#F4F6FA" stroke="#1F1F1F" stroke-opacity="0.2" stroke-width="1.9621" stroke-miterlimit="10" stroke-linejoin="round"/>
<path d="M62.7674 36.258C59.9753 35.3817 58.6638 34.9645 57.747 34.4828C53.6885 32.3452 51.71 26.2031 51.71 26.2031C51.71 26.2031 53.8593 24.3652 56.7368 24.9403C59.616 25.5153 65.0247 26.3723 62.7674 36.258Z" fill="#F4F6FA" stroke="#1F1F1F" stroke-opacity="0.2" stroke-width="1.9621" stroke-miterlimit="10" stroke-linejoin="round"/>
<path d="M22.2322 36.258C25.0243 35.3817 26.3358 34.9645 27.251 34.4828C31.3095 32.3452 33.288 26.2031 33.288 26.2031C33.288 26.2031 31.1387 24.3652 28.2612 24.9403C25.3852 25.5153 19.9765 26.3723 22.2322 36.258Z" fill="#F4F6FA" stroke="#1F1F1F" stroke-opacity="0.2" stroke-width="1.9621" stroke-miterlimit="10" stroke-linejoin="round"/>
</svg>
