<svg width="115" height="131" viewBox="0 0 115 131" fill="none" xmlns="http://www.w3.org/2000/svg">
<mask id="path-1-outside-1_1033_1771" maskUnits="userSpaceOnUse" x="0.166504" y="0" width="115" height="115" fill="black">
<rect fill="white" x="0.166504" width="115" height="115"/>
<path d="M113.833 57.3333C113.833 88.4454 88.6119 113.667 57.4998 113.667C26.3878 113.667 1.1665 88.4454 1.1665 57.3333C1.1665 26.2213 26.3878 1 57.4998 1C88.6119 1 113.833 26.2213 113.833 57.3333ZM12.4381 57.3333C12.4381 82.2202 32.6129 102.395 57.4998 102.395C82.3867 102.395 102.562 82.2202 102.562 57.3333C102.562 32.4464 82.3867 12.2716 57.4998 12.2716C32.6129 12.2716 12.4381 32.4464 12.4381 57.3333Z"/>
</mask>
<path d="M113.833 57.3333C113.833 88.4454 88.6119 113.667 57.4998 113.667C26.3878 113.667 1.1665 88.4454 1.1665 57.3333C1.1665 26.2213 26.3878 1 57.4998 1C88.6119 1 113.833 26.2213 113.833 57.3333ZM12.4381 57.3333C12.4381 82.2202 32.6129 102.395 57.4998 102.395C82.3867 102.395 102.562 82.2202 102.562 57.3333C102.562 32.4464 82.3867 12.2716 57.4998 12.2716C32.6129 12.2716 12.4381 32.4464 12.4381 57.3333Z" fill="white" fill-opacity="0.04"/>
<path d="M113.833 57.3333C113.833 88.4454 88.6119 113.667 57.4998 113.667C26.3878 113.667 1.1665 88.4454 1.1665 57.3333C1.1665 26.2213 26.3878 1 57.4998 1C88.6119 1 113.833 26.2213 113.833 57.3333ZM12.4381 57.3333C12.4381 82.2202 32.6129 102.395 57.4998 102.395C82.3867 102.395 102.562 82.2202 102.562 57.3333C102.562 32.4464 82.3867 12.2716 57.4998 12.2716C32.6129 12.2716 12.4381 32.4464 12.4381 57.3333Z" stroke="white" stroke-opacity="0.04" stroke-width="2" mask="url(#path-1-outside-1_1033_1771)"/>
<path d="M90.5504 11.7142C97.4869 16.7396 103.186 23.2807 107.215 30.84C111.243 38.3993 113.494 46.7777 113.798 55.338L102.596 55.735C102.353 48.878 100.55 42.1666 97.3229 36.1114C94.096 30.0561 89.5308 24.8165 83.9744 20.791L90.5504 11.7142Z" fill="#FFFF00"/>
<path opacity="0.5" d="M31.6802 48.5168C31.6291 48.085 31.4217 47.7497 31.0581 47.5111C30.6944 47.2725 30.2484 47.1531 29.72 47.1531C29.3336 47.1531 28.9956 47.2156 28.7058 47.3406C28.4189 47.4656 28.1944 47.6375 28.0325 47.8563C27.8734 48.075 27.7939 48.3236 27.7939 48.602C27.7939 48.835 27.8493 49.0352 27.9601 49.2029C28.0737 49.3676 28.2186 49.5054 28.3947 49.6162C28.5709 49.7242 28.7555 49.8136 28.9487 49.8847C29.1419 49.9529 29.3194 50.0082 29.4814 50.0509L30.3677 50.2895C30.595 50.3492 30.8478 50.4315 31.1263 50.5367C31.4075 50.6418 31.676 50.7852 31.9316 50.9671C32.1902 51.146 32.4032 51.3761 32.5709 51.6574C32.7385 51.9386 32.8223 52.2838 32.8223 52.6929C32.8223 53.1645 32.6987 53.5906 32.4515 53.9713C32.2072 54.352 31.8493 54.6546 31.3777 54.879C30.9089 55.1034 30.3393 55.2156 29.6689 55.2156C29.0439 55.2156 28.5027 55.1148 28.0453 54.9131C27.5907 54.7114 27.2328 54.4301 26.9714 54.0693C26.7129 53.7085 26.5666 53.2895 26.5325 52.8122H27.6234C27.6518 53.1418 27.7626 53.4145 27.9558 53.6304C28.1518 53.8435 28.399 54.0026 28.6973 54.1077C28.9984 54.21 29.3223 54.2611 29.6689 54.2611C30.0723 54.2611 30.4345 54.1957 30.7555 54.0651C31.0765 53.9315 31.3308 53.7469 31.5183 53.5111C31.7058 53.2725 31.7995 52.994 31.7995 52.6759C31.7995 52.3861 31.7186 52.1503 31.5566 51.9685C31.3947 51.7867 31.1816 51.6389 30.9174 51.5253C30.6532 51.4117 30.3677 51.3122 30.0609 51.227L28.987 50.9202C28.3052 50.7242 27.7655 50.4443 27.3677 50.0807C26.97 49.7171 26.7711 49.2412 26.7711 48.6531C26.7711 48.1645 26.9032 47.7384 27.1674 47.3747C27.4345 47.0082 27.7924 46.7242 28.2413 46.5225C28.693 46.3179 29.1973 46.2156 29.7541 46.2156C30.3166 46.2156 30.8166 46.3165 31.2541 46.5182C31.6916 46.7171 32.0382 46.9898 32.2939 47.3364C32.5524 47.683 32.6888 48.0764 32.703 48.5168H31.6802ZM36.7901 48.5168V49.369H33.398V48.5168H36.7901ZM34.3867 46.9486H35.3923V53.1872C35.3923 53.4713 35.4335 53.6844 35.5159 53.8264C35.6012 53.9656 35.7091 54.0594 35.8398 54.1077C35.9733 54.1531 36.1139 54.1759 36.2617 54.1759C36.3725 54.1759 36.4634 54.1702 36.5344 54.1588C36.6054 54.1446 36.6622 54.1332 36.7048 54.1247L36.9094 55.0281C36.8412 55.0537 36.746 55.0793 36.6239 55.1048C36.5017 55.1332 36.3469 55.1475 36.1594 55.1475C35.8753 55.1475 35.5969 55.0864 35.3242 54.9642C35.0543 54.8421 34.8298 54.656 34.6509 54.406C34.4747 54.156 34.3867 53.8406 34.3867 53.46V46.9486ZM40.4969 55.1986C39.8662 55.1986 39.3221 55.0594 38.8648 54.781C38.4102 54.4997 38.0594 54.1077 37.8122 53.6048C37.5679 53.0992 37.4457 52.5111 37.4457 51.8406C37.4457 51.1702 37.5679 50.5793 37.8122 50.0679C38.0594 49.5537 38.4031 49.1531 38.8435 48.8662C39.2866 48.5764 39.8037 48.4315 40.3946 48.4315C40.7355 48.4315 41.0721 48.4884 41.4045 48.602C41.7369 48.7156 42.0395 48.9003 42.3122 49.156C42.5849 49.4088 42.8023 49.744 42.9642 50.1617C43.1261 50.5793 43.2071 51.0935 43.2071 51.7043V52.1304H38.1616V51.2611H42.1844C42.1844 50.8918 42.1105 50.5622 41.9628 50.2725C41.8179 49.9827 41.6105 49.754 41.3406 49.5864C41.0736 49.4188 40.7582 49.335 40.3946 49.335C39.994 49.335 39.6474 49.4344 39.3548 49.6332C39.065 49.8293 38.842 50.085 38.6858 50.4003C38.5295 50.7156 38.4514 51.0537 38.4514 51.4145V51.994C38.4514 52.4884 38.5366 52.9074 38.7071 53.2511C38.8804 53.5921 39.1204 53.852 39.4273 54.031C39.7341 54.2071 40.0906 54.2952 40.4969 54.2952C40.7611 54.2952 40.9997 54.2582 41.2128 54.1844C41.4287 54.1077 41.6148 53.994 41.771 53.8435C41.9273 53.6901 42.048 53.4997 42.1332 53.2725L43.1048 53.5452C43.0025 53.8747 42.8307 54.1645 42.5892 54.4145C42.3477 54.6617 42.0494 54.8548 41.6943 54.994C41.3392 55.1304 40.94 55.1986 40.4969 55.1986ZM44.2569 57.5168V48.5168H45.2285V49.5565H45.3478C45.4217 49.4429 45.524 49.298 45.6546 49.1219C45.7882 48.9429 45.9785 48.7838 46.2257 48.6446C46.4757 48.5026 46.8137 48.4315 47.2399 48.4315C47.791 48.4315 48.2768 48.5693 48.6973 48.8449C49.1177 49.1205 49.4458 49.5111 49.6816 50.0168C49.9174 50.5225 50.0353 51.119 50.0353 51.8065C50.0353 52.4997 49.9174 53.1006 49.6816 53.6091C49.4458 54.1148 49.1191 54.5068 48.7015 54.7852C48.2839 55.0608 47.8024 55.1986 47.2569 55.1986C46.8365 55.1986 46.4998 55.129 46.247 54.9898C45.9941 54.8477 45.7995 54.6872 45.6632 54.5082C45.5268 54.3264 45.4217 54.1759 45.3478 54.0565H45.2626V57.5168H44.2569ZM45.2456 51.7895C45.2456 52.2838 45.318 52.7199 45.4629 53.0977C45.6078 53.4727 45.8194 53.7668 46.0978 53.9798C46.3762 54.1901 46.7171 54.2952 47.1206 54.2952C47.541 54.2952 47.8919 54.1844 48.1731 53.9628C48.4572 53.7384 48.6703 53.4372 48.8123 53.0594C48.9572 52.6787 49.0296 52.2554 49.0296 51.7895C49.0296 51.3293 48.9586 50.9145 48.8166 50.5452C48.6774 50.173 48.4657 49.879 48.1816 49.6631C47.9004 49.4443 47.5467 49.335 47.1206 49.335C46.7115 49.335 46.3677 49.4386 46.0893 49.646C45.8109 49.8506 45.6007 50.1375 45.4586 50.5068C45.3166 50.8733 45.2456 51.3009 45.2456 51.7895ZM55.7258 49.9827L54.8224 50.2384C54.7656 50.0878 54.6817 49.9415 54.571 49.7994C54.463 49.6546 54.3153 49.5352 54.1278 49.4415C53.9403 49.3477 53.7002 49.3009 53.4076 49.3009C53.007 49.3009 52.6732 49.3932 52.4062 49.5779C52.142 49.7597 52.0099 49.9912 52.0099 50.2725C52.0099 50.5225 52.1008 50.7199 52.2826 50.8648C52.4644 51.0097 52.7485 51.1304 53.1349 51.227L54.1065 51.4656C54.6917 51.6077 55.1278 51.825 55.4147 52.1176C55.7016 52.4074 55.8451 52.781 55.8451 53.2384C55.8451 53.6134 55.7371 53.9486 55.5212 54.244C55.3082 54.5395 55.0099 54.7725 54.6264 54.9429C54.2428 55.1134 53.7968 55.1986 53.2883 55.1986C52.6207 55.1986 52.0681 55.0537 51.6306 54.7639C51.1931 54.4742 50.9161 54.0509 50.7996 53.494L51.7542 53.2554C51.8451 53.6077 52.017 53.8719 52.2698 54.048C52.5255 54.2242 52.8593 54.3122 53.2712 54.3122C53.74 54.3122 54.1121 54.2128 54.3877 54.0139C54.6661 53.8122 54.8053 53.5707 54.8053 53.2895C54.8053 53.0622 54.7258 52.8719 54.5667 52.7185C54.4076 52.5622 54.1633 52.4457 53.8337 52.369L52.7428 52.1134C52.1434 51.9713 51.7031 51.7511 51.4218 51.4529C51.1434 51.1517 51.0042 50.7753 51.0042 50.3236C51.0042 49.9543 51.1079 49.6276 51.3153 49.3435C51.5255 49.0594 51.811 48.8364 52.1718 48.6744C52.5354 48.5125 52.9474 48.4315 53.4076 48.4315C54.0553 48.4315 54.5639 48.5736 54.9332 48.8577C55.3053 49.1418 55.5695 49.5168 55.7258 49.9827ZM62.433 55.1986C61.8194 55.1986 61.291 55.0537 60.8478 54.7639C60.4046 54.4742 60.0637 54.075 59.8251 53.5665C59.5864 53.058 59.4671 52.477 59.4671 51.8236C59.4671 51.1588 59.5893 50.5722 59.8336 50.0636C60.0808 49.5523 60.4245 49.1531 60.8649 48.8662C61.308 48.5764 61.8251 48.4315 62.416 48.4315C62.8762 48.4315 63.291 48.5168 63.6603 48.6872C64.0296 48.8577 64.3322 49.0963 64.568 49.4031C64.8038 49.71 64.9501 50.0679 65.0069 50.477H64.0012C63.9245 50.1787 63.7541 49.9145 63.4899 49.6844C63.2285 49.4514 62.8762 49.335 62.433 49.335C62.041 49.335 61.6972 49.4372 61.4018 49.6418C61.1092 49.8435 60.8805 50.129 60.7157 50.4983C60.5538 50.8648 60.4728 51.2952 60.4728 51.7895C60.4728 52.2952 60.5524 52.7355 60.7114 53.1105C60.8734 53.4855 61.1007 53.7767 61.3933 53.9841C61.6887 54.1915 62.0353 54.2952 62.433 54.2952C62.6944 54.2952 62.9316 54.2497 63.1447 54.1588C63.3578 54.0679 63.5382 53.9372 63.6859 53.7668C63.8336 53.5963 63.9387 53.3918 64.0012 53.1531H65.0069C64.9501 53.5395 64.8095 53.8875 64.585 54.1972C64.3634 54.504 64.0694 54.7483 63.7029 54.9301C63.3393 55.1091 62.916 55.1986 62.433 55.1986ZM68.6562 55.1986C68.0653 55.1986 67.5468 55.058 67.1008 54.7767C66.6576 54.4955 66.311 54.102 66.061 53.5963C65.8138 53.0906 65.6903 52.4997 65.6903 51.8236C65.6903 51.1418 65.8138 50.5466 66.061 50.0381C66.311 49.5296 66.6576 49.1347 67.1008 48.8534C67.5468 48.5722 68.0653 48.4315 68.6562 48.4315C69.2471 48.4315 69.7641 48.5722 70.2073 48.8534C70.6533 49.1347 70.9999 49.5296 71.2471 50.0381C71.4971 50.5466 71.6221 51.1418 71.6221 51.8236C71.6221 52.4997 71.4971 53.0906 71.2471 53.5963C70.9999 54.102 70.6533 54.4955 70.2073 54.7767C69.7641 55.058 69.2471 55.1986 68.6562 55.1986ZM68.6562 54.2952C69.105 54.2952 69.4743 54.1801 69.7641 53.95C70.0539 53.7199 70.2684 53.4173 70.4076 53.0423C70.5468 52.6673 70.6164 52.2611 70.6164 51.8236C70.6164 51.3861 70.5468 50.9784 70.4076 50.6006C70.2684 50.2227 70.0539 49.9173 69.7641 49.6844C69.4743 49.4514 69.105 49.335 68.6562 49.335C68.2073 49.335 67.838 49.4514 67.5482 49.6844C67.2584 49.9173 67.044 50.2227 66.9047 50.6006C66.7655 50.9784 66.6959 51.3861 66.6959 51.8236C66.6959 52.2611 66.7655 52.6673 66.9047 53.0423C67.044 53.4173 67.2584 53.7199 67.5482 53.95C67.838 54.1801 68.2073 54.2952 68.6562 54.2952ZM76.8022 52.3861V48.5168H77.8079V55.0622H76.8022V53.9543H76.734C76.5806 54.2867 76.342 54.5693 76.0181 54.8023C75.6943 55.0324 75.2852 55.1475 74.7909 55.1475C74.3818 55.1475 74.0181 55.058 73.7 54.879C73.3818 54.6972 73.1318 54.4244 72.95 54.0608C72.7681 53.6943 72.6772 53.2327 72.6772 52.6759V48.5168H73.6829V52.6077C73.6829 53.085 73.8164 53.4656 74.0835 53.7497C74.3534 54.0338 74.6971 54.1759 75.1147 54.1759C75.3647 54.1759 75.619 54.1119 75.8775 53.9841C76.1389 53.8563 76.3576 53.6602 76.5338 53.396C76.7127 53.1318 76.8022 52.7952 76.8022 52.3861ZM80.1756 51.1247V55.0622H79.1699V48.5168H80.1415V49.5395H80.2267C80.3801 49.2071 80.6131 48.9401 80.9256 48.7384C81.2381 48.5338 81.6415 48.4315 82.1358 48.4315C82.579 48.4315 82.9668 48.5225 83.2992 48.7043C83.6315 48.8832 83.8901 49.156 84.0747 49.5225C84.2594 49.8861 84.3517 50.3463 84.3517 50.9031V55.0622H83.346V50.9713C83.346 50.4571 83.2125 50.0565 82.9455 49.7696C82.6784 49.4798 82.3119 49.335 81.846 49.335C81.525 49.335 81.2381 49.4046 80.9852 49.5438C80.7352 49.683 80.5378 49.8861 80.3929 50.1531C80.248 50.4202 80.1756 50.744 80.1756 51.1247ZM88.556 48.5168V49.369H85.164V48.5168H88.556ZM86.1526 46.9486H87.1583V53.1872C87.1583 53.4713 87.1995 53.6844 87.2819 53.8264C87.3671 53.9656 87.475 54.0594 87.6057 54.1077C87.7392 54.1531 87.8799 54.1759 88.0276 54.1759C88.1384 54.1759 88.2293 54.1702 88.3003 54.1588C88.3713 54.1446 88.4282 54.1332 88.4708 54.1247L88.6753 55.0281C88.6071 55.0537 88.512 55.0793 88.3898 55.1048C88.2677 55.1332 88.1128 55.1475 87.9253 55.1475C87.6412 55.1475 87.3628 55.0864 87.0901 54.9642C86.8202 54.8421 86.5958 54.656 86.4168 54.406C86.2407 54.156 86.1526 53.8406 86.1526 53.46V46.9486Z" fill="white"/>
<path d="M43.3249 77.0622V75.2895L47.4669 71.4543C47.8192 71.1134 48.1147 70.8065 48.3533 70.5338C48.5957 70.2611 48.7794 69.994 48.9044 69.7327C49.0294 69.4675 49.0919 69.1815 49.0919 68.8747C49.0919 68.5338 49.0143 68.2403 48.859 67.994C48.7037 67.744 48.4915 67.5528 48.2226 67.4202C47.9537 67.2838 47.6487 67.2156 47.3078 67.2156C46.9518 67.2156 46.6412 67.2876 46.376 67.4315C46.1109 67.5755 45.9063 67.7819 45.7624 68.0509C45.6184 68.3198 45.5465 68.6399 45.5465 69.0111H43.2112C43.2112 68.2497 43.3836 67.5887 43.7283 67.0281C44.073 66.4675 44.5559 66.0338 45.1772 65.727C45.7984 65.4202 46.5143 65.2668 47.3249 65.2668C48.1582 65.2668 48.8836 65.4145 49.501 65.71C50.1222 66.0016 50.6052 66.4069 50.9499 66.9259C51.2946 67.4448 51.4669 68.0395 51.4669 68.71C51.4669 69.1493 51.3798 69.5831 51.2056 70.0111C51.0351 70.4391 50.7302 70.9145 50.2908 71.4372C49.8514 71.9562 49.2321 72.5793 48.4328 73.3065L46.734 74.9713V75.0509H51.6203V77.0622H43.3249ZM52.3369 75.0168V73.0793L57.1948 65.4259H58.8653V68.1077H57.8766L54.8141 72.9543V73.0452H61.7176V75.0168H52.3369ZM57.9221 77.0622V74.4259L57.9676 73.5679V65.4259H60.2744V77.0622H57.9221ZM62.5406 75.0168V73.0793L67.3986 65.4259H69.069V68.1077H68.0804L65.0179 72.9543V73.0452H71.9213V75.0168H62.5406ZM68.1258 77.0622V74.4259L68.1713 73.5679V65.4259H70.4781V77.0622H68.1258Z" fill="white"/>
<rect x="40.1665" y="96.3333" width="34.6667" height="34.6667" rx="17.3333" fill="#FFFF00"/>
<g clip-path="url(#clip0_1033_1771)">
<path d="M58.7751 117.67C59.6382 117.966 60.4003 118.154 61.4953 118.491C61.0746 123.806 56.0485 121.695 58.7751 117.67ZM63.2627 112.788C63.206 111.192 62.9249 109.098 60.6858 109.426C59.6362 109.7 58.8606 110.853 58.4959 112.842C58.2955 113.935 58.412 115.47 58.6483 116.39C58.8641 117.039 58.7907 116.999 59.0226 117.122C59.9202 117.324 60.8087 117.548 61.7136 117.776C62.6328 117.127 63.3878 113.681 63.2627 112.788ZM56.3526 112.665C56.5888 111.745 56.7053 110.21 56.505 109.117C56.1405 107.128 55.3649 105.975 54.3151 105.701C52.076 105.373 51.7949 107.466 51.7382 109.062C51.6131 109.955 52.3682 113.402 53.2875 114.051C54.1923 113.823 55.0807 113.599 55.9785 113.397C56.2102 113.274 56.1368 113.314 56.3526 112.665ZM53.5055 114.766C53.926 120.081 58.9522 117.97 56.2256 113.945C55.3625 114.241 54.6005 114.429 53.5055 114.766Z" fill="black"/>
</g>
<defs>
<clipPath id="clip0_1033_1771">
<rect width="16" height="16" fill="white" transform="translate(49.5 105.667)"/>
</clipPath>
</defs>
</svg>
